<svg viewBox="0 0 424 496" version="1.1" xmlns="http://www.w3.org/2000/svg" xmlns:xlink="http://www.w3.org/1999/xlink">
    <defs>
        <polygon id="path-1" points="423.772 0.218585264 423.772 496 0 496 0 0.218585264 423.772 0.218585264"></polygon>
        <polygon id="path-3" points="0.995821311 496 383.772 496 383.772 0.218375648 0.995821311 0.218375648 0.995821311 496"></polygon>
    </defs>
    <g id="Page-1" stroke="none" stroke-width="1" fill="none" fill-rule="evenodd">
        <g transform="translate(0.000000, -1.000000)">
            <polygon id="Fill-1" fill="#FFFFFF" points="61.1274 8.8875 309.8834 8.8875 413.8834 110.5545 413.8834 481.8875 51.2174 481.8875 40.8834 464.1935 40.8834 32.5545"></polygon>
            <g id="Group-23" transform="translate(0.000000, 0.782000)">
                <g id="Group-4">
                    <mask id="mask-2" fill="white">
                        <use xlink:href="#path-1"></use>
                    </mask>
                    <g id="Clip-3"></g>
                    <path d="M55.7588,185.7964 L55.7588,179.3094 C55.7648,130.1484 55.7618,80.9874 55.7848,31.8264 C55.7898,21.0474 61.6598,15.0244 72.3718,15.0194 C149.3628,14.9784 226.3548,14.9834 303.3448,14.9894 C309.2358,14.9894 312.0008,17.8524 312.0038,23.8544 C312.0148,42.3524 311.9558,60.8504 312.0158,79.3484 C312.0768,98.3824 324.6648,110.9254 343.7058,110.9714 C361.8698,111.0154 380.0348,110.9994 398.1998,110.9914 C405.8268,110.9884 407.9878,113.0704 407.9888,120.5714 C407.9968,204.0624 408.0028,287.5524 408.0088,371.0434 C408.0108,402.2064 408.0278,433.3694 407.9948,464.5324 C407.9838,475.3604 402.0768,481.2304 391.3708,481.2284 C382.5388,481.2274 373.7058,481.2224 364.8738,481.2224 C267.7158,481.2244 170.5578,481.2334 73.4008,481.2214 C62.1418,481.2204 55.7798,474.8224 55.7658,463.5484 C55.7458,446.3844 55.7708,429.2194 55.7768,412.0544 C55.7778,409.9374 55.7768,407.8194 55.7768,405.4674 L40.9978,405.4674 L40.9978,410.0714 C41.0008,428.2364 40.9848,446.4004 41.0128,464.5654 C41.0408,482.4644 54.3658,495.9654 72.2378,495.9724 C178.8928,496.0104 285.5478,496.0064 392.2028,495.9774 C410.5988,495.9714 423.7438,482.9164 423.7508,464.4854 C423.7938,347.4994 423.7788,230.5124 423.6478,113.5254 C423.6458,111.3514 422.5478,108.6184 421.0188,107.0894 C386.2608,72.3244 351.3938,37.6684 316.4288,3.1114 C314.8668,1.5694 312.1888,0.3424 310.0288,0.3384 C230.7038,0.2024 151.3798,0.1924 72.0548,0.2574 C53.6608,0.2734 41.0158,13.1454 41.0118,31.5044 C41.0008,81.1644 41.0088,130.8254 41.0088,180.4864 L41.0088,185.7964 L55.7588,185.7964 Z M179.6268,388.9804 C228.9558,388.9804 278.2838,388.9954 327.6128,388.9724 C346.8268,388.9644 359.7338,376.1764 359.7488,357.1034 C359.7798,315.7734 359.7778,274.4434 359.7488,233.1134 C359.7368,214.0764 346.7898,201.2214 327.6278,201.2194 C228.9698,201.2094 130.3128,201.2134 31.6548,201.2394 C12.9598,201.2444 0.0258,214.2944 0.0158,233.1094 C-0.0072,274.2724 -0.0032,315.4354 0.0138,356.5984 C0.0218,376.1264 12.7338,388.9604 32.1398,388.9704 C81.3018,389.0004 130.4648,388.9804 179.6268,388.9804 L179.6268,388.9804 Z" id="Fill-2" fill="#FFFFFF" mask="url(#mask-2)"></path>
                </g>
                <g id="Group-7" transform="translate(0.000000, 201.000000)" fill="#000000">
                    <path d="M302.833,48.3301 L246.11,48.3301 L246.11,143.8811 L272.079,143.8811 L272.079,108.1321 L300.633,108.1321 L300.633,86.8891 L272.257,86.8891 L272.257,69.1281 L302.833,69.1281 L302.833,48.3301 Z M88.09,112.7511 C94.59,112.1931 100.764,112.1531 106.744,111.0581 C122.756,108.1221 132.177,95.5151 131.867,78.1491 C131.574,61.7661 122.789,50.8911 106.192,49.1031 C92.683,47.6491 78.949,48.2661 65.314,48.0051 C64.219,47.9841 63.118,48.2741 62.127,48.4061 L62.127,143.8701 L88.09,143.8701 L88.09,112.7511 Z M147.006,144.0451 C160.066,144.0451 172.577,144.6371 185.01,143.9161 C207.737,142.6001 223.147,129.6541 227.444,108.5381 C228.757,102.0951 229.11,95.2771 228.726,88.7001 C227.476,67.3711 215.476,52.5061 194.897,49.5651 C179.243,47.3281 163.169,48.0281 147.006,47.4111 L147.006,144.0451 Z M179.627,187.9801 C130.465,187.9801 81.302,188.0001 32.14,187.9711 C12.734,187.9601 0.022,175.1261 0.014,155.5991 C-0.003,114.4351 -0.007,73.2721 0.016,32.1091 C0.026,13.2941 12.959,0.2441 31.655,0.2391 C130.312,0.2131 228.97,0.2091 327.628,0.2191 C346.79,0.2211 359.736,13.0761 359.749,32.1131 C359.777,73.4431 359.78,114.7731 359.749,156.1031 C359.733,175.1771 346.827,187.9651 327.613,187.9731 C278.284,187.9951 228.956,187.9801 179.627,187.9801 L179.627,187.9801 Z" id="Fill-5"></path>
                </g>
                <g id="Group-10" transform="translate(40.000000, 0.000000)">
                    <mask id="mask-4" fill="white">
                        <use xlink:href="#path-3"></use>
                    </mask>
                    <g id="Clip-9"></g>
                    <path d="M344.8037,96.1279 C325.8547,76.7619 306.5067,56.9889 286.8797,36.9309 C286.8797,52.6079 286.6237,68.0439 287.0027,83.4639 C287.1597,89.8519 293.3157,95.8369 299.9417,96.0039 C315.3557,96.3929 330.7857,96.1279 344.8037,96.1279 M15.7587,185.7959 L1.0097,185.7959 L1.0097,180.4869 C1.0087,130.8259 1.0007,81.1649 1.0117,31.5039 C1.0157,13.1459 13.6607,0.2739 32.0547,0.2579 C111.3797,0.1919 190.7037,0.2019 270.0287,0.3389 C272.1887,0.3419 274.8667,1.5689 276.4287,3.1119 C311.3937,37.6689 346.2607,72.3249 381.0187,107.0889 C382.5477,108.6189 383.6457,111.3519 383.6477,113.5259 C383.7787,230.5119 383.7937,347.4989 383.7507,464.4849 C383.7437,482.9159 370.5987,495.9719 352.2027,495.9779 C245.5477,496.0069 138.8927,496.0109 32.2387,495.9729 C14.3657,495.9659 1.0407,482.4649 1.0127,464.5649 C0.9847,446.3999 1.0007,428.2359 0.9977,410.0709 L0.9977,405.4679 L15.7767,405.4679 C15.7767,407.8189 15.7777,409.9379 15.7767,412.0549 C15.7707,429.2199 15.7457,446.3849 15.7657,463.5489 C15.7797,474.8219 22.1417,481.2209 33.4007,481.2219 C130.5577,481.2329 227.7157,481.2249 324.8737,481.2229 C333.7057,481.2229 342.5387,481.2279 351.3707,481.2289 C362.0767,481.2309 367.9837,475.3599 367.9947,464.5319 C368.0277,433.3689 368.0107,402.2059 368.0087,371.0429 C368.0027,287.5529 367.9967,204.0629 367.9897,120.5719 C367.9877,113.0699 365.8267,110.9879 358.1997,110.9909 C340.0347,110.9989 321.8697,111.0149 303.7057,110.9719 C284.6647,110.9249 272.0767,98.3829 272.0157,79.3479 C271.9557,60.8509 272.0147,42.3529 272.0037,23.8549 C272.0007,17.8529 269.2357,14.9899 263.3447,14.9889 C186.3547,14.9829 109.3627,14.9789 32.3717,15.0189 C21.6597,15.0239 15.7897,21.0469 15.7847,31.8259 C15.7617,80.9869 15.7647,130.1479 15.7587,179.3089 L15.7587,185.7959" id="Fill-8" fill="#000000" mask="url(#mask-4)"></path>
                </g>
                <path d="M173.1636,323.6104 C188.9396,325.1564 197.8176,320.1414 200.3146,307.5914 C201.4946,301.6614 201.7246,295.2924 201.0116,289.2834 C199.1866,273.8874 188.4966,267.1134 173.1636,271.0064 L173.1636,323.6104 Z M147.0056,345.0454 L147.0056,248.4104 C163.1686,249.0274 179.2426,248.3284 194.8966,250.5654 C215.4756,253.5064 227.4756,268.3714 228.7256,289.7004 C229.1106,296.2774 228.7566,303.0944 227.4446,309.5384 C223.1476,330.6544 207.7376,343.5994 185.0106,344.9164 C172.5766,345.6364 160.0666,345.0454 147.0056,345.0454 L147.0056,345.0454 Z" id="Fill-11" fill="#FFFFFF"></path>
                <path d="M88.2651,291.791 C94.6641,292.353 100.8071,292.138 103.3951,286.017 C104.8311,282.619 105.0301,277.388 103.3671,274.274 C100.2851,268.502 93.9061,270.398 88.2651,270.402 L88.2651,291.791 Z M88.0901,313.751 L88.0901,344.87 L62.1271,344.87 L62.1271,249.406 C63.1181,249.274 64.2191,248.984 65.3141,249.005 C78.9491,249.266 92.6831,248.649 106.1921,250.103 C122.7881,251.891 131.5741,262.766 131.8671,279.149 C132.1771,296.515 122.7561,309.122 106.7441,312.058 C100.7641,313.153 94.5901,313.193 88.0901,313.751 L88.0901,313.751 Z" id="Fill-13" fill="#FFFFFF"></path>
                <polygon id="Fill-15" fill="#FFFFFF" points="302.833 249.3301 302.833 270.1281 272.257 270.1281 272.257 287.8891 300.633 287.8891 300.633 309.1321 272.079 309.1321 272.079 344.8811 246.11 344.8811 246.11 249.3301"></polygon>
                <path d="M384.8037,96.1279 C370.7857,96.1279 355.3557,96.3929 339.9417,96.0039 C333.3157,95.8369 327.1597,89.8519 327.0027,83.4639 C326.6237,68.0439 326.8797,52.6079 326.8797,36.9309 C346.5067,56.9889 365.8547,76.7619 384.8037,96.1279" id="Fill-17" fill="#FFFFFF"></path>
                <path d="M173.1636,323.6104 L173.1636,271.0064 C188.4966,267.1134 199.1866,273.8874 201.0116,289.2834 C201.7246,295.2924 201.4946,301.6614 200.3146,307.5914 C197.8176,320.1414 188.9396,325.1564 173.1636,323.6104" id="Fill-19" fill="#000000"></path>
                <path d="M88.2651,291.791 L88.2651,270.402 C93.9061,270.398 100.2851,268.502 103.3671,274.274 C105.0301,277.388 104.8311,282.619 103.3951,286.017 C100.8071,292.138 94.6641,292.353 88.2651,291.791" id="Fill-21" fill="#000000"></path>
            </g>
        </g>
    </g>
</svg>