<svg width="500" height="500" viewBox="0 0 500 500" version="1.1" xmlns="http://www.w3.org/2000/svg" xmlns:xlink="http://www.w3.org/1999/xlink">
    <path fill="#000000" class="svg__element" d="M239.257812,0 C247.210938,3.43359375 250.758789,9.38964844 250.410156,18.1181641 C250.074219,26.5654297 250.380859,35.0371094 250.354492,43.4980469 C250.3125,57.1513672 244.723633,62.8359375 231.18457,62.8417969 C177.65332,62.8623047 124.12207,62.8457031 70.5908203,62.828125 C62.7958984,62.8251953 62.8369141,62.7890625 62.8378906,70.7958984 C62.8447266,190.0625 62.8408203,309.328125 62.8388672,428.594727 C62.8388672,429.733398 62.9638672,430.889648 62.8125,432.008789 C62.2490234,436.160156 64.1279297,437.209961 68.0917969,437.194336 C99.3310547,437.061523 130.571289,437.12793 161.811523,437.128906 C251.138672,437.130859 340.466797,437.129883 429.793945,437.128906 C437.164062,437.128906 437.166016,437.126953 437.164062,429.733398 C437.15625,375.550781 437.145508,321.368164 437.141602,267.186523 C437.139648,255.861328 443.314453,249.629883 454.572266,249.608398 C463.68457,249.591797 472.807617,249.90332 481.905273,249.549805 C490.664062,249.208008 496.563477,252.814453 500,260.742188 L500,475.585938 C496.330078,488.191406 488.134766,496.273438 475.585938,500 L24.4140625,500 C11.8291016,496.30957 3.65332031,488.208984 0,475.585938 L0,24.4140625 C3.61425781,11.7529297 11.7412109,3.60253906 24.4140625,0 L239.257812,0 Z" id="Fill-3"></path>
    <path fill="#000000" class="svg__element" d="M500,176.757812 C492.474609,190.250977 481.460938,191.762695 470.408203,180.746094 C454.047852,164.438477 437.641602,148.173828 421.473633,131.676758 C418.136719,128.272461 416.280273,128.458984 412.989258,131.762695  C363.400391,181.564453 313.678711,231.234375 263.980469,280.929688 C254.108398,290.801758 245.945312,290.762695 235.979492,280.821289 C229.990234,274.845703 223.987305,268.884766 218.039062,262.871094 C209.529297,254.266602 209.554688,245.605469 218.176758,236.979492 C267.859375,187.269531 317.556641,137.574219 367.28125,87.9072266 C368.766602,86.4248047 370.608398,85.2978516 372.695312,83.6884766 C370.654297,81.3798828 369.482422,79.90625 368.160156,78.5810547 C351.505859,61.8769531 334.699219,45.3203125 318.283203,28.3867187 C315.425781,25.4404297 313.073242,21.1054687 312.427734,17.0996094 C311.086914,8.76660156 315.835938,3.31152344 323.242188,0 L489.257812,0 C494.294922,2.12402344 497.905273,5.67578125 500,10.7421875 L500,176.757812 Z" id="Fill-5"></path>
</svg>