<?xml version="1.0" encoding="UTF-8" standalone="no"?>
<svg width="154px" height="52px" viewBox="0 0 154 52" version="1.1" xmlns="http://www.w3.org/2000/svg" xmlns:xlink="http://www.w3.org/1999/xlink">
    <!-- Generator: Sketch 39.1 (31720) - http://www.bohemiancoding.com/sketch -->
    <title>aka</title>
    <desc>Created with Sketch.</desc>
    <defs></defs>
    <g id="Page-1" stroke="none" stroke-width="1" fill="none" fill-rule="evenodd">
        <g id="Desktop-HD" transform="translate(-1171.000000, -348.000000)" fill="#FFFFFF">
            <g id="aka" transform="translate(1171.000000, 348.000000)">
                <polygon id="Shape" points="134.104027 1.1641791 153.819128 26.4656716 134.104027 51.7930348 122.786577 51.7930348 142.501678 26.4915423 122.70906 1.19004975"></polygon>
                <polygon id="Shape" points="43.745302 1.06069652 43.745302 41.6776119 48.2412752 51.7412935 53.564094 51.7412935 53.564094 1.03482587"></polygon>
                <polygon id="Shape" points="73.3308725 1.06069652 53.538255 26.3621891 73.3308725 51.7412935 84.7258389 51.7412935 64.9332215 26.3621891 84.7258389 0.983084577 73.3308725 0.983084577"></polygon>
                <polygon id="Shape" points="9.81879195 51.7671642 0 51.7671642 23.0224832 0.155223881 46.0449664 51.7671642 36.3295302 51.7671642 23.0224832 21.8865672"></polygon>
                <polygon id="Shape" points="86.792953 51.7671642 80.6432886 43.7731343 100.1 0.155223881 123.122483 51.7671642 113.303691 51.7671642 100.074161 21.8865672"></polygon>
            </g>
        </g>
    </g>
</svg>