<?xml version="1.0" encoding="UTF-8" standalone="no"?>
<svg width="189px" height="62px" viewBox="0 0 189 62" version="1.1" xmlns="http://www.w3.org/2000/svg" xmlns:xlink="http://www.w3.org/1999/xlink">
    <!-- Generator: Sketch 39.1 (31720) - http://www.bohemiancoding.com/sketch -->
    <title>britishmuseum</title>
    <desc>Created with Sketch.</desc>
    <defs>
        <polygon id="path-1" points="188.938667 0.14914737 188.938667 0.0196666667 0 0.0196666667 0 61.6666667 188.938667 61.6666667 188.938667 0.14914737 18.3451333 0.14914737 18.3451333 61.6666526 188.9388 61.6666526 188.9388 0.14914737"></polygon>
        <polygon id="path-3" points="20.6381667 0.0196666667 0.287833333 0.0196666667 0.287833333 28.1132 20.6381667 28.1132 20.6381667 0.0196666667"></polygon>
        <polygon id="path-5" points="4.32166607 0.0196666667 0.0677859312 0.0196666667 0.0677859312 4.37719521 4.32166607 4.37719521 4.32166607 0.0196666667"></polygon>
        <polygon id="path-7" points="4.54951298 0.0196666667 0.306835518 0.0196666667 0.306835518 4.37298493 4.54951298 4.37298493 4.54951298 0.0196666667"></polygon>
        <polygon id="path-9" points="31.9386667 17.6390333 31.9386667 0.224653823 0.102459289 0.224653823 0.102459289 17.6390333 31.9386667 17.6390333"></polygon>
    </defs>
    <g id="Page-1" stroke="none" stroke-width="1" fill="none" fill-rule="evenodd">
        <g id="Desktop-HD" transform="translate(-137.000000, -342.000000)">
            <g id="britishmuseum" transform="translate(137.000000, 342.000000)">
                <g id="Group-3" transform="translate(0.000000, 0.313667)">
                    <mask id="mask-2" fill="white">
                        <use xlink:href="#path-1"></use>
                    </mask>
                    <g id="Clip-2"></g>
                    <path d="M42.5434667,21.2273667 C42.4778,20.0410333 42.0914667,19.0437 41.3058,18.2213667 C39.5134667,16.3447 36.4441333,16.2870333 34.4501333,18.1030333 C33.1678,19.2710333 32.6361333,20.7767 32.5111333,22.4777 C32.2664667,25.8060333 34.4871333,28.4840333 37.8121333,28.6997 C39.6148,28.8163667 41.1288,28.1440333 42.1471333,26.5760333 C42.3281333,26.2973667 42.4401333,25.9740333 42.5891333,25.6603667 C41.9871333,25.5457 41.5344667,25.5730333 41.2804667,26.1713667 C41.1824667,26.4027 40.9508,26.5873667 40.7544667,26.7650333 C38.9768,28.3800333 36.1658,27.7050333 35.3564667,25.4560333 C35.1778,24.9597 35.0401333,24.4283667 35.0064667,23.9050333 C34.9494667,23.0250333 34.9908,22.1387 34.9908,21.2273667 L42.5434667,21.2273667 Z M86.2241333,12.9803667 C86.7241333,12.9803667 87.1771333,12.9587 87.6274667,12.9850333 C88.5074667,13.0367 88.9158,13.3977 89.0288,14.2717 C89.1104667,14.9037 89.1504667,15.5450333 89.1538,16.1823667 C89.1668,18.8743667 89.1648,21.5667 89.1541333,24.2590333 C89.1521333,24.7363667 89.1128,25.2180333 89.0384667,25.6893667 C88.8984667,26.5823667 88.5068,26.9330333 87.5958,26.9863667 C87.0704667,27.0170333 86.5418,26.9917 86.0104667,26.9917 L86.0104667,28.1153667 L95.0221333,28.1153667 L95.0221333,27.0423667 C94.5561333,27.0217 94.1048,27.0157 93.6561333,26.9787 C92.7244667,26.9023667 92.2591333,26.4467 92.1658,25.5180333 C92.1231333,25.0947 92.0968,24.6677 92.0961333,24.2423667 C92.0914667,19.8973667 92.0931333,15.5527 92.0931333,11.2077 L92.0931333,10.7280333 C91.9271333,10.7280333 91.8168,10.7090333 91.7158,10.7310333 C89.9001333,11.1267 88.0854667,11.5270333 86.2241333,11.9363667 L86.2241333,12.9803667 Z M117.252133,27.0460333 C116.804467,27.0240333 116.367467,27.0163667 115.933133,26.9787 C115.051467,26.9027 114.601133,26.5097 114.437467,25.6433667 C114.366133,25.2663667 114.3378,24.8757 114.337467,24.4913667 C114.3308,20.0653667 114.333467,15.6393667 114.333467,11.2133667 L114.333467,10.7043667 C112.270467,11.1127 110.2698,11.5087 108.255133,11.9080333 L108.255133,12.9800333 C108.747133,12.9800333 109.212467,12.9583667 109.675467,12.9843667 C110.607133,13.0373667 111.025467,13.3957 111.2098,14.3073667 C111.2908,14.7100333 111.3498,15.1247 111.353467,15.5343667 C111.378467,18.2933667 111.392133,21.0523667 111.393467,23.8113667 C111.3938,24.3287 111.346467,24.8493667 111.278467,25.3627 C111.133133,26.4587 110.652467,26.9107 109.5568,26.9877 C109.1248,27.0183667 108.6888,26.9927 108.2508,26.9927 L108.2508,28.1043667 L117.252133,28.1043667 L117.252133,27.0460333 Z M98.7864667,12.9543667 L98.7864667,13.4597 C98.7864667,16.3663667 98.7794667,19.2727 98.7908,22.1790333 C98.7941333,23.0843667 98.8211333,23.9913667 98.8864667,24.8943667 C98.9701333,26.0517 99.3821333,27.0727 100.3068,27.8293667 C101.8938,29.1283667 104.309133,29.1223667 106.022467,27.8237 C106.6368,27.3580333 107.1008,26.7777 107.418133,26.0603667 C107.116467,25.8467 106.849133,25.6567 106.618467,25.4930333 C106.235467,25.9083667 105.907467,26.3313667 105.513133,26.6783667 C104.640133,27.4453667 102.577133,27.3530333 102.079133,25.6743667 C101.8998,25.0690333 101.779467,24.4223667 101.773467,23.7930333 C101.7408,20.2737 101.751133,16.7540333 101.748467,13.2343667 C101.748467,13.1453667 101.7708,13.0563667 101.788467,12.9257 L106.6228,12.9257 L106.6228,11.7813667 L101.7358,11.7813667 L101.7358,6.18336667 L100.900133,6.18336667 C100.782467,6.68936667 100.6958,7.18836667 100.549467,7.6697 C99.9071333,9.78636667 98.8528,11.5047 96.3961333,11.8273667 L96.3961333,12.9543667 L98.7864667,12.9543667 Z M18.4728,10.5250333 L18.4728,11.3597 C18.7174667,11.3817 18.9311333,11.3893667 19.1408,11.4220333 C19.8704667,11.5357 20.0981333,11.7757 20.1724667,12.5120333 C20.2008,12.7897 20.2241333,13.0697 20.2241333,13.3487 C20.2274667,17.3070333 20.2284667,21.2653667 20.2234667,25.2240333 C20.2231333,25.6227 20.1931333,26.0227 20.1538,26.4197 C20.0971333,26.9900333 19.8978,27.1977 19.3324667,27.2667 C19.0068,27.3063667 18.6761333,27.3033667 18.3451333,27.3193667 L18.3451333,28.2540333 L24.0168,28.2540333 L24.0168,27.2993667 C23.8794667,27.2993667 23.7621333,27.3017 23.6448,27.2987 C22.6298,27.2723667 22.4094667,27.1090333 22.3741333,26.0887 C22.3221333,24.5847 22.4068,23.0740333 22.3111333,21.5740333 C22.2464667,20.5630333 22.5314667,19.8190333 23.3081333,19.1837 C23.8471333,18.7430333 24.3451333,18.2657 25.0341333,18.0687 C26.3604667,17.6900333 27.4244667,18.3397 27.6728,19.6877 C27.7184667,19.9357 27.7554667,20.1893667 27.7568,20.4407 C27.7651333,22.1863667 27.7658,23.9320333 27.7618,25.6780333 C27.7611333,25.9430333 27.7394667,26.2107 27.6988,26.4730333 C27.6108,27.0423667 27.4478,27.2023667 26.8768,27.2697 C26.5654667,27.3063667 26.2498,27.3047 25.9504667,27.3197 L25.9504667,28.2413667 L31.7141333,28.2413667 L31.7141333,27.2987 C31.5221333,27.2987 31.3624667,27.3023667 31.2031333,27.2980333 C30.1771333,27.2700333 29.9461333,27.0463667 29.9231333,26.0070333 C29.9041333,25.1543667 29.9168,24.3013667 29.9054667,23.4487 C29.8894667,22.2367 29.9128,21.0217 29.8308,19.8140333 C29.7284667,18.3100333 28.8638,17.2947 27.4714667,16.9413667 C25.9631333,16.5587 24.5951333,16.8617 23.3938,17.8593667 C23.0501333,18.1447 22.7244667,18.4517 22.3244667,18.8077 L22.3244667,9.87803333 C21.0201333,10.0973667 19.7661333,10.3077 18.4728,10.5250333 L18.4728,10.5250333 Z M113.367133,45.3493667 C112.413133,44.2547 111.3048,43.6273667 109.914133,43.5910333 C108.376467,43.5510333 106.9958,43.9177 106.045467,45.2423667 C104.8918,46.8520333 104.9438,49.3233667 106.134133,50.9077 C106.7388,51.7120333 107.514467,52.3187 108.381467,52.7997 C109.3938,53.3617 110.437467,53.8660333 111.458467,54.4120333 C112.201133,54.8097 112.906133,55.2627 113.424467,55.9523667 C114.607133,57.5273667 113.973467,60.2283667 111.538133,60.5143667 C109.571133,60.7450333 108.0658,59.9757 107.0378,58.3283667 C106.600467,57.6277 106.328133,56.8237 105.9638,56.0297 L105.214467,56.0297 L105.214467,61.4817 L105.923133,61.4817 C106.209467,60.9250333 106.4888,60.3813667 106.7808,59.8130333 C108.460467,61.3710333 109.2888,61.6993667 111.510133,61.6223667 C112.260467,61.5963667 112.953467,61.3830333 113.6028,61.0290333 C116.427467,59.4873667 116.533133,55.8570333 115.258133,53.8353667 C114.580467,52.7610333 113.5888,52.0513667 112.487133,51.4867 C111.386133,50.9220333 110.255133,50.4160333 109.1558,49.8483667 C108.489133,49.5043667 107.891133,49.0517 107.476467,48.4033667 C106.608467,47.0453667 107.203467,45.3610333 108.741467,44.8900333 C109.980133,44.5103667 111.1158,44.7583667 112.106133,45.5943667 C113.000467,46.3497 113.522133,47.3453667 113.874467,48.4410333 C114.085133,49.0983667 114.082133,49.0997 114.786467,49.0613667 C114.809467,49.0603667 114.831467,49.0397 114.8608,49.0247 L114.8608,43.9013667 C114.1678,43.8337 114.172133,43.8357 113.876467,44.4217 C113.7278,44.7153667 113.5598,44.9997 113.367133,45.3493667 L113.367133,45.3493667 Z M129.370133,11.0387 C128.687467,10.9197 128.693467,10.9223667 128.4128,11.4830333 C128.250467,11.8070333 128.065467,12.1200333 127.843467,12.5243667 C127.7528,12.3847 127.7238,12.3223667 127.679467,12.2733667 C126.578133,11.0530333 125.193467,10.5837 123.579467,10.7423667 C122.615133,10.8373667 121.7468,11.1497 121.0178,11.8263667 C119.589133,13.1530333 119.051133,16.5583667 120.9648,18.4830333 C122.0018,19.5253667 123.273467,20.1793667 124.560133,20.8247 C125.6658,21.3793667 126.8158,21.8690333 127.683133,22.7960333 C128.469467,23.6357 128.6818,24.6350333 128.3738,25.7250333 C128.088467,26.7333667 127.391467,27.3560333 126.375133,27.5880333 C125.382133,27.8143667 124.408467,27.7103667 123.493133,27.2617 C122.0438,26.5513667 121.252467,25.3053667 120.7678,23.8240333 C120.535133,23.1123667 120.537133,23.1110333 119.776467,23.1490333 C119.7538,23.1500333 119.732467,23.1720333 119.715467,23.1817 L119.715467,28.6290333 C120.437133,28.6720333 120.424467,28.6660333 120.696133,28.0673667 C120.856467,27.7130333 121.065467,27.3803667 121.280133,26.9880333 C122.720133,28.5357 124.4418,29.0060333 126.396133,28.7357 C127.964133,28.5183667 129.249467,27.8130333 129.968467,26.3577 C130.755133,24.7660333 130.7568,23.1133667 130.037467,21.4903667 C129.440467,20.1433667 128.319467,19.3073667 127.054467,18.6550333 C126.1088,18.1677 125.1158,17.7693667 124.185467,17.2560333 C123.528133,16.8933667 122.884467,16.4643667 122.3348,15.9563667 C121.6298,15.3053667 121.404467,14.4357 121.701133,13.5013667 C121.9908,12.5893667 122.6768,12.1030333 123.596467,11.9283667 C124.8418,11.6917 125.9178,12.0400333 126.8208,12.9127 C127.6788,13.7417 128.164133,14.7837 128.484467,15.9160333 C128.5158,16.0260333 128.6038,16.1870333 128.687467,16.2017 C128.912133,16.2417 129.149133,16.2153667 129.399133,16.2153667 C129.399133,14.5043667 129.399467,12.8653667 129.3978,11.2267 C129.397467,11.1623667 129.379133,11.0980333 129.370133,11.0387 L129.370133,11.0387 Z M71.5251333,13.0333667 C72.0781333,13.0670333 72.5844667,13.0797 73.0858,13.1327 C73.7811333,13.2060333 74.1151333,13.5043667 74.2344667,14.1997 C74.3218,14.7097 74.3761333,15.2310333 74.3801333,15.7480333 C74.3988,18.2400333 74.4068,20.7323667 74.3934667,23.2243667 C74.3891333,24.0613667 74.3578,24.9040333 74.2524667,25.7333667 C74.1381333,26.6353667 73.7521333,26.9393667 72.8384667,26.9850333 C72.4048,27.0070333 71.9691333,26.9890333 71.5298,26.9890333 L71.5298,28.1157 L80.3831333,28.1157 L80.3831333,27.0190333 C80.1164667,27.0190333 79.8661333,27.0240333 79.6158,27.0177 C79.3498,27.0110333 79.0831333,27.0023667 78.8181333,26.9790333 C78.0251333,26.9083667 77.6534667,26.6010333 77.5041333,25.8293667 C77.4188,25.3873667 77.3701333,24.9320333 77.3658,24.4820333 C77.3474667,22.4833667 77.3184667,20.4833667 77.3628,18.4853667 C77.3804667,17.7093667 77.4971333,16.9123667 77.7178,16.1693667 C78.1731333,14.6383667 79.0521333,13.3857 80.5044667,12.6240333 C81.4694667,12.1180333 82.0321333,12.3357 82.4848,13.3257 C82.6008,13.5793667 82.7048,13.8427 82.8538,14.0763667 C83.2031333,14.6247 83.7964667,14.8300333 84.4234667,14.6493667 C84.9661333,14.4930333 85.3734667,13.9620333 85.3978,13.3650333 C85.4254667,12.6990333 85.1591333,12.1383667 84.7144667,11.6700333 C83.7094667,10.6120333 82.4778,10.5097 81.1778,10.9477 C79.3554667,11.5610333 78.1501333,12.8690333 77.3024667,14.5477 C77.2604667,14.6303667 77.2121333,14.7103667 77.1291333,14.8590333 C77.1104667,13.3997 76.9931333,12.0427 76.5354667,10.7270333 C75.6801333,10.9640333 74.8651333,11.2093667 74.0401333,11.4133667 C73.2061333,11.6193667 72.3624667,11.7837 71.5251333,11.9660333 L71.5251333,13.0333667 Z M134.2298,50.1400333 C134.2298,49.9293667 134.248467,49.7817 134.2268,49.6397 C133.8528,47.1760333 132.607467,45.3117 130.3348,44.2430333 C127.005467,42.6783667 122.922467,43.8777 120.801133,47.0030333 C119.256467,49.2780333 118.847133,51.8077 119.2428,54.4837 C119.5568,56.6063667 120.5148,58.3993667 122.1928,59.7637 C123.875467,61.1320333 125.8048,61.7360333 127.982467,61.6277 C130.5488,61.5000333 132.511467,60.3923667 133.842467,58.1907 C134.016467,57.9027 134.133467,57.5797 134.279133,57.2680333 C133.627467,57.1177 133.141133,57.1847 132.9308,57.8567 C132.8888,57.9913667 132.778133,58.1050333 132.6958,58.2263667 C130.828467,60.9803667 127.012467,61.0530333 125.195133,59.7663667 C124.047467,58.9533667 123.434133,57.7930333 123.051133,56.4897 C122.494467,54.5977 122.461467,52.6570333 122.5578,50.7067 C122.5858,50.1407 122.583133,50.1400333 123.130133,50.1400333 C126.649467,50.1397 130.168467,50.1400333 133.687133,50.1400333 L134.2298,50.1400333 Z M141.1998,44.4397 C139.2838,44.3763667 137.402467,44.3143667 135.509133,44.2520333 L135.509133,45.3460333 C135.990133,45.3833667 136.4438,45.3973667 136.8908,45.4580333 C137.5828,45.5517 137.941467,45.8840333 138.071133,46.5697 C138.1548,47.0127 138.2168,47.4670333 138.2198,47.9167 C138.2378,50.5163667 138.231133,53.1163667 138.243133,55.7157 C138.2458,56.2477 138.258133,56.7833667 138.324133,57.3107 C138.562467,59.2173667 139.3948,60.7023667 141.321133,61.3650333 C142.368467,61.7250333 143.462467,61.7260333 144.5238,61.5593667 C146.705133,61.2170333 148.303133,59.9407 149.537133,58.1627 C149.614467,58.0517 149.694133,57.9420333 149.8398,57.7363667 C149.8398,58.0207 149.835467,58.1780333 149.840467,58.3350333 C149.871467,59.3107 149.9748,60.2747 150.322133,61.1970333 C150.500467,61.6697 150.6008,61.6773667 151.098467,61.5683667 C152.017467,61.3663667 152.946133,61.2000333 153.8768,61.0567 C154.342133,60.9850333 154.820467,60.9960333 155.293467,60.9697 L155.293467,59.8583667 C154.976467,59.8583667 154.684133,59.8750333 154.394467,59.8553667 C153.4728,59.7920333 153.074467,59.4463667 152.913133,58.5347 C152.841467,58.1300333 152.8058,57.7137 152.804467,57.3023667 C152.792467,53.1163667 152.791133,48.9303667 152.7868,44.7440333 C152.786467,44.5897 152.7868,44.4357 152.7868,44.2930333 L146.9188,44.2930333 L146.9188,45.3933667 C147.289133,45.3933667 147.634133,45.3770333 147.977467,45.3963667 C149.224133,45.4663667 149.650467,45.8897 149.756133,47.1400333 C149.7618,47.2063667 149.768467,47.2727 149.769467,47.3390333 C149.7888,48.9380333 149.819467,50.5370333 149.8218,52.1360333 C149.823467,53.1213667 149.843467,54.1127 149.749467,55.0907 C149.473467,57.9633667 146.795133,60.2113667 143.9418,60.0193667 C142.565467,59.9267 141.6538,59.1660333 141.364467,57.8157 C141.262133,57.3377 141.208467,56.8397 141.2068,56.3510333 C141.194133,52.5513667 141.1998,48.7517 141.1998,44.9517 L141.1998,44.4397 Z M94.4074667,45.3267 C94.9768,45.3713667 95.4948,45.3963667 96.0088,45.4563667 C96.6261333,45.5283667 97.0034667,45.8993667 97.1128,46.5000333 C97.1998,46.9827 97.2674667,47.4763667 97.2728,47.9653667 C97.2941333,49.9917 97.2938,52.0187 97.2884667,54.0453667 C97.2874667,54.4697 97.2581333,54.8980333 97.1961333,55.3180333 C96.7844667,58.1003667 94.1434667,60.2293667 91.3821333,60.0180333 C90.0004667,59.9120333 89.0701333,59.1113667 88.8108,57.7523667 C88.7141333,57.2447 88.6614667,56.7213667 88.6598,56.2047 C88.6474667,52.3917 88.6531333,48.5780333 88.6531333,44.7650333 L88.6531333,44.2813667 L82.9801333,44.2813667 L82.9801333,45.3290333 C83.4738,45.3697 83.9501333,45.3940333 84.4218,45.4520333 C85.0181333,45.5257 85.3954667,45.8753667 85.5128,46.4613667 C85.5961333,46.8773667 85.6688,47.3033667 85.6728,47.7260333 C85.6994667,50.5250333 85.7001333,53.3247 85.7244667,56.1237 C85.7291333,56.6547 85.7594667,57.1923667 85.8508,57.7140333 C86.1198,59.2517 86.8348,60.4907 88.3141333,61.1763667 C89.1444667,61.5613667 90.0234667,61.6113667 90.9258,61.6307 C92.7894667,61.6710333 94.3684667,61.0013667 95.7241333,59.7840333 C96.2894667,59.2763667 96.7591333,58.6623667 97.2771333,58.0913667 C97.2808,58.1393667 97.2888,58.2123667 97.2931333,58.2853667 C97.3491333,59.2707 97.4144667,60.2550333 97.7851333,61.1867 C97.9754667,61.6650333 98.0958,61.6940333 98.5981333,61.5560333 C99.2114667,61.3873667 99.8341333,61.2300333 100.463133,61.1440333 C101.224133,61.0397 101.995467,61.0153667 102.770467,60.9557 L102.770467,59.8457 C102.4508,59.8457 102.1578,59.8680333 101.8688,59.8417 C100.9128,59.7550333 100.531133,59.4180333 100.3868,58.4787 C100.304133,57.9410333 100.2608,57.3923667 100.2588,56.8483667 C100.244133,52.7953667 100.244133,48.7420333 100.2398,44.6890333 C100.239467,44.5497 100.2398,44.4103667 100.2398,44.2800333 L94.4074667,44.2800333 L94.4074667,45.3267 Z M157.132467,59.8600333 L157.132467,60.9623667 L165.5338,60.9623667 L165.5338,59.9117 C165.0328,59.8703667 164.556133,59.8487 164.084467,59.7877 C163.506467,59.7133667 163.122133,59.3717 163.019133,58.8023667 C162.913467,58.2157 162.827467,57.6163667 162.8218,57.0217 C162.797133,54.3827 162.801133,51.7430333 162.8068,49.1037 C162.807133,48.9320333 162.860467,48.7247 162.964467,48.5943667 C163.454467,47.9813667 163.9258,47.3437 164.4868,46.8007 C165.5918,45.7310333 166.914133,45.1540333 168.491133,45.2137 C169.992133,45.2707 171.0238,46.0440333 171.3608,47.5100333 C171.502133,48.1277 171.572133,48.7743667 171.576133,49.4080333 C171.5918,51.9137 171.573133,54.4197 171.5548,56.9250333 C171.551133,57.4030333 171.516133,57.8840333 171.4508,58.3573667 C171.302133,59.4300333 170.884133,59.7987 169.787467,59.8570333 C169.474133,59.8737 169.1588,59.8597 168.837133,59.8597 L168.837133,60.9723667 L177.279467,60.9723667 L177.279467,60.4450333 L177.279467,59.8593667 C176.906467,59.8593667 176.588133,59.8727 176.271467,59.8567 C175.184133,59.8017 174.782133,59.4283667 174.6288,58.3420333 C174.597467,58.1180333 174.563467,57.8927 174.5618,57.6673667 C174.544133,55.2283667 174.529467,52.7897 174.521467,50.3510333 C174.515467,48.5187 174.520133,48.5183667 175.773467,47.1767 C175.855467,47.0890333 175.940467,47.0043667 176.027133,46.9217 C177.395133,45.6167 178.9708,44.9257 180.8958,45.2970333 C181.826467,45.4770333 182.5358,45.9930333 182.843467,46.8887 C183.069133,47.5467 183.2348,48.2587 183.247467,48.9500333 C183.295133,51.5750333 183.2738,54.2017 183.2688,56.8273667 C183.268133,57.2797 183.235133,57.7327 183.195467,58.1837 C183.090133,59.3810333 182.6438,59.8073667 181.4458,59.8590333 C181.105133,59.8737 180.7638,59.8613667 180.421133,59.8613667 L180.421133,60.9650333 L188.9388,60.9650333 L188.9388,59.9143667 C188.4448,59.8710333 187.968467,59.8477 187.4978,59.7830333 C186.940467,59.7063667 186.5668,59.3760333 186.4448,58.8280333 C186.346467,58.3887 186.2648,57.9350333 186.2608,57.4870333 C186.236133,54.6610333 186.2428,51.8353667 186.220133,49.0093667 C186.2158,48.4527 186.171133,47.8890333 186.071133,47.3417 C185.7428,45.5510333 184.762133,44.3123667 182.955467,43.8230333 C181.965133,43.5543667 180.956467,43.5157 179.9448,43.6603667 C178.1718,43.9150333 176.7348,44.8160333 175.463133,46.0267 C175.090133,46.3820333 174.713133,46.7337 174.3378,47.0877 C174.004133,45.6130333 173.142133,44.5553667 171.704467,43.9913667 C170.8468,43.6550333 169.950133,43.5593667 169.0378,43.5910333 C167.063133,43.6593667 165.4238,44.5043667 163.9908,45.8057 C163.5938,46.1663667 163.224467,46.5577 162.862467,46.9153667 C162.710133,45.9693667 162.574133,45.0237 162.402133,44.0847 C162.3018,43.5370333 162.221467,43.5057 161.6728,43.5980333 C161.607133,43.6090333 161.543133,43.6270333 161.477467,43.6410333 C160.111133,43.9293667 158.7438,44.2140333 157.379467,44.5123667 C157.2788,44.5343667 157.1288,44.6433667 157.120467,44.7240333 C157.089133,45.0213667 157.108133,45.3247 157.108133,45.6363667 C157.5588,45.6600333 157.9578,45.6683667 158.353467,45.7047 C159.1548,45.7783667 159.5388,46.1017 159.692133,46.8880333 C159.780467,47.3427 159.8308,47.8123667 159.833467,48.2757 C159.850133,51.0613667 159.853467,53.8477 159.8488,56.6333667 C159.8478,57.1917 159.812467,57.7520333 159.7588,58.3080333 C159.653467,59.3920333 159.208467,59.8033667 158.109467,59.8577 C157.793133,59.8733667 157.475467,59.8600333 157.132467,59.8600333 L157.132467,59.8600333 Z M60.8068,13.2373667 C62.4044667,12.8923667 63.9274667,12.4543667 65.3101333,11.5957 C68.6398,9.52836667 68.4788,5.26736667 66.8124667,3.2337 C65.9014667,2.12203333 64.7084667,1.45236667 63.3781333,0.995033333 C61.5831333,0.3777 59.7198,0.132366667 57.8348,0.150033333 C54.7181333,0.179033333 51.6018,0.2757 48.4854667,0.350033333 C47.8531333,0.365033333 47.2214667,0.407366667 46.5968,0.436366667 L46.5968,1.61803333 C47.3754667,1.61803333 48.1328,1.58736667 48.8868,1.62503333 C50.0914667,1.6857 50.6831333,2.17203333 50.8771333,3.3547 C51.0254667,4.25736667 51.1061333,5.18103333 51.1094667,6.0957 C51.1301333,11.6417 51.1301333,17.1873667 51.1091333,22.7330333 C51.1058,23.6067 51.0088,24.4880333 50.8644667,25.3507 C50.7148,26.2467 50.1168,26.7630333 49.2124667,26.9030333 C48.9758,26.9393667 48.7378,26.9830333 48.4994667,26.9873667 C47.8631333,26.9990333 47.2264667,26.9913667 46.5754667,26.9913667 L46.5754667,28.1400333 L46.9811333,28.1400333 C51.0334667,28.1397 55.0861333,28.1460333 59.1391333,28.1367 C60.8761333,28.1327 62.5944667,27.9697 64.2674667,27.4540333 C67.5131333,26.4537 69.3218,24.1897 69.4498,20.9440333 C69.5748,17.7723667 68.2001333,15.5303667 65.2711333,14.3060333 C64.3468,13.9197 63.3434667,13.7133667 62.3654667,13.4683667 C61.8581333,13.3417 61.3271333,13.3113667 60.8068,13.2373667 L60.8068,13.2373667 Z M70.5431333,60.9747 L83.7708,60.9747 L83.7708,59.8587 C83.0228,59.8587 82.3031333,59.8837 81.5858,59.8537 C80.0498,59.7897 79.3831333,59.2367 79.1961333,57.7197 C79.0594667,56.6133667 79.0361333,55.4880333 79.0338,54.3707 C79.0224667,49.0243667 79.0218,43.6777 79.0534667,38.3313667 C79.0588,37.4480333 79.2014667,36.5573667 79.3611333,35.6850333 C79.4734667,35.0727 79.9328,34.6990333 80.5461333,34.5777 C80.9618,34.4953667 81.3878,34.4420333 81.8114667,34.4257 C82.4588,34.4010333 83.1078,34.4193667 83.7778,34.4193667 L83.7778,33.2993667 L83.3658,33.2993667 C80.7928,33.2993667 78.2191333,33.3077 75.6461333,33.2893667 C75.3174667,33.2870333 75.1858,33.4077 75.0628,33.6813667 C72.3184667,39.8013667 69.5661333,45.9180333 66.8154667,52.0350333 C66.2438,53.3067 65.6721333,54.5780333 65.0761333,55.9043667 C64.9898,55.7193667 64.9268,55.5893667 64.8684667,55.4573667 C61.6481333,48.2097 58.4258,40.9627 55.2171333,33.7097 C55.0764667,33.3913667 54.9224667,33.2880333 54.5764667,33.2903667 C52.0698,33.3073667 49.5631333,33.2993667 47.0564667,33.2993667 L46.6268,33.2993667 L46.6268,34.4063667 C46.8511333,34.4063667 47.0491333,34.3997 47.2461333,34.4077 C47.9244667,34.4343667 48.6061333,34.4330333 49.2801333,34.5037 C50.1461333,34.5943667 50.5878,34.9817 50.7378,35.8443667 C50.8651333,36.5750333 50.9354667,37.3250333 50.9378,38.0670333 C50.9538,43.4267 50.9521333,48.7867 50.9398,54.1467 C50.9381333,54.8503667 50.8831333,55.5587 50.7884667,56.2560333 C50.5161333,58.2593667 49.5018,59.3560333 47.6001333,59.7500333 C47.2791333,59.8167 46.9521333,59.8530333 46.6238,59.9043667 L46.6238,60.9607 L56.4558,60.9607 L56.4558,59.8967 C56.1721333,59.8543667 55.9098,59.8193667 55.6488,59.7753667 C53.7311333,59.4540333 52.6384667,58.3840333 52.3151333,56.4643667 C52.2158,55.8760333 52.1548,55.2733667 52.1541333,54.6773667 C52.1421333,48.6773667 52.1468,42.6773667 52.1478,36.6773667 C52.1478,36.5693667 52.1631333,36.4613667 52.1788,36.2573667 C52.2578,36.4237 52.2931333,36.4923667 52.3238,36.5630333 C54.0871333,40.5707 55.8498,44.5783667 57.6131333,48.5860333 C59.3818,52.6053667 61.1504667,56.6250333 62.9251333,60.6420333 C62.9828,60.7723667 63.0864667,60.9483667 63.2008,60.9773667 C63.8158,61.1357 64.0584667,60.9957 64.3224667,60.4070333 C67.8004667,52.6463667 71.2788,44.8863667 74.7584667,37.1270333 C74.8068,37.0193667 74.8711333,36.9193667 74.9278,36.8157 C74.9518,36.8243667 74.9754667,36.8327 74.9994667,36.8410333 L74.9994667,37.2750333 C74.9994667,40.2217 75.0044667,43.1683667 74.9981333,46.1150333 C74.9904667,49.5673667 74.9888,53.0200333 74.9461333,56.4727 C74.9378,57.1560333 74.7981333,57.8473667 74.6394667,58.5163667 C74.4901333,59.1467 74.0241333,59.5510333 73.3951333,59.6867 C72.8914667,59.7953667 72.3698,59.8327 71.8541333,59.8663667 C71.4228,59.8950333 70.9878,59.8723667 70.5431333,59.8723667 L70.5431333,60.9747 Z" id="Fill-1" fill="#FFFFFF" mask="url(#mask-2)"></path>
                </g>
                <g id="Group-6" transform="translate(131.666667, 0.313667)">
                    <mask id="mask-4" fill="white">
                        <use xlink:href="#path-3"></use>
                    </mask>
                    <g id="Clip-5"></g>
                    <path d="M6.17316667,0.0195333333 C6.1685,1.33886667 6.1615,2.65853333 6.1605,3.97786667 C6.15883333,7.16386667 6.16016667,10.3498667 6.16016667,13.5355333 L6.16016667,14.0915333 C6.39916667,13.8378667 6.57183333,13.6538667 6.7455,13.4705333 C7.8885,12.2628667 9.15616667,11.2372 10.8278333,10.8748667 C12.2121667,10.5752 13.5921667,10.6485333 14.9118333,11.1812 C16.8371667,11.9585333 17.6531667,13.5532 17.7511667,15.4938667 C17.8611667,17.6745333 17.7908333,19.8642 17.8178333,22.0495333 C17.8315,23.1808667 17.8475,24.3145333 17.9341667,25.4418667 C18.0191667,26.5458667 18.4715,26.9298667 19.5775,26.9905333 C19.9215,27.0092 20.2661667,27.0215333 20.6381667,27.0378667 L20.6381667,28.1055333 L12.0181667,28.1055333 L12.0181667,27.0422 C12.4445,27.0208667 12.8555,27.0082 13.2648333,26.9775333 C14.1815,26.9085333 14.6038333,26.5488667 14.7321667,25.6458667 C14.8215,25.0152 14.8688333,24.3738667 14.8735,23.7368667 C14.8895,21.4708667 14.8958333,19.2042 14.8698333,16.9385333 C14.8618333,16.2498667 14.7878333,15.5532 14.6568333,14.8772 C14.2185,12.6172 12.4371667,11.6238667 10.2558333,12.3952 C9.03816667,12.8258667 8.1125,13.6682 7.24883333,14.5848667 C6.15416667,15.7458667 6.1585,15.7512 6.1605,17.3502 C6.1635,19.6695333 6.1615,21.9888667 6.17916667,24.3082 C6.1825,24.7852 6.22683333,25.2682 6.3145,25.7368667 C6.4735,26.5875333 6.86383333,26.9102 7.72916667,26.9798667 C8.07183333,27.0072 8.41583333,27.0215333 8.7785,27.0432 L8.7785,28.1132 L0.287833333,28.1132 L0.287833333,27.0408667 C0.670166667,27.0242 1.03983333,27.0108667 1.40916667,26.9908667 C2.5875,26.9272 3.02616667,26.5148667 3.12316667,25.3242 C3.17916667,24.6348667 3.2085,23.9412 3.20916667,23.2492 C3.21583333,17.2772 3.21483333,11.3052 3.2095,5.3332 C3.20916667,4.8282 3.17983333,4.3212 3.13083333,3.8182 C3.0245,2.72653333 2.5275,2.22753333 1.43983333,2.09253333 C1.12483333,2.05353333 0.808166667,2.03086667 0.475166667,1.9992 L0.475166667,0.976866667 C1.67683333,0.8162 2.85316667,0.6862 4.01883333,0.491533333 C4.58716667,0.396533333 5.13583333,0.180533333 5.69316667,0.0195333333 L6.17316667,0.0195333333 Z" id="Fill-4" fill="#FFFFFF" mask="url(#mask-4)"></path>
                </g>
                <path d="M0,11.8530667 C0.0366666667,11.3950667 0.0733333333,10.9367333 0.112,10.4524 L17.7193333,10.4524 L17.7193333,14.9457333 L16.926,14.9457333 C16.776,14.3747333 16.66,13.8000667 16.473,13.2490667 C16.0293333,11.9440667 15.3933333,11.4750667 14.0186667,11.4470667 C12.833,11.4227333 11.6463333,11.4424 10.46,11.4440667 C10.4233333,11.4440667 10.3863333,11.4630667 10.3333333,11.4774 C10.325,11.5280667 10.3096667,11.5784 10.3096667,11.6284 C10.3123333,16.2930667 10.3156667,20.9577333 10.322,25.6227333 C10.3223333,25.7950667 10.343,25.9684 10.3676667,26.1394 C10.525,27.2350667 10.8656667,27.5484 11.9866667,27.5967333 C12.462,27.6170667 12.939,27.6000667 13.4336667,27.6000667 L13.4336667,28.5537333 L4.311,28.5537333 L4.311,27.6130667 C4.69333333,27.6130667 5.07433333,27.6167333 5.45533333,27.6124 C6.99566667,27.5954 7.42333333,27.2127333 7.43366667,25.6750667 C7.46533333,21.0240667 7.466,16.3730667 7.47766667,11.7220667 C7.478,11.6447333 7.46333333,11.5670667 7.45066667,11.4400667 C7.085,11.4400667 6.72933333,11.4394 6.37366667,11.4400667 C5.454,11.4424 4.53466667,11.4400667 3.615,11.4487333 C2.52666667,11.4590667 1.79666667,11.9824 1.46,13.0177333 C1.25533333,13.6480667 1.088,14.2907333 0.890666667,14.9730667 L0,14.9730667 L0,11.8530667 Z" id="Fill-7" fill="#FFFFFF"></path>
                <g id="Group-11" transform="translate(88.000000, 0.313667)">
                    <mask id="mask-6" fill="white">
                        <use xlink:href="#path-5"></use>
                    </mask>
                    <g id="Clip-10"></g>
                    <path d="M2.7199,0.0195333333 C2.90556667,0.114533333 3.09756667,0.1982 3.27556667,0.305866667 C4.13623333,0.8272 4.52656667,1.90586667 4.21556667,2.8832 C3.9129,3.83486667 3.00623333,4.4572 2.05156667,4.36886667 C1.04923333,4.27653333 0.2449,3.51253333 0.0919,2.50786667 C-0.0601,1.5072 0.519233333,0.5122 1.4699,0.139866667 C1.56723333,0.101866667 1.66323333,0.0598666667 1.7599,0.0195333333 L2.7199,0.0195333333 Z" id="Fill-9" fill="#FFFFFF" mask="url(#mask-6)"></path>
                </g>
                <g id="Group-14" transform="translate(110.000000, 0.313667)">
                    <mask id="mask-8" fill="white">
                        <use xlink:href="#path-7"></use>
                    </mask>
                    <g id="Clip-13"></g>
                    <path d="M2.87986667,0.0195333333 C3.84853333,0.348866667 4.45653333,0.988533333 4.5422,2.03386667 C4.63353333,3.14853333 3.85853333,4.16786667 2.82353333,4.34186667 C1.71786667,4.52786667 0.6912,3.86453333 0.386866667,2.7672 C0.0888666667,1.69253333 0.6462,0.563533333 1.6742,0.156866667 C1.78386667,0.113533333 1.8912,0.0655333333 1.99953333,0.0195333333 L2.87986667,0.0195333333 Z" id="Fill-12" fill="#FFFFFF" mask="url(#mask-8)"></path>
                </g>
                <path d="M70.5429667,61.2882667 L70.5429667,60.1859333 C70.9879667,60.1859333 71.4226333,60.2089333 71.8539667,60.1802667 C72.3699667,60.1462667 72.8916333,60.1089333 73.3953,60.0006 C74.0243,59.8646 74.4899667,59.4606 74.6396333,58.8299333 C74.7983,58.1609333 74.9379667,57.4696 74.9463,56.7862667 C74.9889667,53.3339333 74.9903,49.8809333 74.9979667,46.4286 C75.0043,43.4819333 74.9993,40.5352667 74.9993,37.5886 L74.9993,37.1549333 C74.9756333,37.1462667 74.9516333,37.1379333 74.9279667,37.1292667 C74.8709667,37.2329333 74.8066333,37.3332667 74.7583,37.4406 C71.2789667,45.1999333 67.8003,52.9602667 64.3226333,60.7206 C64.0586333,61.3092667 63.8159667,61.4492667 63.2009667,61.2912667 C63.0863,61.2619333 62.9829667,61.0862667 62.9249667,60.9556 C61.1506333,56.9386 59.3819667,52.9192667 57.6129667,48.8996 C55.8496333,44.8922667 54.0873,40.8842667 52.3239667,36.8769333 C52.2929667,36.8062667 52.2579667,36.7376 52.1786333,36.5712667 C52.1633,36.7749333 52.1476333,36.8829333 52.1476333,36.9909333 C52.1466333,42.9909333 52.1423,48.9909333 52.1539667,54.9909333 C52.1549667,55.5869333 52.2159667,56.1896 52.3149667,56.7782667 C52.6386333,58.6979333 53.7309667,59.7676 55.6486333,60.0889333 C55.9099667,60.1329333 56.1723,60.1682667 56.4556333,60.2106 L56.4556333,61.2742667 L46.6236333,61.2742667 L46.6236333,60.2179333 C46.9519667,60.1669333 47.2789667,60.1302667 47.5999667,60.0636 C49.5016333,59.6699333 50.5163,58.5729333 50.7883,56.5699333 C50.8833,55.8722667 50.9383,55.1639333 50.9396333,54.4606 C50.9519667,49.1006 50.9539667,43.7402667 50.9379667,38.3806 C50.9356333,37.6389333 50.8649667,36.8889333 50.7376333,36.1579333 C50.5876333,35.2952667 50.1459667,34.9079333 49.2799667,34.8172667 C48.6059667,34.7466 47.9246333,34.7479333 47.2463,34.7212667 C47.0489667,34.7132667 46.8513,34.7199333 46.6266333,34.7199333 L46.6266333,33.6132667 L47.0566333,33.6132667 C49.5633,33.6132667 52.0699667,33.6209333 54.5763,33.6039333 C54.9226333,33.6016 55.0766333,33.7049333 55.2173,34.0232667 C58.4259667,41.2762667 61.6483,48.5232667 64.8683,55.7709333 C64.9269667,55.9032667 64.9899667,56.0329333 65.0759667,56.2179333 C65.6723,54.8919333 66.2436333,53.6202667 66.8153,52.3489333 C69.5663,46.2316 72.3183,40.1149333 75.0629667,33.9949333 C75.1856333,33.7212667 75.3176333,33.6006 75.6459667,33.6029333 C78.2193,33.6212667 80.7926333,33.6132667 83.3659667,33.6132667 L83.7779667,33.6132667 L83.7779667,34.7329333 C83.1079667,34.7329333 82.4589667,34.7146 81.8113,34.7396 C81.3879667,34.7556 80.9619667,34.8089333 80.5459667,34.8916 C79.9329667,35.0126 79.4733,35.3862667 79.3613,35.9986 C79.2016333,36.8709333 79.0586333,37.7616 79.0536333,38.6449333 C79.0216333,43.9912667 79.0223,49.3379333 79.0339667,54.6842667 C79.0359667,55.8016 79.0596333,56.9269333 79.1959667,58.0332667 C79.3829667,59.5502667 80.0496333,60.1032667 81.5859667,60.1676 C82.3033,60.1976 83.0229667,60.1722667 83.7706333,60.1722667 L83.7706333,61.2882667 L70.5429667,61.2882667 Z" id="Fill-15" fill="#FFFFFF"></path>
                <path d="M55.1603333,13.0387667 C57.0666667,13.0671 58.9046667,13.0911 60.6703333,12.4614333 C62.0903333,11.9551 62.9953333,10.9544333 63.3666667,9.4871 C63.7053333,8.14743333 63.704,6.79576667 63.458,5.44476667 C63.0946667,3.4531 61.8856667,2.27743333 59.925,1.8471 C58.503,1.5351 57.0686667,1.5851 55.6286667,1.67076667 C55.2446667,1.69343333 55.15,1.81176667 55.1516667,2.18676667 C55.1666667,5.6391 55.1603333,9.0911 55.1603333,12.5434333 L55.1603333,13.0387667 Z M55.1943333,14.1511 C55.1743333,14.3514333 55.162,14.4161 55.1623333,14.4811 C55.1773333,17.6394333 55.1823333,20.7974333 55.2193333,23.9554333 C55.226,24.5361 55.3226667,25.1244333 55.45,25.6927667 C55.662,26.6357667 56.2043333,27.0857667 57.169,27.2151 C58.261,27.3614333 59.3513333,27.3267667 60.431,27.1261 C62.629,26.7174333 64.1553333,25.5247667 64.7003333,23.2904333 C65.081,21.7301 65.07,20.1464333 64.7496667,18.5731 C64.3793333,16.7537667 63.313,15.4944333 61.5593333,14.8977667 C60.7096667,14.6087667 59.813,14.4001 58.9213333,14.3074333 C57.697,14.1801 56.4576667,14.1974333 55.1943333,14.1511 L55.1943333,14.1511 Z M60.8066667,13.5511 C61.327,13.6251 61.8583333,13.6554333 62.3653333,13.7821 C63.3436667,14.0267667 64.3466667,14.2334333 65.271,14.6197667 C68.2,15.8441 69.5746667,18.0861 69.4496667,21.2577667 C69.322,24.5034333 67.5133333,26.7674333 64.2676667,27.7677667 C62.5943333,28.2834333 60.876,28.4464333 59.139,28.4504333 C55.0863333,28.4597667 51.0336667,28.4534333 46.981,28.4537667 L46.5753333,28.4537667 L46.5753333,27.3051 C47.2263333,27.3051 47.863,27.3127667 48.4996667,27.3011 C48.7376667,27.2967667 48.976,27.2531 49.2126667,27.2167667 C50.117,27.0767667 50.7146667,26.5604333 50.8643333,25.6644333 C51.0086667,24.8017667 51.1056667,23.9204333 51.109,23.0467667 C51.1303333,17.5011 51.13,11.9554333 51.1096667,6.40943333 C51.106,5.49476667 51.0256667,4.5711 50.8773333,3.66843333 C50.683,2.48576667 50.0913333,1.9991 48.887,1.93876667 C48.1326667,1.9011 47.3753333,1.93176667 46.597,1.93176667 L46.597,0.7501 C47.2216667,0.720766667 47.8533333,0.678766667 48.4856667,0.663766667 C51.602,0.589433333 54.718,0.492766667 57.8346667,0.463766667 C59.7196667,0.4461 61.5833333,0.691433333 63.3783333,1.30876667 C64.7083333,1.7661 65.9013333,2.43543333 66.8126667,3.54743333 C68.479,5.58076667 68.6396667,9.8421 65.3103333,11.9094333 C63.9276667,12.7681 62.4043333,13.2057667 60.8066667,13.5511 L60.8066667,13.5511 Z" id="Fill-17" fill="#FFFFFF"></path>
                <g id="Group-21" transform="translate(157.000000, 43.647000)">
                    <mask id="mask-10" fill="white">
                        <use xlink:href="#path-9"></use>
                    </mask>
                    <g id="Clip-20"></g>
                    <path d="M0.1325,16.5267 C0.4755,16.5267 0.792833333,16.5400333 1.1095,16.5243667 C2.2085,16.4700333 2.65316667,16.0587 2.75883333,14.9747 C2.8125,14.4187 2.84783333,13.8583667 2.8485,13.3000333 C2.8535,10.5143667 2.85016667,7.72803333 2.8335,4.94236667 C2.83083333,4.47903333 2.7805,4.00936667 2.69216667,3.5547 C2.53883333,2.76836667 2.15483333,2.44503333 1.3535,2.37136667 C0.957833333,2.33503333 0.558833333,2.3267 0.108166667,2.30303333 C0.108166667,1.99136667 0.0891666667,1.68803333 0.1205,1.3907 C0.128833333,1.31003333 0.2785,1.20103333 0.3795,1.17903333 C1.74383333,0.8807 3.11116667,0.596033333 4.4775,0.3077 C4.54283333,0.2937 4.60716667,0.2757 4.67283333,0.2647 C5.2215,0.172366667 5.30183333,0.2037 5.40216667,0.751366667 C5.57416667,1.69036667 5.71016667,2.63603333 5.86216667,3.58203333 C6.2245,3.22436667 6.59383333,2.83303333 6.99083333,2.47236667 C8.42383333,1.17103333 10.0631667,0.326033333 12.0378333,0.2577 C12.9501667,0.226033333 13.8468333,0.3217 14.7045,0.658366667 C16.1421667,1.22203333 17.0041667,2.2797 17.3378333,3.75436667 C17.7131667,3.40036667 18.0901667,3.0487 18.4631667,2.69336667 C19.7348333,1.4827 21.1718333,0.5817 22.9448333,0.327033333 C23.9565,0.182366667 24.9651667,0.221033333 25.9555,0.4897 C27.7621667,0.979033333 28.7428333,2.2177 29.0708333,4.00836667 C29.1711667,4.5557 29.2158333,5.11936667 29.2201667,5.67603333 C29.2428333,8.50203333 29.2361667,11.3277 29.2608333,14.1537 C29.2645,14.6017 29.3465,15.0553667 29.4448333,15.4947 C29.5668333,16.0427 29.9405,16.3730333 30.4978333,16.4497 C30.9685,16.5143667 31.4448333,16.5377 31.9388333,16.5810333 L31.9388333,17.6317 L23.4211667,17.6317 L23.4211667,16.5280333 C23.7638333,16.5280333 24.1051667,16.5403667 24.4455,16.5257 C25.6438333,16.4740333 26.0901667,16.0477 26.1951667,14.8503667 C26.2351667,14.3993667 26.2681667,13.9463667 26.2688333,13.4940333 C26.2738333,10.8683667 26.2951667,8.24203333 26.2475,5.61703333 C26.2348333,4.92536667 26.0691667,4.21336667 25.8435,3.55536667 C25.5358333,2.6597 24.8265,2.1437 23.8958333,1.96403333 C21.9708333,1.59236667 20.3951667,2.2837 19.0271667,3.58836667 C18.9405,3.67103333 18.8555,3.7557 18.7735,3.84336667 C17.5201667,5.18503333 17.5151667,5.18536667 17.5215,7.0177 C17.5295,9.45636667 17.5441667,11.8950333 17.5618333,14.3340333 C17.5635,14.5593667 17.5975,14.7847 17.6288333,15.0087 C17.7821667,16.0950333 18.1841667,16.4683667 19.2715,16.5233667 C19.5881667,16.5393667 19.9065,16.5260333 20.2795,16.5260333 L20.2795,17.1117 L20.2795,17.6390333 L11.8371667,17.6390333 L11.8371667,16.5263667 C12.1588333,16.5263667 12.4738333,16.5403667 12.7875,16.5237 C13.8841667,16.4653667 14.3021667,16.0967 14.4508333,15.0240333 C14.5161667,14.5507 14.5511667,14.0697 14.5548333,13.5917 C14.5731667,11.0863667 14.5918333,8.58036667 14.5761667,6.07503333 C14.5721667,5.44103333 14.5021667,4.79436667 14.3608333,4.1767 C14.0238333,2.7107 12.9921667,1.93736667 11.4911667,1.8807 C9.91416667,1.8207 8.59183333,2.3977 7.4865,3.46736667 C6.92583333,4.01036667 6.4545,4.64803333 5.9645,5.26103333 C5.8605,5.39136667 5.80683333,5.5987 5.8065,5.77036667 C5.80116667,8.4097 5.79716667,11.0493667 5.82183333,13.6883667 C5.8275,14.2833667 5.9135,14.8823667 6.01916667,15.4690333 C6.12216667,16.0383667 6.5065,16.3800333 7.08416667,16.4543667 C7.55616667,16.5153667 8.03283333,16.5370333 8.53383333,16.5783667 L8.53383333,17.6290333 L0.1325,17.6290333 L0.1325,16.5267 Z" id="Fill-19" fill="#FFFFFF" mask="url(#mask-10)"></path>
                </g>
                <path d="M94.4074,45.6405 L94.4074,44.5935 L100.240067,44.5935 C100.240067,44.7241667 100.239733,44.8635 100.240067,45.0028333 C100.244067,49.0558333 100.244067,53.1088333 100.258733,57.1618333 C100.260733,57.7058333 100.304067,58.2548333 100.386733,58.7925 C100.5314,59.7315 100.912733,60.0685 101.868733,60.1555 C102.157733,60.1818333 102.450733,60.1595 102.7704,60.1595 L102.7704,61.2695 C101.9954,61.3288333 101.224067,61.3535 100.463067,61.4575 C99.8340667,61.5438333 99.2117333,61.7011667 98.5980667,61.8698333 C98.0957333,62.0078333 97.9757333,61.9788333 97.7850667,61.5005 C97.4144,60.5685 97.3494,59.5845 97.2930667,58.5991667 C97.2887333,58.5258333 97.2810667,58.4531667 97.2770667,58.4051667 C96.7590667,58.9761667 96.2894,59.5901667 95.7244,60.0978333 C94.3684,61.3148333 92.7894,61.9845 90.9257333,61.9445 C90.0237333,61.9251667 89.1444,61.8751667 88.3140667,61.4901667 C86.8347333,60.8041667 86.1200667,59.5651667 85.8507333,58.0278333 C85.7594,57.5061667 85.7290667,56.9681667 85.7244,56.4375 C85.7000667,53.6381667 85.6994,50.8388333 85.6727333,48.0395 C85.6687333,47.6171667 85.5960667,47.1908333 85.5127333,46.7748333 C85.3954,46.1891667 85.0184,45.8395 84.4217333,45.7658333 C83.9500667,45.7078333 83.4737333,45.6835 82.9800667,45.6428333 L82.9800667,44.5948333 L88.6530667,44.5948333 L88.6530667,45.0785 C88.6530667,48.8918333 88.6474,52.7051667 88.6597333,56.5185 C88.6617333,57.0351667 88.7140667,57.5585 88.8107333,58.0658333 C89.0700667,59.4251667 90.0004,60.2258333 91.3820667,60.3315 C94.1434,60.5431667 96.7844,58.4138333 97.1960667,55.6318333 C97.2580667,55.2118333 97.2874,54.7835 97.2884,54.3588333 C97.2940667,52.3321667 97.2944,50.3055 97.2727333,48.2791667 C97.2677333,47.7898333 97.1997333,47.2965 97.1127333,46.8138333 C97.0037333,46.2131667 96.6260667,45.8418333 96.0087333,45.7701667 C95.4947333,45.7101667 94.9767333,45.6851667 94.4074,45.6405" id="Fill-22" fill="#FFFFFF"></path>
                <path d="M141.199867,44.7534333 L141.199867,45.2654333 C141.199867,49.0654333 141.193867,52.8651 141.206867,56.6644333 C141.2082,57.1534333 141.2622,57.6511 141.364533,58.1294333 C141.653533,59.4797667 142.565533,60.2404333 143.941867,60.3331 C146.7952,60.5247667 149.4732,58.2767667 149.7492,55.4044333 C149.843533,54.4264333 149.823533,53.4351 149.821867,52.4497667 C149.8192,50.8507667 149.788867,49.2517667 149.769533,47.6527667 C149.768533,47.5864333 149.761867,47.5201 149.7562,47.4537667 C149.650533,46.2034333 149.223867,45.7801 147.977533,45.7101 C147.6342,45.6907667 147.2892,45.7067667 146.918867,45.7067667 L146.918867,44.6067667 L152.786867,44.6067667 C152.786867,44.7494333 152.786533,44.9034333 152.786867,45.0577667 C152.790867,49.2441 152.7922,53.4301 152.8042,57.6161 C152.805533,58.0274333 152.841533,58.4437667 152.9132,58.8484333 C153.074533,59.7601 153.472533,60.1057667 154.394533,60.1691 C154.6842,60.1887667 154.976533,60.1721 155.2932,60.1721 L155.2932,61.2834333 C154.8202,61.3097667 154.3422,61.2987667 153.876533,61.3704333 C152.9462,61.5137667 152.017533,61.6801 151.0982,61.8821 C150.600867,61.9911 150.5002,61.9831 150.3222,61.5104333 C149.974867,60.5884333 149.871533,59.6241 149.840533,58.6487667 C149.835533,58.4917667 149.839867,58.3344333 149.839867,58.0501 C149.693867,58.2557667 149.614533,58.3654333 149.5372,58.4764333 C148.3032,60.2544333 146.7052,61.5307667 144.523867,61.8727667 C143.462533,62.0394333 142.368533,62.0384333 141.320867,61.6784333 C139.394867,61.0161 138.562533,59.5311 138.3242,57.6241 C138.2582,57.0971 138.245867,56.5614333 138.2432,56.0294333 C138.2312,53.4297667 138.237533,50.8297667 138.219867,48.2304333 C138.216867,47.7807667 138.154867,47.3264333 138.0712,46.8834333 C137.941533,46.1977667 137.582533,45.8654333 136.890533,45.7717667 C136.443533,45.7111 135.9902,45.6971 135.5092,45.6597667 L135.5092,44.5657667 C137.4022,44.6281 139.283867,44.6901 141.199867,44.7534333" id="Fill-24" fill="#FFFFFF"></path>
                <path d="M122.685867,49.4126333 L123.211867,49.4126333 L129.6482,49.4126333 C130.7522,49.4126333 130.7722,49.4116333 130.7142,48.2823 C130.647867,46.9759667 130.140533,45.8939667 128.921867,45.2853 C127.514867,44.5823 126.089867,44.6509667 124.7722,45.4819667 C123.3722,46.3643 122.943533,47.8169667 122.685867,49.4126333 M134.229867,50.4536333 L133.6872,50.4536333 C130.1682,50.4536333 126.649533,50.4533 123.1302,50.4536333 C122.582867,50.4536333 122.585867,50.4543 122.557867,51.0203 C122.461533,52.9706333 122.494533,54.9113 123.0512,56.8033 C123.4342,58.1066333 124.047533,59.2669667 125.194867,60.0799667 C127.0122,61.3666333 130.828533,61.2943 132.695533,58.5399667 C132.777867,58.4189667 132.888533,58.3053 132.930533,58.1703 C133.1412,57.4983 133.627533,57.4316333 134.278867,57.5816333 C134.133533,57.8933 134.016533,58.2163 133.842533,58.5043 C132.511533,60.7059667 130.548867,61.8136333 127.982533,61.9413 C125.804533,62.0496333 123.8752,61.4459667 122.192867,60.0773 C120.514533,58.7129667 119.556533,56.9199667 119.242867,54.7973 C118.846867,52.1213 119.256533,49.5916333 120.8012,47.3166333 C122.922533,44.1913 127.005533,42.9919667 130.334533,44.5569667 C132.607533,45.6256333 133.852867,47.4896333 134.226867,49.9533 C134.248533,50.0953 134.229867,50.2429667 134.229867,50.4536333" id="Fill-26" fill="#FFFFFF"></path>
                <path d="M71.5250667,13.3472 L71.5250667,12.2798667 C72.3624,12.0975333 73.2060667,11.9328667 74.0400667,11.7272 C74.8654,11.5232 75.6800667,11.2778667 76.5354,11.0405333 C76.9930667,12.3565333 77.1104,13.7135333 77.1290667,15.1728667 C77.2124,15.0238667 77.2607333,14.9442 77.3024,14.8612 C78.1500667,13.1825333 79.3554,11.8748667 81.1777333,11.2612 C82.4777333,10.8235333 83.7094,10.9255333 84.7144,11.9838667 C85.1590667,12.4518667 85.4254,13.0125333 85.3980667,13.6785333 C85.3734,14.2758667 84.9660667,14.8068667 84.4234,14.9632 C83.7964,15.1435333 83.2030667,14.9382 82.8537333,14.3898667 C82.7047333,14.1562 82.6010667,13.8932 82.4847333,13.6395333 C82.0320667,12.6492 81.4694,12.4318667 80.5044,12.9378667 C79.0524,13.6992 78.1730667,14.9522 77.7180667,16.4832 C77.4970667,17.2262 77.3804,18.0232 77.3630667,18.7988667 C77.3184,20.7972 77.3474,22.7968667 77.3657333,24.7958667 C77.3700667,25.2458667 77.4187333,25.7012 77.5040667,26.1432 C77.6534,26.9148667 78.0250667,27.2222 78.8180667,27.2925333 C79.0830667,27.3162 79.3497333,27.3245333 79.6157333,27.3312 C79.8660667,27.3375333 80.1164,27.3325333 80.3830667,27.3325333 L80.3830667,28.4295333 L71.5297333,28.4295333 L71.5297333,27.3025333 C71.9690667,27.3025333 72.4047333,27.3205333 72.8384,27.2988667 C73.7520667,27.2532 74.1380667,26.9492 74.2524,26.0472 C74.3577333,25.2178667 74.3890667,24.3752 74.3934,23.5382 C74.4067333,21.0462 74.3987333,18.5538667 74.3800667,16.0618667 C74.3760667,15.5448667 74.3217333,15.0232 74.2344,14.5135333 C74.1154,13.8182 73.7814,13.5198667 73.0860667,13.4462 C72.5844,13.3932 72.0784,13.3808667 71.5250667,13.3472" id="Fill-28" fill="#FFFFFF"></path>
                <path d="M129.370133,11.3524 C129.379133,11.4117333 129.397467,11.4760667 129.3978,11.5400667 C129.399467,13.1790667 129.399133,14.8180667 129.399133,16.5290667 C129.149133,16.5290667 128.912133,16.5554 128.687467,16.5154 C128.6038,16.5007333 128.5158,16.3394 128.484467,16.2297333 C128.164133,15.0974 127.6788,14.0554 126.8208,13.2264 C125.9178,12.3537333 124.8418,12.0050667 123.596467,12.2420667 C122.6768,12.4167333 121.9908,12.9030667 121.701133,13.8150667 C121.404467,14.7494 121.6298,15.6190667 122.3348,16.2700667 C122.884467,16.7780667 123.528133,17.2067333 124.185467,17.5697333 C125.1158,18.0830667 126.1088,18.4814 127.054467,18.9687333 C128.319467,19.6210667 129.440467,20.4567333 130.037467,21.8040667 C130.7568,23.4270667 130.755133,25.0797333 129.968467,26.6714 C129.249467,28.1267333 127.964133,28.8320667 126.396133,29.0494 C124.4418,29.3197333 122.720133,28.8494 121.280133,27.3017333 C121.065467,27.6940667 120.856467,28.0267333 120.696133,28.3810667 C120.424467,28.9797333 120.437133,28.9857333 119.715467,28.9427333 L119.715467,23.4954 C119.732467,23.4857333 119.7538,23.4637333 119.776467,23.4627333 C120.537133,23.4247333 120.535133,23.4260667 120.7678,24.1377333 C121.252467,25.6190667 122.0438,26.8650667 123.493133,27.5750667 C124.408467,28.0240667 125.382133,28.1280667 126.375133,27.9017333 C127.391467,27.6697333 128.088467,27.0470667 128.3738,26.0387333 C128.6818,24.9487333 128.469467,23.9494 127.683133,23.1094 C126.8158,22.1827333 125.6658,21.6930667 124.560133,21.1384 C123.273467,20.4930667 122.0018,19.8387333 120.9648,18.7967333 C119.051133,16.8720667 119.589133,13.4667333 121.0178,12.1400667 C121.7468,11.4634 122.615133,11.1510667 123.579467,11.0560667 C125.193467,10.8974 126.578133,11.3664 127.679467,12.5870667 C127.7238,12.6360667 127.7528,12.6984 127.843467,12.8380667 C128.065467,12.4337333 128.250467,12.1207333 128.4128,11.7967333 C128.693467,11.2360667 128.687467,11.2334 129.370133,11.3524" id="Fill-30" fill="#FFFFFF"></path>
                <path d="M113.3672,45.6629667 C113.559867,45.3133 113.727867,45.0293 113.8762,44.7353 C114.1722,44.1493 114.167533,44.1473 114.860533,44.2149667 L114.860533,49.3383 C114.831533,49.3533 114.809533,49.3739667 114.786533,49.3753 C114.0822,49.4133 114.0852,49.4119667 113.8742,48.7546333 C113.5222,47.6589667 113.0002,46.6633 112.1062,45.9079667 C111.115867,45.0723 109.9802,44.8239667 108.741533,45.2036333 C107.203533,45.6746333 106.608533,47.3589667 107.476533,48.7169667 C107.8912,49.3653 108.4892,49.8179667 109.155867,50.1619667 C110.2552,50.7296333 111.3862,51.2359667 112.486867,51.8003 C113.588867,52.3649667 114.580533,53.0746333 115.2582,54.1489667 C116.5332,56.1706333 116.427533,59.8009667 113.602867,61.3426333 C112.953533,61.6969667 112.260533,61.9099667 111.5102,61.9359667 C109.288867,62.0129667 108.460533,61.6846333 106.780867,60.1269667 C106.488867,60.6953 106.2092,61.2389667 105.9232,61.7953 L105.214533,61.7953 L105.214533,56.3433 L105.963867,56.3433 C106.3282,57.1373 106.600533,57.9413 107.037867,58.6423 C108.065867,60.2893 109.570867,61.0589667 111.5382,60.8279667 C113.9732,60.5423 114.6072,57.8409667 113.424533,56.2663 C112.9062,55.5763 112.2012,55.1233 111.4582,54.7256333 C110.437533,54.1796333 109.393867,53.6753 108.381533,53.1136333 C107.5142,52.6323 106.738867,52.0256333 106.1342,51.2213 C104.943533,49.6369667 104.891867,47.1656333 106.045533,45.5563 C106.995867,44.2313 108.3762,43.8646333 109.9142,43.9049667 C111.304867,43.9409667 112.4132,44.5683 113.3672,45.6629667" id="Fill-32" fill="#FFFFFF"></path>
                <path d="M18.4728333,10.8387333 C19.7661667,10.6214 21.0201667,10.4110667 22.3245,10.1917333 L22.3245,19.1214 C22.7245,18.7654 23.0498333,18.4584 23.3938333,18.1730667 C24.5951667,17.1754 25.9631667,16.8724 27.4715,17.2550667 C28.8638333,17.6084 29.7285,18.6234 29.8308333,20.1277333 C29.9128333,21.3354 29.8895,22.5504 29.9055,23.7624 C29.9168333,24.6150667 29.9041667,25.4680667 29.9231667,26.3207333 C29.9458333,27.3600667 30.1771667,27.5837333 31.2031667,27.6117333 C31.3625,27.6160667 31.5218333,27.6124 31.7141667,27.6124 L31.7141667,28.5547333 L25.9505,28.5547333 L25.9505,27.6334 C26.2498333,27.6184 26.5655,27.6200667 26.8768333,27.5834 C27.4478333,27.5160667 27.6108333,27.3560667 27.6988333,26.7867333 C27.7395,26.5244 27.7611667,26.2567333 27.7618333,25.9914 C27.7658333,24.2457333 27.7651667,22.5000667 27.7568333,20.7544 C27.7555,20.5030667 27.7185,20.2494 27.6728333,20.0014 C27.4241667,18.6534 26.3605,18.0037333 25.0341667,18.3824 C24.3451667,18.5794 23.8471667,19.0567333 23.3081667,19.4974 C22.5315,20.1327333 22.2465,20.8767333 22.3111667,21.8874 C22.4068333,23.3877333 22.3221667,24.8984 22.3741667,26.4024 C22.4095,27.4227333 22.6298333,27.5860667 23.6448333,27.6124 C23.7621667,27.6154 23.8795,27.6130667 24.0168333,27.6130667 L24.0168333,28.5677333 L18.3451667,28.5677333 L18.3451667,27.6330667 C18.6761667,27.6167333 19.0068333,27.6200667 19.3325,27.5804 C19.8978333,27.5114 20.0971667,27.3037333 20.1535,26.7334 C20.1931667,26.3364 20.2228333,25.9360667 20.2235,25.5377333 C20.2285,21.5790667 20.2275,17.6207333 20.2241667,13.6624 C20.2241667,13.3834 20.2008333,13.1034 20.1725,12.8254 C20.0978333,12.0894 19.8705,11.8494 19.1405,11.7357333 C18.9311667,11.7030667 18.7175,11.6954 18.4728333,11.6734 L18.4728333,10.8387333 Z" id="Fill-34" fill="#FFFFFF"></path>
                <path d="M98.7864667,13.2681 L96.3961333,13.2681 L96.3961333,12.1411 C98.8528,11.8181 99.9071333,10.1001 100.549467,7.98343333 C100.6958,7.5021 100.782467,7.0031 100.900133,6.4971 L101.7358,6.4971 L101.7358,12.0947667 L106.6228,12.0947667 L106.6228,13.2394333 L101.788467,13.2394333 C101.7708,13.3701 101.748467,13.4591 101.748467,13.5477667 C101.751133,17.0674333 101.7408,20.5874333 101.773467,24.1067667 C101.779467,24.7361 101.8998,25.3827667 102.079133,25.9881 C102.577133,27.6667667 104.640133,27.7591 105.513133,26.9917667 C105.907467,26.6451 106.235467,26.2221 106.618467,25.8067667 C106.8488,25.9704333 107.116467,26.1604333 107.418133,26.3737667 C107.1008,27.0914333 106.6368,27.6714333 106.022467,28.1371 C104.309133,29.4361 101.8938,29.4417667 100.3068,28.1431 C99.3821333,27.3864333 98.9701333,26.3654333 98.8864667,25.2081 C98.8211333,24.3051 98.7941333,23.3981 98.7908,22.4927667 C98.7794667,19.5864333 98.7864667,16.6797667 98.7864667,13.7734333 L98.7864667,13.2681 Z" id="Fill-36" fill="#FFFFFF"></path>
                <path d="M117.252267,27.3597333 L117.252267,28.4180667 L108.2506,28.4180667 L108.2506,27.3064 C108.688933,27.3064 109.1246,27.3320667 109.5566,27.3014 C110.652267,27.2244 111.133267,26.7724 111.278267,25.6764 C111.346267,25.1630667 111.393933,24.6424 111.3936,24.1250667 C111.392267,21.3660667 111.3786,18.6070667 111.3536,15.8480667 C111.349933,15.4384 111.2906,15.0237333 111.2096,14.6210667 C111.025267,13.7094 110.606933,13.3510667 109.6756,13.2980667 C109.2126,13.2720667 108.746933,13.2937333 108.255267,13.2937333 L108.255267,12.2214 C110.269933,11.8224 112.2706,11.4264 114.333267,11.0180667 L114.333267,11.5270667 C114.333267,15.9530667 114.3306,20.3790667 114.3376,24.8050667 C114.337933,25.1894 114.366267,25.5800667 114.4376,25.9570667 C114.601267,26.8234 115.051267,27.2164 115.933267,27.2924 C116.3676,27.3300667 116.804267,27.3377333 117.252267,27.3597333" id="Fill-38" fill="#FFFFFF"></path>
                <path d="M86.2243,13.2939667 L86.2243,12.2503 C88.0853,11.8406333 89.8999667,11.4403 91.7156333,11.0446333 C91.8169667,11.0229667 91.9269667,11.0419667 92.0929667,11.0419667 L92.0929667,11.5216333 C92.0929667,15.8663 92.0913,20.2109667 92.0963,24.5559667 C92.0966333,24.9816333 92.1233,25.4083 92.1656333,25.8316333 C92.2589667,26.7603 92.7246333,27.2159667 93.6563,27.2926333 C94.1049667,27.3293 94.5559667,27.3353 95.0223,27.3559667 L95.0223,28.4289667 L86.0106333,28.4289667 L86.0106333,27.3056333 C86.5419667,27.3056333 87.0703,27.3306333 87.5956333,27.2999667 C88.5066333,27.2466333 88.8983,26.8959667 89.0386333,26.0029667 C89.1126333,25.5316333 89.1519667,25.0499667 89.1539667,24.5726333 C89.1646333,21.8803 89.1669667,19.1883 89.1536333,16.4959667 C89.1506333,15.8586333 89.1103,15.2173 89.0286333,14.5853 C88.9156333,13.7113 88.5073,13.3503 87.6273,13.2986333 C87.1769667,13.2723 86.7239667,13.2939667 86.2243,13.2939667" id="Fill-40" fill="#FFFFFF"></path>
                <path d="M40.0110667,20.5959 C40.0884,19.7922333 39.9447333,19.0932333 39.3077333,18.6012333 C38.4564,17.9442333 37.5004,17.9115667 36.5620667,18.3632333 C35.6590667,18.7979 35.2660667,19.6202333 35.0597333,20.5959 L40.0110667,20.5959 Z M42.5434,21.5409 L34.9907333,21.5409 C34.9907333,22.4522333 34.9494,23.3389 35.0064,24.2189 C35.0400667,24.7419 35.1777333,25.2735667 35.3564,25.7695667 C36.1657333,28.0189 38.9767333,28.6935667 40.7544,27.0789 C40.9507333,26.9009 41.1824,26.7162333 41.2804,26.4849 C41.5344,25.8869 41.9870667,25.8595667 42.5890667,25.9742333 C42.4400667,26.2875667 42.3284,26.6112333 42.1470667,26.8899 C41.1287333,28.4575667 39.6150667,29.1302333 37.8120667,29.0132333 C34.4870667,28.7975667 32.2667333,26.1195667 32.5110667,22.7915667 C32.6360667,21.0902333 33.1677333,19.5849 34.4500667,18.4165667 C36.4440667,16.6005667 39.5134,16.6582333 41.3057333,18.5349 C42.0914,19.3575667 42.4777333,20.3549 42.5434,21.5409 L42.5434,21.5409 Z" id="Fill-42" fill="#FFFFFF"></path>
            </g>
        </g>
    </g>
</svg>