<?xml version="1.0" encoding="UTF-8" standalone="no"?>
<svg width="134px" height="36px" viewBox="0 0 134 36" version="1.1" xmlns="http://www.w3.org/2000/svg" xmlns:xlink="http://www.w3.org/1999/xlink">
    <g id="Page-1" stroke="none" stroke-width="1" fill="none" fill-rule="evenodd">
        <g id="Desktop-HD" transform="translate(-175.000000, -617.000000)" fill-rule="nonzero" fill="#FFFFFF">
            <g id="crew" transform="translate(175.000000, 617.000000)">
                <path d="M11.5,18 C11.5,18.8 11.5,19.8 11.5,21 C11.5,22.2 11.6,23.4 11.7,24.6 C11.8,25.9 12.1,27.1 12.4,28.3 C12.7,29.5 13.2,30.6 13.7,31.6 C14.3,32.6 15,33.4 16,34 C16.9,34.6 18,34.9 19.4,34.9 C20.7,34.9 21.8,34.7 22.9,34.3 C21.1,35.2 19.1,35.6 16.7,35.6 C14.4,35.6 12.2,35.1 10.2,34.2 C8.2,33.3 6.4,32 4.9,30.4 C3.4,28.8 2.2,26.9 1.3,24.7 C0.4,22.6 0,20.3 0,17.8 C0,15.3 0.4,13 1.3,10.8 C2.2,8.6 3.4,6.8 5,5.2 C6.6,3.6 8.4,2.4 10.5,1.4 C12.6,0.5 14.9,0 17.3,0 C15.9,0.3 14.8,0.9 14,2 C13.2,3.1 12.6,4.4 12.3,6 C11.9,7.6 11.7,9.5 11.6,11.5 C11.5,13.6 11.5,15.7 11.5,18 Z M16.8,7.8 C16.8,7 16.9,6.3 17.2,5.6 C17.5,4.9 17.9,4.3 18.4,3.8 C18.9,3.3 19.5,2.9 20.2,2.6 C20.9,2.3 21.6,2.2 22.4,2.2 C23.2,2.2 23.9,2.3 24.6,2.6 C25.3,2.9 25.9,3.3 26.4,3.8 C26.9,4.3 27.3,4.9 27.6,5.6 C27.9,6.3 28,7 28,7.8 C28,8.6 27.9,9.3 27.6,10 C27.3,10.7 26.9,11.3 26.4,11.8 C25.9,12.3 25.3,12.7 24.6,13 C23.9,13.3 23.2,13.4 22.4,13.4 C21.6,13.4 20.9,13.3 20.2,13 C19.5,12.7 18.9,12.3 18.4,11.8 C17.9,11.3 17.5,10.7 17.2,10 C16.9,9.3 16.8,8.6 16.8,7.8 Z" id="Shape"></path>
                <path d="M44.2,34.7 L33.5,34.7 L33.5,0.8 L44.2,0.8 L44.2,34.7 Z M46.8,8 C46.8,7.2 47,6.5 47.3,5.8 C47.6,5.1 48,4.5 48.5,4 C49,3.4 49.6,3 50.3,2.7 C51,2.4 51.7,2.2 52.5,2.2 C53.3,2.2 54,2.4 54.7,2.7 C55.4,3 56,3.4 56.5,3.9 C57,4.4 57.4,5 57.7,5.7 C58,6.4 58.2,7.1 58.2,7.9 C58.2,8.7 58,9.4 57.7,10.1 C57.4,10.8 57,11.4 56.5,11.9 C56,12.4 55.4,12.8 54.7,13.1 C54,13.4 53.3,13.6 52.5,13.6 C51.7,13.6 51,13.4 50.3,13.1 C49.6,13 49,12.6 48.5,12 C48,11.5 47.6,10.9 47.3,10.2 C46.9,9.5 46.8,8.8 46.8,8 Z" id="Shape"></path>
                <path d="M78.9,35.4 C76.7,35.4 74.7,34.9 72.7,34 C70.7,33 69,31.7 67.5,30.1 C66,28.5 64.8,26.6 63.9,24.4 C63,22.3 62.6,20 62.6,17.6 C62.6,15.4 63,13.3 63.7,11.3 C64.5,9.3 65.5,7.5 66.8,5.9 C68.1,4.3 69.6,3 71.4,2 C73.2,1 75,0.3 77,0 C76.3,0.3 75.7,0.9 75.3,1.6 C74.9,2.4 74.6,3.3 74.4,4.4 C74.2,5.5 74.1,6.8 74.1,8.2 C74.1,9.6 74,11.2 74,12.9 L74,19.4 C74,21.8 74,23.9 74.2,25.8 C74.3,27.7 74.6,29.3 75.1,30.6 C75.6,31.9 76.3,32.9 77.3,33.6 C78.3,34.3 79.7,34.7 81.5,34.7 C82.3,34.7 83,34.6 83.7,34.5 C84.4,34.4 85.1,34.2 85.7,33.9 C83.8,35 81.5,35.4 78.9,35.4 Z M80.8,0 C82.7,0.3 84.5,0.9 86.2,1.9 C87.8,2.9 89.3,4.2 90.5,5.7 C91.7,7.2 92.7,9 93.4,11 C94.1,13 94.5,15.1 94.5,17.3 L83.1,17.3 C83.1,14.2 83.1,11.7 83,9.6 C82.9,7.5 82.8,5.8 82.7,4.5 C82.5,3.2 82.3,2.1 82,1.4 C81.7,0.8 81.3,0.3 80.8,0 Z" id="Shape"></path>
                <path d="M110.7,35.9 L96.1,0.9 L108,0.9 L115.9,19.2 L110.7,35.9 Z M128.8,35.9 L114.2,0.9 L126.1,0.9 L134,19 L128.8,35.9 Z" id="Shape"></path>
            </g>
        </g>
    </g>
</svg>