<?xml version="1.0" encoding="UTF-8" standalone="no"?>
<svg width="76px" height="88px" viewBox="0 0 76 88" version="1.1" xmlns="http://www.w3.org/2000/svg" xmlns:xlink="http://www.w3.org/1999/xlink">
    <!-- Generator: Sketch 39.1 (31720) - http://www.bohemiancoding.com/sketch -->
    <title>etch</title>
    <desc>Created with Sketch.</desc>
    <defs></defs>
    <g id="Page-1" stroke="none" stroke-width="1" fill="none" fill-rule="evenodd">
        <g id="Desktop-HD" transform="translate(-463.000000, -330.000000)" fill="#FFFFFF">
            <g id="etch" transform="translate(463.000000, 330.000000)">
                <path d="M54.7906975,53.504 L76,65.9148383 L76,65.9819458 L37.9324345,88 L0,65.9819458 L0,21.9640636 L37.9324345,0 L76,21.9640636 L76,41.3570517 L76,41.3570517 L68.0465123,45.9121574 L68.0465123,34.496 L63.5556635,34.496 L63.5556635,41.6273895 L59.2815463,41.6273895 L59.2815463,34.496 L54.7906975,34.496 L54.7906975,53.504 L54.7906975,53.504 Z M59.2815463,50.9320107 L63.5556635,48.4841466 L63.5556635,45.6133751 L59.2815463,45.6133751 L59.2815463,50.9320107 L59.2815463,50.9320107 Z M21.0325586,34.496 L0,22 L0,46.64 L7.95348769,42.0477311 L7.95348769,53.504 L21.0325586,53.504 L21.0325586,49.5462436 L12.3505393,49.5462436 L12.3505393,45.9923399 L19.2231842,45.9923399 L19.2231842,42.0345835 L12.3505393,42.0345835 L12.3505393,39.5089157 L13.9448527,38.588374 L21.0325586,38.588374 L21.0325586,34.496 L21.0325586,34.496 L21.0325586,34.496 Z M31.8251403,38.4819857 L36.2437438,38.4819857 L36.2437438,34.496 L22.9767438,34.496 L22.9767438,38.4819857 L27.3953488,38.4819857 L27.3953488,53.504 L31.8251403,53.504 L31.8251403,38.4819857 L31.8251403,38.4819857 Z M47.9368612,46.7764494 L47.9368612,48.244764 C47.9368612,49.2058427 47.2200993,49.5795956 46.3440575,49.5795956 L44.3265045,49.5795956 C43.4504628,49.5795956 42.7337009,49.2058427 42.7337009,48.244764 L42.7337009,39.755236 C42.7337009,38.7941573 43.4504628,38.4204044 44.3265045,38.4204044 L46.3440575,38.4204044 C47.2200993,38.4204044 47.9368612,38.7941573 47.9368612,39.755236 L47.9368612,41.1701573 L52.3170729,41.1701573 L52.3170729,38.7674607 C52.3170729,36.5783371 50.3791621,34.496 46.8749921,34.496 L44.061038,34.496 C40.3975866,34.496 38.3534877,36.5783371 38.3534877,38.7674607 L38.3534877,49.2325393 C38.3534877,51.4216629 40.3975866,53.504 44.061038,53.504 L46.8749921,53.504 C50.3791621,53.504 52.3170729,51.4216629 52.3170729,49.2325393 L52.3170729,46.7764494 L47.9368612,46.7764494 L47.9368612,46.7764494 Z" id="Path-Copy"></path>
            </g>
        </g>
    </g>
</svg>