<?xml version="1.0" encoding="UTF-8" standalone="no"?>
<svg width="186px" height="52px" viewBox="0 0 186 52" version="1.1" xmlns="http://www.w3.org/2000/svg" xmlns:xlink="http://www.w3.org/1999/xlink">
    <!-- Generator: Sketch 39.1 (31720) - http://www.bohemiancoding.com/sketch -->
    <title>fivebyfive</title>
    <desc>Created with Sketch.</desc>
    <defs></defs>
    <g id="Page-1" stroke="none" stroke-width="1" fill="none" fill-rule="evenodd">
        <g id="Desktop-HD" transform="translate(-645.000000, -348.000000)" fill="#FFFFFF">
            <g id="fivebyfive" transform="translate(645.000000, 348.000000)">
                <g id="Layer_1">
                    <g id="rrR3w1.tif">
                        <g id="Group">
                            <path d="M99.8010659,0.0872857143 C97.4873892,5.28282857 95.3500599,10.0805714 93.2079042,14.8924286 C94.6145988,15.3084286 117.612515,15.4625714 121.45503,15.0967143 C121.726048,14.5432857 122.037904,13.8951429 122.360527,13.2525714 C123.758683,10.4661143 124.644132,7.40702857 126.737653,4.992 C129.219509,2.1294 132.370371,0.473571429 136.096683,0.143742857 C138.464192,-0.065 140.876623,-0.0304571429 143.250072,0.146714286 C146.777389,0.410428571 149.948671,1.68294286 152.241186,4.51434286 C154.110838,6.82462857 154.671808,9.42611429 153.301497,12.2471143 C152.903509,13.0664857 152.558982,13.9103714 152.171389,14.7854571 C152.803641,15.4726 153.582539,15.2122286 154.262683,15.2140857 C161.972958,15.2345143 169.682862,15.2267143 177.393138,15.2289429 C178.127114,15.2289429 178.863317,15.2088857 179.594695,15.2601429 C182.39509,15.4555143 185.316144,17.5032 185.743461,20.0077429 C186.057545,21.8407429 186.153329,23.9092286 185.620946,25.6478857 C184.584395,29.0382857 183.300587,32.4127143 181.637353,35.5356857 C179.554599,39.4475714 176.369952,42.4138 171.81685,43.1377143 C168.503377,43.6647714 165.090036,43.7256857 161.830024,42.6819714 C160.471964,42.2459143 159.259066,41.3504 157.685305,40.5057714 C157.575042,40.5499714 157.09315,40.6588 156.702958,40.911 C153.986467,42.6682286 150.943641,43.2710571 147.800575,43.3304857 C143.212946,43.4174 138.622347,43.3486857 134.033234,43.3624286 C132.149844,43.3683714 130.394168,42.9917429 128.863844,41.8169143 C128.633293,41.6404857 128.36376,41.5153143 128.02703,41.3169714 C126.881329,43.7899429 125.776838,46.1748857 124.597353,48.7217714 C121.040335,49.0534571 117.426515,49.3194 114.185437,47.2954857 C112.145749,46.0218571 110.957725,44.0354571 110.878647,41.1268 C110.331042,42.1898286 109.941593,42.8743714 109.617114,43.589 C108.450623,46.1526 106.423186,47.8778857 104.152204,49.3988857 C100.422551,51.8978571 96.2325389,52.3647429 91.9990898,51.7652571 C87.842491,51.1761714 85.2410898,48.3733714 84.618491,44.1806857 C84.5253054,43.5503714 84.7217006,42.8754857 84.7896407,42.1679143 C78.8261317,43.9864286 73.1819042,44.4351143 68.5385868,39.2128286 C67.6033892,39.9259714 66.6540838,40.6799714 65.6743353,41.3931143 C63.7753533,42.7752 61.6213174,43.3524 59.2994731,43.3568571 C57.7082635,43.3602 56.1092575,43.4515714 54.5280719,43.3223143 C51.9311257,43.108 49.4440719,42.5036857 47.5023952,40.2896 C46.5486347,40.7888 45.6642994,41.2969143 44.7443234,41.7259143 C42.2639521,42.8836571 39.6087186,43.2978 36.9100479,43.3394 C32.8718802,43.4029143 28.8322275,43.3130286 24.7948024,43.3754286 C22.1774371,43.4155429 19.6807305,43.1622286 17.5326347,41.2779714 C16.3405269,43.8393429 15.2059641,46.2740571 14.0309341,48.7990286 C11.1184192,48.8993143 8.28349701,49.1195714 5.47047904,48.1887714 C2.62850299,47.2486857 0.211988024,44.2122571 0.379053892,41.0640286 C0.479293413,39.1775429 0.784467066,37.4396286 1.64244311,35.7533429 C2.67156886,33.7301714 3.58263473,31.6457143 4.51968862,29.5757429 C4.73835928,29.0951143 4.85716168,28.5673143 5.06543713,27.9243714 C3.87852695,27.8526857 2.86573653,27.7917714 1.54665868,27.7130286 C3.10668263,23.3754857 4.98190419,19.4197714 6.81851497,15.3329429 C8.21592814,15.2657143 9.53983234,15.2036857 10.9409581,15.1375714 C11.8746707,13.1010286 12.8963713,11.1428571 13.6882635,9.09368571 C15.7383473,3.79042857 21.5637485,-0.113285714 26.8111018,0.0768857143 C28.768,0.147457143 30.7386347,-0.0282285714 32.6825389,0.140771429 C36.1920359,0.446457143 39.3688862,1.62982857 41.6951856,4.45565714 C43.6038204,6.77448571 44.1265509,9.34885714 42.8464551,12.1798857 C42.4473533,13.0642571 42.1028263,13.9727714 41.6272455,15.1268 C42.4410419,15.1658 43.0792335,15.2226286 43.7174251,15.223 C51.4277006,15.2296857 59.137976,15.2664571 66.847509,15.2051714 C69.3694611,15.1847429 71.7161796,15.5097429 73.7922515,17.4110857 C76.4493413,11.5945143 79.0425749,5.91685714 81.704491,0.0891428571 C87.6498084,0.0832 93.5390659,0.0854285714 99.8010659,0.0872857143 L99.8010659,0.0872857143 Z M92.7315808,31.7671714 C91.8271976,31.9190857 90.8704671,32.227 90.012491,31.0889429 C90.1342635,30.6610571 90.2534371,30.1377143 90.4308982,29.6351714 C91.0211976,27.9570571 91.6385988,26.2886 92.2333533,24.6134571 C93.1251138,22.1022286 91.9088743,19.5482857 89.0290299,19.4528286 C87.9739162,19.6786571 86.8723952,19.9141429 85.4553054,20.2176 C87.4756886,14.9258571 89.9775928,10.1648857 92.0737126,5.07111429 L85.0331856,5.07111429 C84.8026347,5.43511429 84.5691138,5.72334286 84.4220958,6.05205714 C83.4675928,8.17774286 82.5498443,10.3216286 81.5875449,12.4436 C78.902982,18.3675143 76.1931737,24.2799143 73.5182635,30.2075429 C73.1410659,31.0436286 72.8277246,31.9239143 72.6083114,32.8138571 C71.8498323,35.8900286 73.1173054,37.6283143 76.1798084,38.181 C78.9037246,38.6727714 81.3948623,38.1750571 83.763485,36.8843429 C85.0398683,36.1894 86.242,35.3555429 87.5484551,34.5402571 C89.3323473,35.9461143 91.2161078,34.8299714 92.7204431,34.5781429 C94.0198443,35.4573143 95.0363473,36.1452 96.1809341,36.92 C95.7246587,37.1328286 95.4120599,37.3133429 95.0775569,37.4296 C93.3422994,38.0342857 91.9816407,39.1649143 90.866012,40.5759714 C88.7201437,43.2888857 89.6460599,46.3100857 92.9142395,46.8598 C97.4836766,47.6279143 101.381138,46.0842571 104.406886,42.6062 C105.26115,41.6252571 105.663593,40.2346286 106.22382,39.0092857 C106.830455,37.6810571 107.379174,36.3264571 107.98915,34.9005429 C110.416431,34.6743429 112.708204,34.4615143 115.119892,34.2364286 C115.428778,33.5712 115.745461,32.8881429 116.126743,32.0661714 C113.521629,31.5186857 111.386527,32.7886 108.91321,32.9806286 C110.538204,28.5520857 112.664395,24.5733429 114.13606,20.228 L107.905246,20.228 C107.670611,20.6350857 107.459737,20.9378 107.309749,21.2694857 C105.864072,24.4533714 104.432503,27.6439429 102.989054,30.8289429 C102.377964,32.1783429 101.488431,33.1812 99.9878084,33.3019143 C99.1194371,32.8458 99.1082994,32.1623714 99.3247425,31.4930571 C99.6076407,30.6202 99.9703593,29.7692571 100.348299,28.9320571 C101.630623,26.0902571 102.934479,23.2573714 104.313701,20.2384 L97.799988,20.2384 C96.1085389,24.0845429 94.437509,27.8853714 92.7315808,31.7671714 L92.7315808,31.7671714 Z M149.050599,9.45285714 C148.854946,7.86462857 147.936826,6.91302857 146.668982,6.30091429 C145.849988,5.90497143 144.973449,5.47597143 144.091713,5.39388571 C141.666659,5.16731429 139.202623,4.85308571 136.796503,5.06145714 C133.845006,5.31922857 131.244719,6.62182857 129.745952,9.40717143 C128.787737,11.1878 127.996958,13.0605429 127.126731,14.8898286 C126.312934,16.6006286 125.494683,18.3088286 124.619629,20.1410857 L120.740731,20.1410857 C120.340515,20.9667714 120.001186,21.6658 119.577581,22.5408857 C120.912994,22.6092286 122.043102,22.6668 123.388168,22.7355143 C123.093018,23.5400286 122.904419,24.1751714 122.633772,24.7724286 C120.607078,29.2459143 118.55291,33.7075143 116.538838,38.1865714 C116.240347,38.8506857 116.042096,39.5775714 115.906216,40.2955429 C115.584335,42.0056 116.534012,43.3980857 118.245509,43.6127714 C119.259413,43.7409143 120.303018,43.6369143 121.457629,43.6369143 C124.62297,36.6243429 127.768263,29.6548571 130.888683,22.7425714 C132.706731,22.6188857 134.266383,22.5011429 136.121557,22.8710857 C134.146096,27.3245143 132.247114,31.6059714 130.314719,35.9606 C130.985581,36.7903714 131.544695,37.4812286 132.093042,38.1587143 L136.061042,38.1587143 C138.781617,32.1924571 141.485114,26.2622286 144.286994,20.1158286 C142.004503,20.1158286 140.051689,20.1600286 138.101102,20.1035714 C136.19915,20.0497143 134.263784,20.3613429 132.269389,19.8588 C132.41121,19.3551429 132.457988,19.0535429 132.577904,18.7853714 C133.831269,15.9840571 135.061246,13.1704857 136.379952,10.4007429 C136.758263,9.60551429 137.40091,8.93731429 137.90285,8.23977143 C139.517449,8.34191429 141.094551,7.7376 142.087665,9.66234286 C141.772096,10.4052 141.419772,11.2431429 141.061138,12.0777429 C140.704731,12.9078857 140.343126,13.7358 140.007138,14.5098571 C141.728287,16.0483143 145.330228,15.9974286 146.677521,14.5265714 C146.879485,14.3055714 147.028731,14.0214286 147.153473,13.7447143 C147.782012,12.3462857 148.394958,10.9408 149.050599,9.45285714 L149.050599,9.45285714 Z M36.2974731,14.4805143 C37.0878802,12.7099143 37.8831138,10.9266857 38.6545868,9.19991429 C37.7899281,6.74365714 35.8426826,5.93171429 33.7176048,5.38385714 C31.2539401,4.74908571 28.7197365,4.8048 26.2430778,5.04771429 C23.4898323,5.317 21.0024072,6.48328571 19.5025269,8.96145714 C18.3980359,10.7844286 17.5846108,12.7868 16.6609222,14.7178571 C15.8181677,16.4814 15.0014012,18.2579429 14.1074132,20.1667143 L10.0072455,20.1667143 C9.74439521,20.9898 9.53240719,21.6528 9.27549701,22.4584286 C10.6123952,22.5928857 11.7094611,22.7035714 12.9832455,22.8309714 C12.1746467,24.661 11.4997006,26.2314 10.7898563,27.7850857 C9.15817964,31.356 7.49643114,34.9131714 5.87960479,38.4911429 C5.60524551,39.0969429 5.40179641,39.767 5.32383234,40.4262857 C5.12112575,42.1545429 6.13131737,43.4541714 7.85283832,43.6324571 C8.86562874,43.7379429 9.89809581,43.6521429 10.8655928,43.6521429 C14.3116048,36.6061429 17.1023473,29.4721143 20.4388383,22.7615143 C23.548491,22.4866571 24.128024,22.5271429 25.4890539,23.1255143 C23.6238563,27.3624 21.7575449,31.6015143 19.838515,35.9606 C20.4358683,36.7324286 20.979018,37.4340571 21.4772455,38.0784857 C22.941485,38.1431143 24.2082156,38.1999429 25.5176407,38.2575143 C28.2500958,32.2466857 30.9580479,26.2934286 33.7272575,20.2027429 C29.6801796,19.9479429 25.7990539,20.3182571 21.6153533,19.9602 C23.5663114,15.8317714 24.7517365,11.7052 27.179018,8.41842857 C30.1115808,8.0574 30.4208383,8.13688571 31.5910419,9.54051429 C30.9316886,11.1822286 30.2340958,12.9201429 29.5539521,14.6142286 C31.3690299,16.0613143 33.775521,16.0167429 36.2974731,14.4805143 L36.2974731,14.4805143 Z M47.5320958,20.254 C47.3408982,20.5426 47.1389341,20.7780857 47.0127066,21.0492286 C45.8250539,23.6072571 44.6767545,26.1838571 43.462,28.7277714 C42.8297485,30.0500571 42.1826467,31.3853429 41.3673653,32.5958286 C40.3471497,34.1105143 38.7626228,34.6327429 37.1558204,34.0997429 C38.9657006,29.4108286 41.2704671,24.9380857 43.2084311,20.2346857 L36.7860479,20.2346857 C34.8436287,24.6836571 32.898982,29.1129429 30.976982,33.553 C30.5533772,34.5324571 30.4212096,35.5583429 30.8466707,36.7387429 C31.284012,37.1514 31.8104551,37.6476286 32.3454371,38.1524 C34.247018,38.1524 36.0776886,38.1483143 37.907988,38.1531429 C42.3578802,38.1646571 45.619006,36.0716571 47.7942036,32.2905143 C49.2881437,29.692 50.5764072,26.9742571 51.9489461,24.3055429 C52.6123832,23.0159429 53.2576287,21.7185429 53.9971737,20.254 C51.7503234,20.254 49.6538323,20.254 47.5320958,20.254 L47.5320958,20.254 Z M147.494659,34.3051429 C148.296575,32.4795714 148.952958,30.9749143 149.617509,29.4743429 C150.313988,27.9039429 151.016407,26.3357714 151.718826,24.7683429 C152.38412,23.2856 153.052754,21.8058286 153.766311,20.2213143 L147.626455,20.2213143 C147.441569,20.4616286 147.298635,20.5923714 147.224754,20.7539429 C145.266371,25.0539714 143.268635,29.3361714 141.384874,33.6681429 C140.513162,35.6731143 140.888503,36.5285143 142.998731,38.1438571 C144.851677,38.1438571 146.866491,38.1876857 148.879078,38.1349429 C153.262144,38.0209143 156.371796,35.7916 158.448611,32.0412857 C159.902455,29.4164 161.225617,26.7183429 162.599269,24.0481429 C163.22818,22.8261429 163.837413,21.5952286 164.516443,20.2488 L157.997162,20.2488 C157.746563,20.5986857 157.523066,20.8230286 157.402036,21.0941714 C156.199904,23.7833143 155.049749,26.4966 153.808635,29.1675429 C153.242096,30.3858286 152.620611,31.6126571 151.815725,32.6764286 C150.872359,33.9236857 149.585952,34.6906857 147.494659,34.3051429 L147.494659,34.3051429 Z M69.824994,20.5229143 C68.9350898,20.3929143 67.9887545,20.1789714 67.0346228,20.1344 C65.571497,20.0671714 64.0987186,20.1789714 62.6359641,20.1035714 C59.173988,19.9278857 56.6951018,21.5525143 54.7601078,24.2698857 C52.9966347,26.7447143 52.0402754,29.6099143 50.8845509,32.3748286 C50.5856886,33.0894571 50.4869341,33.9270286 50.4661437,34.7122286 C50.4193653,36.504 51.6526826,37.9466286 53.4131856,38.0989143 C55.5252695,38.2812857 57.608024,38.493 59.7787665,38.2456286 C63.4924551,37.8233143 65.309018,35.3492286 67.3186347,32.4049143 L61.084479,32.4049143 C60.4310659,33.5080571 59.8203473,34.5402571 59.2675449,35.4729143 L56.7845749,35.4729143 C56.3865868,33.4319143 57.2898563,31.9580857 58.2792575,30.3609429 C59.8556168,30.3609429 61.3803713,30.4352286 62.8943593,30.3375429 C64.1614611,30.2562 65.4779401,30.1529429 66.6637365,29.7436286 C69.464503,28.7760571 71.3426946,23.5756857 69.824994,20.5229143 L69.824994,20.5229143 Z M181.005844,21.3166571 C180.153808,20.3832571 179.118743,20.124 177.985665,20.1199143 C176.39594,20.1139714 174.802132,20.1901143 173.216862,20.1013429 C169.832479,19.9119143 167.416335,21.5005143 165.386299,24.0507429 C163.822192,26.0163429 163.092671,28.3726857 162.095473,30.5990286 C161.576826,31.7567714 161.254204,33.033 161.036647,34.2902857 C160.704743,36.2057429 161.986695,37.8790286 163.879737,38.1037429 C166.364192,38.3975429 168.862012,38.3949429 171.341641,38.0777429 C172.040719,37.9882286 172.834467,37.726 173.348287,37.2717429 C174.664766,36.1076857 175.865042,34.8076857 177.070886,33.5229143 C177.317772,33.2599429 177.387569,32.8290857 177.557976,32.4290571 L171.485689,32.4290571 C169.862922,35.8083143 169.470503,36.062 167.161281,35.1705714 C167.077377,33.423 167.739701,31.9120286 168.833796,30.3609429 C170.590958,30.3609429 172.355916,30.3798857 174.120874,30.355 C175.739186,30.3319714 177.494862,30.1648286 178.545892,28.9328 C180.367653,26.7985714 181.418683,24.2528 181.005844,21.3166571 L181.005844,21.3166571 Z" id="Shape"></path>
                            <path d="M79.037006,35.0149429 C79.1669461,34.3864857 79.1933054,33.6462286 79.4687784,33.0162857 C80.8431737,29.8769714 82.2424431,26.7473143 83.7152216,23.6544286 C84.4818683,22.0450286 85.6142036,21.8299714 87.4355928,22.8729429 C87.0747305,23.7952 86.7472814,24.7638857 86.3251617,25.6887429 C85.1026108,28.3600571 83.8548144,31.0198571 82.5851138,33.6677714 C82.3519641,34.1554571 82.0208024,34.6234571 81.641006,35.0064 C80.8847545,35.7659714 80.4622635,35.7563143 79.037006,35.0149429 L79.037006,35.0149429 Z" id="Shape"></path>
                            <path d="M94.2860359,42.8680571 C93.9166347,41.8328857 94.0937246,41.0124 94.8280719,40.4251714 C96.2414491,39.2952857 97.7086587,38.233 99.3421916,37.0009714 C99.5638323,38.0290857 99.0466707,38.5242 98.8216886,39.0854286 C98.4363234,40.0470571 98.0435329,41.0109143 97.5776048,41.9346571 C96.7931377,43.4872286 96.0357725,43.6896571 94.2860359,42.8680571 L94.2860359,42.8680571 Z" id="Shape"></path>
                            <path d="M63.0514012,27.6933429 L59.5381916,27.6933429 C59.9933533,25.7114 61.2099641,24.2814 61.6313413,22.5954857 C62.8386707,22.1568286 63.8663114,22.0312857 65.1074251,22.7979143 C64.4328503,24.4032286 63.7657006,25.9936857 63.0514012,27.6933429 L63.0514012,27.6933429 Z" id="Shape"></path>
                            <path d="M173.572527,27.651 L169.963162,27.651 C170.795521,25.6902286 171.416635,23.9504571 172.511473,22.4153429 C173.578838,22.2147714 174.565641,22.0223714 175.662335,22.8580857 C174.947665,24.4964571 174.256383,26.0817143 173.572527,27.651 L173.572527,27.651 Z" id="Shape"></path>
                        </g>
                    </g>
                </g>
            </g>
        </g>
    </g>
</svg>