<?xml version="1.0" encoding="UTF-8" standalone="no"?>
<svg width="190px" height="38px" viewBox="0 0 190 38" version="1.1" xmlns="http://www.w3.org/2000/svg" xmlns:xlink="http://www.w3.org/1999/xlink">
    <!-- Generator: Sketch 39.1 (31720) - http://www.bohemiancoding.com/sketch -->
    <title>missesdressy</title>
    <desc>Created with Sketch.</desc>
    <defs>
        <polygon id="path-1" points="56.5806189 0.208045714 0 0.208045714 0 27.6474783 56.5806189 27.6474783 56.5806189 0.208045714"></polygon>
        <polygon id="path-3" points="27.2254022 25.7942192 27.2254022 0.203281496 0.0886877525 0.203281496 0.0886877525 25.7942192 27.2254022 25.7942192"></polygon>
    </defs>
    <g id="Page-1" stroke="none" stroke-width="1" fill="none" fill-rule="evenodd">
        <g id="Desktop-HD" transform="translate(-137.000000, -509.000000)">
            <g id="missesdressy" transform="translate(137.000000, 509.000000)">
                <path d="M110.303648,16.7211034 C109.348438,15.2753549 108.474106,13.8351034 107.476328,12.4847091 C106.855059,11.6438577 106.129073,10.836412 105.307737,10.1930349 C102.514259,8.00411486 98.700655,9.46318343 98.1789929,12.8671834 C97.8127013,15.2567491 100.070045,17.734692 102.766257,17.9376634 C105.342004,18.1317549 107.79239,17.611852 110.303648,16.7211034 M137.512662,13.9448349 C139.239617,12.9126406 140.825036,11.9650177 142.521768,10.9510063 C143.321607,12.3324806 142.386191,13.6355149 142.229543,14.8598977 C143.581906,13.7833034 144.924266,12.647932 146.340905,11.6132006 C147.146917,11.024372 148.078502,10.8820806 149.045418,11.5647834 C148.893027,12.0043434 148.710627,12.4195891 148.60655,12.8534406 C148.416487,13.6443949 148.128519,13.9181949 147.156282,13.8224177 C146.317281,13.7395377 145.256504,14.1346977 144.562231,14.665172 C142.22252,16.4532234 140.899315,18.9914234 139.852586,21.6687434 C139.369873,22.9039091 138.924832,24.1606406 138.573439,25.4374577 C138.313778,26.3804291 137.887254,26.9840577 136.836267,27.0345891 C136.308433,27.0599606 135.785281,27.1781491 135.26,27.2544749 C135.396216,26.730132 135.499229,26.1945834 135.673542,25.6829263 C136.88075,22.1423434 138.103708,18.6070463 139.317089,15.0685777 C139.359231,14.946372 139.356251,14.8093663 139.380089,14.6374749 C138.693053,14.3917949 137.907899,15.708572 137.377298,14.346972 C136.287149,17.9340691 134.551681,21.0014749 131.833333,23.4369206 C128.354521,26.5538006 124.382142,28.0849663 119.663131,26.8125891 C117.224451,26.1552577 115.452375,24.5925891 114.077238,22.5377149 C113.06137,21.0198691 112.037201,19.5075206 111.138818,18.1736177 C108.451971,18.6916177 105.890697,19.3548691 103.287281,19.6445263 C99.9942751,20.010932 97.3404172,18.2366234 96.748519,15.3907949 C96.2087657,12.7955091 96.9217678,10.510812 99.1033416,8.82276629 C102.01239,6.57126343 105.979449,5.77967486 108.978315,9.37945771 C109.719625,10.2693606 110.399637,11.2171949 111.032826,12.1870177 C111.778179,13.3285206 112.44159,14.523092 113.207801,15.8070977 C116.860075,14.3082806 120.508092,12.8422349 124.129717,11.3142406 C126.463044,10.3296177 128.754228,9.24668057 131.072443,8.22548057 C131.402978,8.07980629 131.777996,8.03434914 132.132581,7.94237771 C132.209841,8.40688629 132.446728,8.91304629 132.336479,9.32808057 C131.887394,11.0146463 131.33636,12.674572 130.813847,14.3416863 C130.453302,15.4922806 130.07722,16.6382234 129.691347,17.8387149 C130.568446,18.085452 131.81886,17.3327663 131.64923,19.0419549 C130.138942,19.5635491 128.575446,20.1754234 126.965976,20.6261891 C126.283835,20.8173206 126.401321,20.1599891 126.515827,19.7747663 C127.142205,17.6642863 127.797315,15.5622634 128.442848,13.4570691 C128.684844,12.667172 128.927477,11.8772749 129.169898,11.0873777 C129.100513,11.0023834 129.031128,10.9176006 128.961744,10.8326063 C123.964769,12.8957263 118.967369,14.9588463 113.934425,17.0367663 C115.23294,19.2237834 116.590837,21.4122806 118.588307,23.0994806 C122.139484,26.0990177 126.607347,25.7660177 130.070835,23.0436634 C133.899763,20.0339777 135.597559,15.9121777 135.558823,11.1362177 C135.530516,7.64172629 132.964985,4.90541771 129.267377,4.66756057 C125.751319,4.441332 122.205037,4.673692 118.671952,4.70984629 C115.212082,4.74536629 111.752213,4.79568629 108.29213,4.82126914 C107.612756,4.826132 107.335218,4.54620057 107.6085,3.80894914 C107.924136,2.95731486 108.064395,2.03992629 108.401103,1.198652 C108.507521,0.932252 108.999599,0.817869143 109.315448,0.634137714 C109.464221,0.918509143 109.79731,1.26038914 109.728777,1.47646914 C109.477629,2.26784629 109.766236,2.53340057 110.51393,2.51796629 C112.989644,2.46806914 115.466635,2.45157771 117.940433,2.35981771 C122.528123,2.18940629 127.121134,1.56336629 131.67924,2.69683486 C136.205207,3.82248057 138.364646,6.51100629 137.766576,11.9622691 C137.702299,12.5481377 137.617377,13.1316806 137.512662,13.9448349" id="Fill-1" fill="#FFFFFF"></path>
                <g id="Group-5" transform="translate(0.000000, 0.003383)">
                    <mask id="mask-2" fill="white">
                        <use xlink:href="#path-1"></use>
                    </mask>
                    <g id="Clip-4"></g>
                    <path d="M31.7643953,9.78218686 C31.9778702,9.82975829 32.191558,9.87732971 32.4052459,9.92468971 C32.9128608,8.13875257 33.4836882,6.36676971 33.8870133,4.55778686 C33.9983268,4.05881543 33.6105388,3.44990114 33.4517628,2.89151829 C33.0971772,3.32135257 32.5088972,3.71270686 32.4295092,4.18820971 C32.120045,6.03842114 31.9723365,7.91527257 31.7643953,9.78218686 M30.2621955,15.7903526 C28.3245323,17.772284 26.5181892,19.8030554 24.5168879,21.6228211 C21.7819393,24.1100669 18.6717601,26.015884 15.0109728,26.9343297 C10.1514906,28.1527926 4.68563737,26.3264726 1.92450989,22.5404211 C-1.59176136,17.719004 -0.768297075,8.38633543 8.42155585,6.547964 C12.9928575,5.63311257 16.92267,6.97039829 20.4474547,9.81939829 C21.1885513,10.418164 21.9622118,10.9786611 22.6826633,11.6008954 C23.7036398,12.4825526 24.7582445,12.732884 25.9501287,11.9493297 C26.2421403,11.757564 26.5669288,11.6146383 26.9772775,11.3953869 C27.2250191,11.7197183 27.467227,12.0370726 27.8007418,12.4740954 C26.0852798,13.4162211 24.475172,14.3471411 22.8080239,15.1628326 C22.5758194,15.2763697 21.9892421,14.8985469 21.689994,14.618404 C19.2757899,12.3586554 16.607672,10.4746154 13.5411242,9.20139257 C11.4172291,8.31973543 9.24289178,7.990964 6.93276477,8.593324 C3.43969269,9.50415829 1.43796573,12.8396554 2.0132627,16.5028669 C2.72285948,21.0221526 5.95371703,23.8751697 10.5548158,24.5511069 C15.5373174,25.283284 19.8036244,23.8030726 23.4335503,20.551724 C25.5768135,18.632164 27.4406225,16.4007469 29.37786,14.2625697 C29.6515677,13.9606497 29.7743743,13.3728783 29.7183983,12.9498097 C29.1726856,8.82314686 29.9105896,4.99650114 32.2862703,1.526324 C32.4046073,1.353164 32.5516773,1.19564971 32.7030041,1.04870686 C34.1473123,-0.355178857 35.5320264,0.0283525714 36.0502832,1.97962686 C36.4897905,3.63363257 36.0519859,5.20348971 35.3877233,6.67651257 C34.5978871,8.42840971 33.6056435,10.0893926 32.7572774,11.8169754 C32.5652989,12.2079069 32.470161,12.7396497 32.5595523,13.1582783 C33.17167,16.0252497 33.8446589,18.879324 34.5197761,21.833404 C35.5288338,20.6003526 36.5551313,19.3374897 37.5907935,18.0818154 C41.1581455,13.7572554 44.689741,9.40246114 48.3137075,5.12526114 C50.2277458,2.86635829 52.6034265,1.29036971 55.6761465,0.949546857 C56.5936845,0.847638286 56.7324539,1.07471257 56.4493814,1.90393543 C55.9343172,3.41374686 55.5041747,4.95231257 55.0189075,6.54267829 C54.5430052,6.42744971 54.1871426,6.34118686 53.8451144,6.25830686 C53.938124,4.20343257 53.1661661,3.73258114 51.2295671,4.64595257 C49.5920033,5.41808971 48.3926698,6.72471829 47.7367078,8.334324 C46.8706763,10.4602383 46.1461809,12.6671297 45.6196235,14.899604 C44.9777087,17.6217469 44.5965186,20.405204 44.1184879,23.1647697 C43.887986,24.4961354 44.2438486,24.8054554 45.5389585,24.294644 C46.4041387,23.9536097 46.86195,24.1267697 47.06755,25.1568497 C45.0013336,25.9587983 42.9321375,26.7620154 40.6513819,27.6474783 C40.996177,22.8051297 41.9494715,18.3340497 42.9689582,13.6447754 C41.2613712,15.749124 39.6882969,17.6858097 38.1173509,19.6241869 C36.23013,21.9524383 34.3554664,24.2910497 32.4422794,26.5977354 C32.2515779,26.8275583 31.8176044,26.980844 31.5202718,26.9495526 C31.3670296,26.9332726 31.0816159,26.3421183 31.1697302,26.1630383 C32.1370719,24.1982326 31.5424068,22.2207411 31.238902,20.266084 C31.0013765,18.7351297 30.5835785,17.232084 30.2621955,15.7903526" id="Fill-3" fill="#FFFFFF" mask="url(#mask-2)"></path>
                </g>
                <g id="Group-8" transform="translate(161.968551, 10.997669)">
                    <mask id="mask-4" fill="white">
                        <use xlink:href="#path-3"></use>
                    </mask>
                    <g id="Clip-7"></g>
                    <path d="M13.5605349,15.952328 C15.3749658,16.0829909 16.8241693,15.7237737 18.0779889,14.8850366 C21.1979586,12.7976023 23.292908,9.97439657 24.0925346,6.30103657 C24.2506721,5.57541371 24.327506,4.39310514 23.9233296,4.07955657 C23.127534,3.461128 22.2310668,4.25715657 21.6404456,4.84556229 C20.2948935,6.18601943 18.923801,7.54423657 17.8336526,9.08428229 C16.305274,11.2433909 15.0225086,13.5741794 13.5605349,15.952328 M17.0806372,7.39517943 C18.9908445,5.65554514 20.9915073,3.79222514 23.046869,1.99043086 C23.5359672,1.56144229 24.1827772,1.27728229 24.7993645,1.03117943 C26.2579328,0.449116571 27.291041,1.112368 27.2222948,2.69385371 C27.1718526,3.862208 27.0481946,5.10731086 26.5957043,6.16572229 C24.2917495,11.5533451 20.6190434,15.7472423 15.1817103,18.1924137 C13.9253366,18.7573509 12.4522954,18.8290251 11.1063176,19.2208023 C10.2426272,19.4719794 9.31593725,19.7453566 8.61762081,20.2711794 C7.30420697,21.2602423 7.59196188,22.8290423 9.1311952,23.4075109 C10.8000459,24.0343966 12.455488,23.811128 14.0638931,23.1172194 C14.3422832,22.997128 14.6174808,22.8704823 14.9684481,22.7136023 C15.2527976,23.6326823 14.8613914,24.2272194 14.3235536,24.737608 C12.5872337,26.3846366 8.57931024,26.0440251 7.12350881,24.1479337 C6.28812569,23.0597109 6.23300104,21.8676766 6.75040649,20.667608 C7.71306583,18.4340766 9.12842832,16.6965566 11.790374,16.406688 C11.9991666,16.3840651 12.2937322,16.0700937 12.3446002,15.845768 C13.1327336,12.3713623 13.8914956,8.89040229 14.6428083,5.40775086 C14.7087876,5.10265943 14.6958046,4.77642514 14.6879297,4.46055086 C14.6723926,3.85523086 14.3299387,3.58502514 13.7838003,3.84275657 C13.0820785,4.17364229 12.7345166,3.95079657 12.5757406,3.09683657 C12.1345306,3.75332229 11.7803707,4.27977943 11.4110994,4.82885943 C10.5918919,4.59882514 10.2075092,4.24975657 10.7089519,3.404888 C10.8451673,3.17527657 10.9022074,2.66404229 10.7742927,2.56593943 C10.5333618,2.38051657 10.1134355,2.29805943 9.80014021,2.35387657 C8.11362405,2.65325943 7.03816139,4.29267657 7.83565963,5.89699657 C8.34816984,6.92855657 8.87068336,7.99373371 9.12757698,9.10373371 C9.65392156,11.3772251 8.62421874,13.140328 6.90684129,14.556688 C5.7343252,15.5239737 4.50625879,16.4189509 2.89998198,16.5143051 C1.86240421,16.5760423 0.852282344,16.4191623 0.338707952,15.4036709 C-0.184656918,14.368728 0.180144785,13.3902366 0.819931202,12.3301337 C1.26710062,12.847288 1.60125387,13.2811394 1.983721,13.6669966 C2.94467764,14.6357623 4.39494532,14.7366137 5.57001545,13.9441794 C6.75317336,13.146248 7.13840737,11.9372994 6.61121144,10.6380709 C6.40050334,10.1194366 6.19809586,9.59361371 5.93673268,9.10013943 C4.33833082,6.083688 5.2177711,4.50537371 7.0253912,2.432528 C8.8049169,0.391819429 12.1175037,-0.286443429 14.0060016,0.558002286 C13.6082103,1.27305371 13.2151013,1.97943657 12.7213207,2.86701371 C13.5945887,2.43781371 14.3120605,2.10143086 15.0137823,1.73565943 C15.7246561,1.36502514 16.4202056,0.964790857 17.2330281,0.516350857 C18.1678059,2.98499086 17.4448004,5.29696229 17.0806372,7.39517943" id="Fill-6" fill="#FFFFFF" mask="url(#mask-4)"></path>
                </g>
                <text id="TM" font-family="HelveticaNeue, Helvetica Neue" font-size="6" font-weight="normal" fill="#FFFFFF">
                    <tspan x="180.524794" y="37.4893617">TM</tspan>
                </text>
                <path d="M53.5143453,25.7520423 C52.0259799,26.3675109 50.6063606,26.9544366 49.0679787,27.5906251 C48.7966122,25.9089223 49.1861029,24.4718423 49.756079,23.094808 C50.7734373,20.6361051 51.876143,18.2120766 52.9279808,15.7669051 C53.2006243,15.1328309 53.4172918,14.4748651 53.6384289,13.8839223 C52.8798798,13.1559737 51.5121926,15.2484823 51.0958845,13.0716137 C51.6243575,12.8673737 52.1717728,12.668208 52.7091849,12.4449394 C53.8146575,11.985928 54.9097011,11.5015451 56.0202818,11.0560651 C56.2850504,10.9501394 56.595366,10.9564823 56.884185,10.911448 C56.9280293,11.2108309 57.0808459,11.5444651 56.9980525,11.8043109 C56.4380798,13.5676251 55.8944955,15.3412994 55.2185269,17.0619051 C54.3109922,19.3728194 53.2868231,21.6382766 52.3201199,23.9259337 C52.2445629,24.1048023 52.226259,24.3071394 52.3752445,24.7547337 C53.0395071,24.3921337 53.7033441,24.0293223 54.5110584,23.5882823 C54.5542642,23.639448 54.761567,23.8542594 54.9356672,24.0935966 C55.932806,25.4651337 57.438624,25.8309051 58.8446217,25.0342423 C60.2527478,24.235888 60.6384075,22.949768 59.9449863,21.3164823 C59.6297754,20.5750023 59.3073282,19.8356366 58.9618946,19.1072651 C58.3027401,17.7181794 58.4281008,16.3787794 59.2153828,15.0930823 C60.9061557,12.330768 63.3116335,10.8924194 66.6380546,11.2144251 C66.9015461,11.240008 67.1578012,11.3442423 67.5934775,11.4579909 C66.6431627,13.0020537 65.7701075,14.4203166 64.8555492,15.9058137 C64.4645686,15.6377223 64.1851143,15.4463794 63.8624542,15.2254366 C64.0708211,14.6826994 64.2672692,14.1701966 64.4830854,13.6077966 C63.5085072,13.0126251 62.6769551,13.375648 61.9333045,13.9388937 C61.0419454,14.6139851 60.8535851,15.5761966 61.181779,16.5969737 C61.3950411,17.2600137 61.750478,17.8775966 62.0369559,18.5180137 C63.257573,21.2460766 62.9383183,23.1195451 60.7592986,25.166808 C59.4443949,26.4023966 58.0147723,27.5162023 56.0453965,27.5003451 C54.7049525,27.4895623 54.050906,27.0557109 53.5143453,25.7520423" id="Fill-9" fill="#FFFFFF"></path>
                <path d="M149.594622,16.4324611 C149.672945,16.5316211 149.751269,16.6305697 149.829593,16.7293069 C151.839833,16.9327011 153.576366,16.3791811 154.839551,14.727924 C155.077502,14.4167011 155.028549,13.8889754 155.112194,13.4608326 C154.746754,13.3957126 154.366841,13.2350269 154.019705,13.287884 C153.511877,13.3650554 152.933174,13.4783811 152.551771,13.7830497 C151.518876,14.608044 150.574308,15.541924 149.594622,16.4324611 M148.941639,17.7659411 C147.972169,19.5584326 147.00653,21.5365583 147.073148,23.8453583 C147.110182,25.1215411 147.749755,25.6131126 149.011024,25.2414211 C150.695412,24.7449869 151.845367,23.5402669 152.802493,22.1759183 C153.483357,21.2052497 153.984161,20.1111069 154.589681,19.0863126 C154.713551,18.876364 154.945118,18.728364 155.126667,18.5520326 C155.284166,18.7651526 155.575326,18.9789069 155.574475,19.191604 C155.571708,19.8432269 155.65216,20.6039469 155.354189,21.1280783 C153.564235,24.2743469 150.958265,26.5218326 147.401342,27.4428154 C145.409831,27.9587011 143.954455,26.6565126 144.151116,24.596564 C144.747058,18.3615354 149.069554,12.8783469 155.236278,11.2653583 C155.803487,11.1169354 156.437314,11.1277183 157.028574,11.1854383 C157.99251,11.2791011 158.471818,12.2265126 158.063385,13.287884 C157.853528,13.8333697 157.507456,14.349044 157.134566,14.8069983 C155.52382,16.7840669 153.320537,17.7864497 150.889731,18.2807697 C150.338698,18.3926154 149.678905,17.9756783 148.941639,17.7659411" id="Fill-11" fill="#FFFFFF"></path>
                <path d="M78.0605833,16.6612269 C80.2932379,16.8840726 82.0548853,16.4267526 83.2663505,14.6814097 C83.4825923,14.3699754 83.5002577,13.922804 83.60923,13.5382154 C83.1929219,13.4483583 82.7583098,13.233124 82.3630725,13.2897869 C80.3585787,13.5754269 79.3137645,15.1027869 78.0605833,16.6612269 M83.8765526,18.484164 C83.9252922,19.167924 84.1059903,19.8764211 83.9838222,20.5286783 C83.8665493,21.1564097 83.5336731,21.8048611 83.1254527,22.3078497 C81.4185043,24.4092383 79.4165645,26.1833354 76.8648681,27.2155297 C74.1592909,28.309884 72.2463168,26.9269297 72.6309123,24.048964 C73.4260693,18.1025354 77.50657,13.1113411 83.1714254,11.399404 C83.7035166,11.2387183 84.279452,11.162604 84.8368707,11.1526669 C86.4663467,11.1239126 87.1859468,12.1546269 86.3390705,13.5515354 C85.6820444,14.6363754 84.7932393,15.6960554 83.7582155,16.410684 C82.6010237,17.2105183 81.1775734,17.6447926 79.8418117,18.1687126 C78.9904659,18.5027697 78.1806231,18.349484 77.549563,17.5086326 C76.3193682,19.4406669 75.5810385,21.4606554 75.4365226,23.6628954 C75.3462799,25.0395069 76.0992953,25.563004 77.4618744,25.1908897 C79.3318556,24.6805011 80.4673381,23.2795754 81.5027875,21.8071869 C82.0844696,20.9800783 82.5035446,20.0402783 83.0015819,19.154604 C83.1405641,18.907444 83.3001915,18.6717011 83.450454,18.430884 C83.5924159,18.448644 83.7345907,18.466404 83.8765526,18.484164" id="Fill-13" fill="#FFFFFF"></path>
                <path d="M82.6627462,23.323912 C82.9854063,23.7450777 83.2101616,24.0495349 83.4459844,24.345112 C84.3396848,25.4661063 85.9023301,25.7551291 87.1497646,25.0339463 C88.5195801,24.2421463 88.9550435,22.999792 88.354419,21.5403006 C88.1013565,20.9254663 87.8472297,20.3059806 87.5305291,19.7222263 C86.391854,17.6235863 86.8466855,15.7839463 88.2924836,14.0024491 C90.0409352,11.8477806 92.2778464,10.9722549 95.0051329,11.2164549 C95.2637292,11.239712 95.5131736,11.3650891 95.906921,11.4862377 C94.9640555,13.0163463 94.0912131,14.4327063 93.1753778,15.9192606 C92.7858871,15.645672 92.5068585,15.4494663 92.1914348,15.2278891 C92.4019301,14.6847291 92.599868,14.173072 92.8163227,13.6146891 C91.8530248,13.0089463 91.0410537,13.3740834 90.2795249,13.9265463 C89.4743645,14.5100891 89.1421268,15.5919691 89.499692,16.564752 C89.7889368,17.3519006 90.1809816,18.1012034 90.5164118,18.8718606 C91.502696,21.1360491 91.1574753,23.0852091 89.4081724,24.8333006 C88.0768803,26.1638206 86.6468321,27.3473977 84.6344633,27.4953977 C83.5707066,27.5740491 82.5620746,27.356912 82.1066046,26.3515691 C81.6715668,25.3927406 81.8724844,24.3764034 82.6627462,23.323912" id="Fill-15" fill="#FFFFFF"></path>
                <path d="M62.9398295,23.3305297 C63.3586916,23.8364783 63.6438925,24.2314269 63.9801741,24.5775354 C64.9141005,25.539324 66.4541852,25.697684 67.5579551,24.971004 C68.8394435,24.1271926 69.2355321,22.9930897 68.6804546,21.6266269 C68.3241664,20.7504669 67.8927469,19.9047526 67.5300735,19.0309183 C67.019266,17.798924 67.0471476,16.588284 67.6703327,15.3772211 C69.1638062,12.4745183 72.0215615,10.8830954 75.2534832,11.2122897 C75.5105896,11.2385069 75.7572671,11.365364 76.1799603,11.4998326 C75.243267,13.0181011 74.3842591,14.4099354 73.5248254,15.802404 C72.613034,15.5888611 72.4236095,15.197084 72.7894754,14.423044 C73.2076991,13.5388497 72.9263293,13.2214954 71.934937,13.3215011 C70.2816233,13.4883183 69.2319139,15.1657926 69.8367951,16.7166211 C70.2554445,17.7908897 70.8545791,18.8154726 71.1212632,19.9218783 C71.325799,20.7684383 71.3202653,21.7587697 71.087635,22.5979297 C70.4289062,24.9760783 67.0580022,27.4777011 64.7419158,27.5005354 C63.7179596,27.5104726 62.8236207,27.2977754 62.365171,26.2860897 C61.8941639,25.2471297 62.2381076,24.3320669 62.9398295,23.3305297" id="Fill-17" fill="#FFFFFF"></path>
                <path d="M154.239607,23.3643794 C154.539707,23.7320537 154.742965,23.9699109 154.934305,24.2168594 C156.369887,26.0732023 159.107816,25.8082823 159.996621,23.6421966 C160.23968,23.0497737 160.096015,22.2084994 159.898503,21.549688 C159.539874,20.353848 158.950742,19.2269337 158.575725,18.0344766 C158.418651,17.5338137 158.435678,16.9020651 158.589346,16.3942137 C159.589677,13.0868366 163.504166,10.1632023 167.427593,11.5645509 C166.539001,13.0060709 165.668074,14.4186251 164.793316,15.8379451 C163.10829,15.3190994 164.436389,14.3260194 164.290596,13.5705851 C163.390724,13.0314423 162.595141,13.3758594 161.879798,13.9312823 C161.064847,14.564088 160.659606,15.4129737 161.023344,16.439248 C161.302798,17.2278766 161.670154,17.9879623 162.032827,18.7444537 C163.098712,20.9672023 162.775201,23.0062194 161.085279,24.7519851 C159.758031,26.1235223 158.280307,27.3627051 156.233672,27.5088023 C155.167574,27.5847051 154.133615,27.3891337 153.646006,26.2899166 C153.19458,25.2723109 153.47893,24.3242651 154.239607,23.3643794" id="Fill-19" fill="#FFFFFF"></path>
                <path d="M57.7384468,6.11085657 C58.5478638,6.08041086 58.8979798,6.58276514 58.9597024,7.27329086 C59.0280229,8.03845086 58.1951938,8.89114229 57.4274927,8.86577086 C56.6476599,8.83997657 56.1834635,8.42832514 56.1836764,7.60713657 C56.184102,6.73922229 56.8451721,6.10599371 57.7384468,6.11085657" id="Fill-21" fill="#FFFFFF"></path>
            </g>
        </g>
    </g>
</svg>