<?xml version="1.0" encoding="UTF-8" standalone="no"?>
<svg width="167px" height="41px" viewBox="0 0 167 41" version="1.1" xmlns="http://www.w3.org/2000/svg" xmlns:xlink="http://www.w3.org/1999/xlink">
    <!-- Generator: Sketch 39.1 (31720) - http://www.bohemiancoding.com/sketch -->
    <title>movieglu</title>
    <desc>Created with Sketch.</desc>
    <defs></defs>
    <g id="Page-1" stroke="none" stroke-width="1" fill="none" fill-rule="evenodd">
        <g id="Desktop-HD" transform="translate(-899.000000, -507.000000)" fill="#FFFFFF">
            <g id="movieglu" transform="translate(899.000000, 507.000000)">
                <path d="M85.777511,5.81054911 C85.777511,4.78530651 85.7988715,3.89980355 85.7716855,3.01551361 C85.7435285,2.10769112 85.89645,1.18701065 85.680418,0.31024142 L82.6304834,0.31024142 L82.6304834,5.81054911 L85.777511,5.81054911 Z M85.7068759,31.2996911 C85.8833424,29.0405669 85.8136782,9.2465432 85.631386,8.30087456 L82.6319398,8.30087456 C82.605482,8.51412308 82.5693148,8.66744852 82.5693148,8.82150178 C82.5778105,16.2514781 82.5894616,23.6814544 82.6035401,31.1111882 C82.6035401,31.143697 82.6409209,31.1779041 82.6654369,31.207987 C82.6906811,31.238555 82.7217509,31.265484 82.7562189,31.2996911 L85.7068759,31.2996911 Z M69.6229311,27.3816438 C66.9470474,20.9706024 64.2964078,14.6197266 61.6275634,8.22518225 C60.4940023,8.31300473 59.4218526,8.0985432 58.3030983,8.36807574 C59.9364456,12.2412414 61.5399369,16.0389574 63.1400299,19.838129 C64.753716,23.6695669 66.3108453,27.5257503 67.9903119,31.2926556 L71.4579892,31.2926556 C72.2675023,29.3707503 73.0745881,27.4575787 73.8799747,25.5429515 C74.6880314,23.6225018 75.4917189,21.7003538 76.3017174,19.7808746 C77.1119587,17.8609101 77.9629791,15.9574426 78.7312276,14.0209811 C79.4866113,12.1165432 80.4133642,10.2766379 81.0769951,8.2967503 L77.7644238,8.2967503 C75.0497029,14.660484 72.3463904,20.9972888 69.6229311,27.3816438 L69.6229311,27.3816438 Z M144.432863,31.2941112 C144.636758,28.9051941 144.553986,0.956779882 144.335284,0.00164970414 C143.426736,0.00164970414 142.500954,-0.00247455621 141.575415,0.00262011834 C140.62002,0.0077147929 139.66511,0.0220284024 138.727677,0.0319751479 C138.523539,2.46310533 138.607039,30.375129 138.817002,31.2941112 L144.432863,31.2941112 Z M3.25183953,31.3033302 C3.25183953,29.9554249 3.22538169,28.7089278 3.25669419,27.4638864 C3.35208808,23.6773302 2.99017384,19.8793716 3.48025087,16.1034899 C3.77007355,13.8693538 4.69634099,12.0471586 6.94501541,11.1480698 C7.9805125,10.7341882 9.05144855,10.6012414 10.134764,10.7201172 C12.1671637,10.9433124 13.7818206,11.8181408 14.7148846,13.7601822 C15.3032683,14.9841172 15.5479427,16.2750107 15.5603221,17.5945314 C15.5989166,21.7566379 15.5731869,25.9199574 15.5770706,30.0825491 C15.5773134,30.4738686 15.6105677,30.8651882 15.6297436,31.2780994 L18.7893933,31.2780994 C18.7893933,30.7814899 18.7794413,30.3450462 18.7908497,29.9090876 C18.9076041,25.3949633 18.557341,20.8755018 18.9855212,16.3630757 C19.0748468,15.4215314 19.3202494,14.550342 19.7098352,13.7196675 C20.3329297,12.3897148 21.3543483,11.4811645 22.7612262,10.9898923 C23.9826564,10.5633953 25.2536041,10.5694604 26.4662959,10.7649988 C27.8129762,10.982129 29.0050358,11.5874249 29.8349384,12.8482355 C30.8148497,14.3368509 31.0558831,15.9863124 31.0857392,17.654697 C31.1605009,21.8160757 31.1066142,25.9796379 31.1165663,30.1422296 C31.1172945,30.5284544 30.9845198,30.949129 31.304684,31.3290462 C32.2848381,31.3035728 33.2829544,31.4508331 34.2922363,31.2327325 C34.3053439,30.935058 34.3254907,30.6956083 34.3254907,30.4566438 C34.3257334,25.9303893 34.2956346,21.4036497 34.3383555,16.8776379 C34.352434,15.399697 34.1099442,13.9811941 33.5312698,12.6590047 C32.633402,10.6070639 31.2335634,8.9942355 29.0198424,8.23949586 C27.2117276,7.62304024 25.4135648,7.37995148 23.4768017,7.71037751 C21.5589718,8.0374071 19.9797538,8.82950769 18.6498221,10.1876024 C18.1473657,10.7007089 17.7038933,11.2710698 17.1878439,11.8678746 C15.7265939,9.27783905 13.4995227,7.85593964 10.6042087,7.61018225 C7.7188468,7.36539527 5.17331047,8.14754911 3.294075,10.6077917 C3.15474651,9.78196923 3.39577994,9.00539527 3.11857936,8.2358568 C2.58602413,8.2358568 2.10201541,8.21887456 1.61994855,8.24070888 C1.1111811,8.26375621 0.581053198,8.12207574 0.105054651,8.35715858 C-0.0808784884,10.7528686 -0.00199040698,30.3591172 0.201662209,31.3033302 L3.25183953,31.3033302 Z M166.760617,31.2982355 C166.958444,29.1024308 166.882954,8.71111716 166.66935,7.76205207 C165.761044,7.76205207 164.83502,7.75768521 163.909481,7.76302249 C162.953357,7.76811716 161.997719,7.78194556 160.979213,7.79286272 L160.979213,9.11820592 C160.979213,13.2827385 161.005185,17.447271 160.964406,21.6115609 C160.951299,22.940058 160.685992,24.2129988 159.681808,25.2523124 C158.677623,26.2908982 157.397937,26.6567444 156.085482,26.655774 C153.874431,26.6543183 153.020983,25.9187444 152.320215,24.0941231 C151.966553,23.1734426 151.785475,22.1748864 151.788145,21.1588627 C151.799553,17.0753598 151.794213,12.9913716 151.790815,8.90786864 C151.790329,8.55560828 151.759502,8.20359053 151.742026,7.82852544 L145.929794,7.82852544 L145.929794,8.71912308 C145.931008,12.7623538 145.931494,16.8055846 145.933435,20.8488154 C145.934649,23.0693657 146.239036,25.2246556 147.142001,27.286058 C148.092299,29.4556615 149.702829,30.8853243 151.935241,31.5301645 C153.299883,31.9243953 154.72181,32.0025136 156.178449,31.8477325 C157.538722,31.7033834 158.764521,31.3372947 159.886674,30.5956556 C160.405879,30.2526142 160.885276,29.8496497 161.429967,29.4381941 C161.459824,30.0920107 161.486524,30.6810521 161.514681,31.2982355 L166.760617,31.2982355 Z" id="Fill-1"></path>
                <path d="M131.665349,19.4856746 C131.588645,18.9834852 131.555634,18.2100651 131.343,17.4902604 C130.916761,16.047497 130.243907,14.7379231 128.946987,13.845142 C127.065809,12.5496391 124.987291,12.2810769 122.868721,12.9353787 C121.11692,13.4763846 119.818058,14.6622308 119.151757,16.4507041 C118.521623,18.1428639 118.3454,19.8359941 118.741782,21.6288343 C119.252977,23.9410888 120.499166,25.5456686 122.774783,26.2700828 C124.002039,26.6609172 125.227839,26.7970178 126.542964,26.4991006 C127.725314,26.2315089 128.732411,25.7642544 129.604307,24.9607515 C131.129881,23.5543787 131.554177,21.7173846 131.665349,19.4856746 M131.865603,10.4731953 L131.865603,7.77859763 C133.647017,7.73153254 135.365564,7.77010651 137.156202,7.75312426 C137.186786,8.0976213 137.231449,8.36715385 137.231692,8.63620118 C137.233634,15.549432 137.266402,22.4626627 137.21203,29.3756509 C137.190427,32.1233787 136.356155,34.6716864 134.659455,36.8670059 C133.251363,38.6882308 131.311202,39.7379763 129.107918,40.2636982 C127.750315,40.5878166 126.361157,40.8580769 124.950395,40.765645 C121.950706,40.5693787 119.074325,39.9184734 116.664477,38.0050592 C115.119484,36.7779704 113.893927,35.2643669 113.23418,33.276716 L119.542071,33.276716 C119.94258,33.5756036 120.424889,33.8732781 120.830495,34.2527101 C121.442424,34.8252544 122.186642,35.1197751 122.95659,35.3356923 C124.652562,35.8111953 126.34368,35.7859645 128.030671,35.2126923 C129.022962,34.8754734 129.765724,34.2568343 130.364788,33.4319822 C131.285472,32.1651065 131.671902,30.7068166 131.855408,29.1810828 C131.872885,29.0347929 131.826523,28.8809822 131.797152,28.6160592 C130.698302,29.7218462 129.572994,30.6138994 128.228498,31.2031834 C127.412189,31.5607811 126.580344,31.8116331 125.682234,31.8082367 C125.156475,31.8062959 124.630231,31.8021716 124.104715,31.8176982 C120.855254,31.9142544 118.150971,30.7000237 115.947687,28.3622959 C114.574307,26.9049763 113.662603,25.1545917 113.212091,23.2157041 C112.924453,21.9789112 112.705266,20.6880178 112.726384,19.4259941 C112.790222,15.5979527 114.138116,12.2774379 117.14266,9.79633136 C118.676487,8.52969822 120.477805,7.74342012 122.490301,7.52895858 C123.205148,7.45302367 123.929705,7.25894083 124.631687,7.32031953 C126.587141,7.49232544 128.547934,7.7356568 130.177641,8.99671006 C130.716022,9.41326036 131.205856,9.89240237 131.865603,10.4731953" id="Fill-3"></path>
                <path d="M166.760593,31.2981385 L161.514657,31.2981385 C161.4865,30.680955 161.459799,30.0919136 161.429943,29.438097 C160.885251,29.8495527 160.405855,30.2525172 159.886892,30.5955586 C158.76474,31.3371976 157.538698,31.7032864 156.178424,31.8478781 C154.721786,32.0024166 153.299859,31.9242982 151.935216,31.5300675 C149.703048,30.8854698 148.092275,29.4555645 147.141977,27.2859609 C146.239011,25.2248012 145.934625,23.0692686 145.933411,20.8489609 C145.931469,16.8057302 145.930984,12.7624994 145.930013,8.71926864 L145.930013,7.82867101 L151.742001,7.82867101 C151.759478,8.20373609 151.790305,8.55575385 151.790791,8.9077716 C151.794189,12.9912746 151.799529,17.0752627 151.78812,21.1587657 C151.78545,22.175032 151.966529,23.1735882 152.32019,24.0942686 C153.020959,25.9186473 153.874407,26.6542213 156.085458,26.6556769 C157.397913,26.6566473 158.677599,26.2908012 159.681783,25.2522154 C160.686211,24.2131444 160.951275,22.9402036 160.964382,21.6114639 C161.005161,17.447174 160.979432,13.2826414 160.979432,9.11810888 L160.979432,7.79276568 C161.997695,7.78184852 162.953333,7.76826272 163.909456,7.76292544 C164.834995,7.75783077 165.76102,7.76195503 166.669325,7.76195503 C166.88293,8.71102012 166.95842,29.1023337 166.760593,31.2981385" id="Fill-5"></path>
                <path d="M3.25176672,31.3033544 L0.20158939,31.3033544 C0.133381541,30.0408456 0.0358030523,10.6662834 0.104981831,8.35718284 C0.58122311,8.1221 1.11135102,8.26378047 1.61987573,8.24073314 C2.10218532,8.21889882 2.58619404,8.23588107 3.11874927,8.23588107 C3.39570712,9.00541953 3.15467369,9.78199349 3.29400218,10.607816 C5.17348038,8.14757337 7.71877398,7.36541953 10.6041359,7.61020651 C13.4996926,7.85596391 15.7267638,9.27786331 17.1880138,11.8678988 C17.7038205,11.2710941 18.1472929,10.7007331 18.6497493,10.1876266 C19.979681,8.82953195 21.558899,8.03743136 23.4769717,7.71040178 C25.4137347,7.37997574 27.2116548,7.6230645 29.0200124,8.23952012 C31.2334906,8.99425976 32.6333292,10.6068456 33.5314397,12.659029 C34.1098714,13.9812183 34.3523612,15.3997213 34.3382827,16.8776621 C34.2958045,21.403674 34.3259033,25.9304136 34.3254179,30.456668 C34.3254179,30.6956325 34.3055138,30.9348396 34.2921635,31.2327568 C33.2828815,31.4508574 32.2847653,31.303597 31.3046112,31.3288278 C30.9844469,30.9491533 31.1174644,30.5284787 31.1164935,30.1422538 C31.1065414,25.9796621 31.1604281,21.8161 31.0856664,17.6547213 C31.0558103,15.9863367 30.8150196,14.3366325 29.8351083,12.8482598 C29.0052057,11.5874491 27.8131461,10.9821533 26.4664658,10.7650231 C25.2535312,10.5694846 23.9828263,10.5634195 22.7611533,10.9899166 C21.3542754,11.4811888 20.3330996,12.3897391 19.7097624,13.7196917 C19.3201766,14.5503663 19.074774,15.4215556 18.9854484,16.3631 C18.5572682,20.875526 18.907774,25.3949876 18.7910196,29.9091118 C18.7796112,30.3450704 18.7893205,30.7815142 18.7893205,31.2781237 L15.6296708,31.2781237 C15.6107376,30.8652124 15.5772406,30.4738929 15.5769978,30.0825734 C15.5731141,25.9199817 15.5988437,21.7566621 15.5602493,17.5945556 C15.5478699,16.2750349 15.3031955,14.9841414 14.7150545,13.7599639 C13.7817478,11.8181651 12.1670908,10.9433367 10.1346911,10.7201414 C9.05161846,10.6012657 7.98043968,10.7342124 6.94518532,11.1480941 C4.69626817,12.0471828 3.77024346,13.8693781 3.48017805,16.1035142 C2.99010102,19.8793959 3.35225799,23.6771118 3.2568641,27.4639107 C3.22530887,28.7089521 3.25176672,29.9554491 3.25176672,31.3033544" id="Fill-7"></path>
                <path d="M107.932076,17.8755876 C107.152176,13.6249308 103.480361,10.3856882 98.6111455,10.7093213 C94.8089827,10.9618716 91.3748025,13.6787888 90.6691789,17.876558 C96.4301935,17.876558 102.181013,17.876558 107.932076,17.8755876 M111.310185,20.7858598 C110.192644,21.032345 109.067093,20.8724692 107.954893,20.9003686 C106.782737,20.9297237 105.609125,20.9066763 104.436484,20.9066763 L101.039442,20.9066763 L97.6419144,20.9066763 L94.1237487,20.9066763 L90.6796164,20.9066763 C90.4509624,22.0595284 90.8881237,23.0170846 91.328926,23.9336408 C92.5379769,26.4477414 94.5980481,27.960132 97.2666499,28.6137059 C100.045209,29.2939663 102.557734,28.6903686 104.847188,26.9404692 C106.009148,26.0525402 106.695353,24.8552917 107.50875,23.5512976 L109.103018,23.5512976 L110.677381,23.5512976 C109.571249,28.1738657 104.349586,32.1993864 99.1475844,31.998268 C95.7134042,31.8655639 92.6207487,30.6035402 90.3053228,27.9516408 C88.0787371,25.4013923 87.0119275,22.388984 87.1925205,18.9709426 C87.4966644,13.2098361 91.878958,7.98755207 98.7589696,7.5860432 C102.297282,7.37934497 105.531208,8.56009645 107.982807,11.2340728 C110.389015,13.8590432 111.36577,17.0791201 111.310185,20.7858598" id="Fill-9"></path>
                <path d="M56.7111125,19.8604728 C56.5950863,19.0297982 56.5504235,18.181171 56.3487128,17.3718456 C55.8513538,15.3764314 54.9248436,13.6134314 53.1939177,12.4004136 C50.4952172,10.5095615 47.6086416,10.1524491 44.5261808,11.3911828 C41.2944395,12.6898396 39.6525965,15.2102479 39.197473,18.5142657 C38.8957564,20.7044905 39.321752,22.8396444 40.4897811,24.7729521 C41.4527012,26.3671 42.780691,27.5136444 44.5371038,28.1914787 C46.3486169,28.8904195 48.1603727,29.0347686 50.076989,28.6616444 C52.3283334,28.2235024 53.9655645,26.9546858 55.1780137,25.1271533 C56.2173945,23.5596917 56.756989,21.7942657 56.7111125,19.8604728 M60.116893,19.8735734 C60.046986,22.746242 59.2326183,25.3632065 57.4764483,27.6114136 C55.9278145,29.5942124 53.8944439,30.9637095 51.4166299,31.5437746 C50.3321009,31.7977805 49.2031517,32.0294669 48.1011459,32.0020527 C46.2187549,31.9552302 44.3727738,31.5726444 42.634566,30.7776325 C40.3225384,29.7201237 38.5508334,28.0573189 37.300518,25.8770408 C36.6247506,24.6982302 36.1960849,23.390597 35.981752,22.0346858 C35.8759206,21.3643722 35.7715456,20.6882361 35.7487288,20.0116148 C35.6518785,17.1387036 36.5079962,14.5409047 38.2369802,12.2696503 C39.8732404,10.1204254 42.074582,8.73200533 44.6761895,8.03136627 C45.6344977,7.7734787 46.6415951,7.57017692 47.627332,7.56532485 C51.0971939,7.54882781 54.1888785,8.62889882 56.6713044,11.1209225 C58.359752,12.8155083 59.3333523,14.9198515 59.7824076,17.2563663 C59.9479512,18.1183367 60.0083916,19.0004432 60.116893,19.8735734" id="Fill-11"></path>
                <path d="M144.432984,31.2941112 L138.816881,31.2941112 C138.606917,30.375129 138.523417,2.46310533 138.727555,0.0319751479 C139.664989,0.0220284024 140.620141,0.0077147929 141.575536,0.00262011834 C142.501076,-0.00247455621 143.426615,0.00164970414 144.335406,0.00164970414 C144.553865,0.956779882 144.63688,28.9051941 144.432984,31.2941112" id="Fill-13"></path>
                <path d="M69.6228826,27.381668 C72.3463419,20.997313 75.0496544,14.6605083 77.7643753,8.29677456 L81.0769465,8.29677456 C80.4133157,10.2766621 79.4865628,12.1165675 78.7311791,14.0210053 C77.9629305,15.9574669 77.1119102,17.8609343 76.3016689,19.7808988 C75.4916703,21.7003781 74.6879828,23.622526 73.8801689,25.5429757 C73.0747823,27.4573604 72.2676965,29.3707746 71.4581834,31.2926799 L67.9902634,31.2926799 C66.3107968,27.5257746 64.7536674,23.6695911 63.1399814,19.8381533 C61.5401311,16.0389817 59.9363971,12.2412657 58.3030497,8.3681 C59.4220468,8.09856746 60.4941965,8.31302899 61.6275148,8.22520651 C64.2963593,14.6197509 66.9469988,20.9706266 69.6228826,27.381668" id="Fill-15"></path>
                <path d="M85.7068759,31.2997882 L82.7562189,31.2997882 C82.7217509,31.2653385 82.6906811,31.2386521 82.6654369,31.2078414 C82.6409209,31.1780012 82.6035401,31.1435515 82.6035401,31.1112852 C82.5894616,23.6815515 82.5778105,16.2515751 82.5693148,8.82159882 C82.5693148,8.66754556 82.605482,8.51397751 82.6319398,8.30072899 L85.631386,8.30072899 C85.8136782,9.24664024 85.8833424,29.0404213 85.7068759,31.2997882" id="Fill-17"></path>
                <path d="M85.777511,5.81054911 L82.6304834,5.81054911 L82.6304834,0.31024142 L85.680418,0.31024142 C85.89645,1.18701065 85.7435285,2.10769112 85.7716855,3.01551361 C85.7988715,3.89980355 85.777511,4.78530651 85.777511,5.81054911" id="Fill-19"></path>
            </g>
        </g>
    </g>
</svg>