<?xml version="1.0" encoding="UTF-8" standalone="no"?>
<svg width="138px" height="50px" viewBox="0 0 138 50" version="1.1" xmlns="http://www.w3.org/2000/svg" xmlns:xlink="http://www.w3.org/1999/xlink">
    <!-- Generator: Sketch 39.1 (31720) - http://www.bohemiancoding.com/sketch -->
    <title>nhs</title>
    <desc>Created with Sketch.</desc>
    <defs></defs>
    <g id="Page-1" stroke="none" stroke-width="1" fill="none" fill-rule="evenodd">
        <g id="Desktop-HD" transform="translate(-913.000000, -349.000000)" fill="#FEFFFE">
            <g id="nhs" transform="translate(913.000000, 349.000000)">
                <polygon id="Fill-2" points="10.3506618 0.96336838 26.3870228 0.96336838 36.2300654 34.183808 36.3681217 34.183808 43.1147848 0.96336838 55.2243763 0.96336838 45.0412302 48.8762188 29.0789345 48.8762188 19.023024 15.7194085 18.8849677 15.7194085 12.2071462 48.8762188 0.093077135 48.8762188"></polygon>
                <polygon id="Fill-3" points="59.9650998 0.96336838 72.8409039 0.96336838 69.0525638 19.284881 84.2637585 19.284881 88.0470614 0.96336838 100.917269 0.96336838 90.9412069 48.8762188 78.0711863 48.8762188 82.3378728 28.3470305 67.1264916 28.3470305 62.8540216 48.8762188 49.9890381 48.8762188"></polygon>
                <path d="M134.783081,11.8087937 C132.309261,10.6420708 128.930799,9.61209502 124.184647,9.61209502 C119.087756,9.61209502 114.95894,10.3655997 114.95894,14.2120085 C114.95894,21.0041554 133.61296,18.462333 133.61296,33.0165083 C133.61296,46.2655391 121.295725,49.6937063 110.143759,49.6937063 C105.185298,49.6937063 99.4708861,48.525681 95.2728546,47.2263041 L98.3054296,37.4740931 C100.854434,39.1239893 105.945914,40.2224316 110.143759,40.2224316 C114.134146,40.2224316 120.39668,39.4683688 120.39668,34.5237037 C120.39668,26.8405607 101.748069,29.7215533 101.748069,16.2016329 C101.748069,3.84490048 112.617952,0.135610938 123.147359,0.135610938 C129.074452,0.135610938 134.645211,0.756461578 137.88002,2.26868034 L134.783081,11.8087937 Z" id="Fill-4"></path>
            </g>
        </g>
    </g>
</svg>