<?xml version="1.0" encoding="UTF-8" standalone="no"?>
<svg width="118px" height="31px" viewBox="0 0 118 31" version="1.1" xmlns="http://www.w3.org/2000/svg" xmlns:xlink="http://www.w3.org/1999/xlink">
    <!-- Generator: Sketch 39.1 (31720) - http://www.bohemiancoding.com/sketch -->
    <title>patron</title>
    <desc>Created with Sketch.</desc>
    <defs>
        <polygon id="path-1" points="22.4128798 0.347458333 0.000257923497 0.347458333 0.000257923497 29.8903292 22.4128798 29.8903292 22.4128798 0.347458333"></polygon>
    </defs>
    <g id="Page-1" stroke="none" stroke-width="1" fill="none" fill-rule="evenodd">
        <g id="Desktop-HD" transform="translate(-442.000000, -511.000000)">
            <g id="patron" transform="translate(442.000000, 511.000000)">
                <g id="Group-5" transform="translate(0.000000, 0.298310)">
                    <mask id="mask-2" fill="white">
                        <use xlink:href="#path-1"></use>
                    </mask>
                    <g id="Clip-4"></g>
                    <path d="M4.07286995,16.3394542 C7.41426885,16.2148083 10.4758208,16.3233083 13.472247,15.9299958 C16.971624,15.4708083 18.5075585,13.3027458 18.4321158,9.70868333 C18.3631213,6.4259125 16.5163891,4.13901667 13.2259301,3.86776667 C10.2237005,3.6204125 7.18471694,3.81545417 4.07286995,3.81545417 L4.07286995,16.3394542 Z M0.000257923497,0.347329167 C4.01419235,0.353141667 8.02812678,0.3596 12.042706,0.362829167 C14.0003454,0.364766667 15.865777,0.7645375 17.602247,1.67839167 C20.8159738,3.36918333 22.3551322,6.03389167 22.4112306,9.67962083 C22.4679738,13.3951 21.0629355,16.2257875 17.8105202,18.0702875 C15.801941,19.2082458 13.5915366,19.5628083 11.3263235,19.6118917 C9.48023607,19.6525792 7.63285902,19.6112458 5.78548197,19.6273917 C5.24384262,19.6325583 4.7034929,19.7107042 3.96712131,19.7707667 L3.96712131,29.8903292 L0.000257923497,29.8903292 L0.000257923497,0.347329167 Z" id="Fill-3" fill="#FFFFFF" mask="url(#mask-2)"></path>
                </g>
                <path d="M37.5912536,20.9763437 C35.0977781,20.8336146 32.7842044,21.0344687 30.5492973,21.7339062 C28.995953,22.2208646 28.4246525,23.1657187 28.5362044,24.6169062 C28.638729,25.9492604 29.5408164,26.9729062 30.9071661,27.3074479 C35.0797235,28.3278646 38.1380514,25.5320521 37.5912536,20.9763437 M37.6383246,17.9932396 C37.9961934,14.7220937 37.4100623,13.3393646 35.4491989,12.5275521 C32.8531989,11.4522396 30.4332317,12.2956979 28.3092317,15.0940937 C27.8417454,14.8977604 27.3317016,14.7091771 26.8455158,14.4721562 C26.430259,14.2693646 26.0420842,14.0116771 25.4875486,13.6881146 C26.2942044,11.9062604 27.4645322,10.6449479 29.1320077,9.91773958 C31.7428383,8.77913542 34.4381388,8.69259375 37.1186087,9.65488542 C39.8042372,10.6191146 41.413035,12.5992396 41.4968601,15.4325104 C41.638718,20.2471979 41.5355486,25.0696354 41.5355486,30.0386771 L38.0387508,30.0386771 C37.9233301,29.3747604 37.8027508,28.6856562 37.6647617,27.8938646 C37.4287617,28.0204479 37.2108164,28.0766354 37.0824995,28.2154896 C34.8785432,30.6031354 32.1896907,31.1256146 29.1623137,30.2627812 C26.514729,29.5084479 24.8698219,27.4372604 24.8027617,24.3049687 C24.7460186,21.6260521 26.2748601,19.7182604 29.1616689,18.9858854 C31.0148492,18.5150729 32.9531443,18.3684687 34.8598437,18.1295104 C35.7245322,18.0210104 36.605341,18.0390937 37.6383246,17.9932396" id="Fill-6" fill="#FFFFFF"></path>
                <path d="M78.2218131,19.8404521 C78.3565781,21.6739729 78.8937038,23.2272021 79.6391027,24.6984104 C81.4961519,28.3622229 88.0390262,28.3325146 89.9966656,24.7390979 C91.387518,22.1861187 91.6879989,19.5808271 90.865223,16.8231187 C89.9986,13.9188063 87.9526219,12.3022854 85.0858022,12.2305979 C81.9655727,12.1524521 79.877682,13.5616604 78.8917694,16.5538063 C78.5442175,17.6084521 78.437824,18.7425354 78.2218131,19.8404521 M95.0274634,19.8598271 C94.8572339,21.0488062 94.8166109,22.2752437 94.4954962,23.4215979 C93.1446219,28.2433896 89.2841519,30.8964729 84.1501847,30.6342646 C79.3334634,30.3882021 75.8121628,27.1816396 74.8829934,22.3398271 C74.2800973,19.1933271 74.7005126,16.2476812 76.3538022,13.5274312 C78.5190699,9.96436875 81.9223705,8.77861875 85.8505454,9.09378542 C92.3831027,9.61820208 95.1209607,14.8901396 95.0274634,19.8598271" id="Fill-8" fill="#FFFFFF"></path>
                <path d="M117.435148,30.1132063 L113.888699,30.1132063 C113.820995,29.5997688 113.693967,29.0727688 113.691388,28.5444771 C113.673333,24.8361021 113.70235,21.1270813 113.673978,17.4187063 C113.649475,14.1256021 112.105158,12.3521438 109.251235,12.2501021 C105.923377,12.1312688 103.540809,14.1294771 103.43377,17.3308729 C103.322863,20.6330188 103.395727,23.9409771 103.389279,27.2469979 C103.387344,28.1214563 103.388634,28.9965604 103.388634,30.0286021 L99.9646995,30.0286021 C99.5565355,28.4308104 99.4411148,12.9011021 99.8441202,9.55633125 L102.960481,9.55633125 C103.139093,10.2299354 103.31835,10.9080604 103.529202,11.7030813 C103.732962,11.6249354 103.959934,11.6042688 104.085672,11.4802688 C106.123913,9.47237292 108.562579,8.69156042 111.364918,9.16366458 C115.135115,9.79916458 117.288776,12.0653938 117.402262,15.8648313 C117.540896,20.5264563 117.435148,25.1958313 117.435148,30.1132063" id="Fill-10" fill="#FFFFFF"></path>
                <path d="M52.5906656,3.18751042 L52.5906656,9.40882292 L57.3944907,9.40882292 L57.3944907,12.4771771 C55.8888623,12.5436979 54.4012885,12.6095729 52.7892667,12.6812604 C52.7125344,13.2954479 52.5906656,13.8301979 52.589376,14.3662396 C52.5803486,17.7523438 52.5416601,21.1403854 52.6267749,24.5245521 C52.680294,26.6519271 53.3418678,27.2370521 55.4013869,27.3681563 C55.8018131,27.3939896 56.206753,27.3545938 56.607824,27.3700938 C56.8341519,27.3797813 57.0579005,27.4417813 57.3944907,27.4992604 L57.3944907,30.2756979 C56.4027749,30.4022813 55.4671574,30.6212188 54.5308951,30.6238021 C50.9509169,30.6341354 48.9571683,28.7437813 48.8688295,25.1697396 C48.7869388,21.8663021 48.8449716,18.5583438 48.8423923,15.2529688 C48.8417475,14.4624688 48.8417475,13.6719688 48.8417475,12.7329271 C47.4109169,12.6334688 46.1664361,12.5475729 44.7813869,12.4513438 L44.7813869,9.52571875 C46.0477913,9.46694792 47.2909825,9.40817708 48.7463158,9.33971875 L48.7463158,3.29213542 C50.0791355,2.82003125 51.2146437,2.91173958 52.5906656,3.18751042" id="Fill-12" fill="#FFFFFF"></path>
                <path d="M65.215118,30.0791708 L61.5783967,30.0791708 L61.5783967,9.587525 L64.9197956,9.587525 C65.0584295,10.3831917 65.1919049,11.1523792 65.3595552,12.114025 C67.1237519,9.84585833 69.1065388,8.4773375 72.0849104,9.32337917 L72.0849104,12.6959208 C71.3859377,12.6959208 70.7624077,12.7275667 70.1427464,12.6901083 C67.2153148,12.5163792 65.093894,15.1649417 65.1861016,17.7463375 C65.3150634,21.3681708 65.2164077,24.9977542 65.215118,28.6247542 L65.215118,30.0791708 Z" id="Fill-14" fill="#FFFFFF"></path>
            </g>
        </g>
    </g>
</svg>