<?xml version="1.0" encoding="UTF-8" standalone="no"?>
<svg width="137px" height="34px" viewBox="0 0 137 34" version="1.1" xmlns="http://www.w3.org/2000/svg" xmlns:xlink="http://www.w3.org/1999/xlink">
    <!-- Generator: Sketch 39.1 (31720) - http://www.bohemiancoding.com/sketch -->
    <title>rindle</title>
    <desc>Created with Sketch.</desc>
    <defs>
        <polygon id="path-1" points="17.7606992 34 0.0119116049 34 0.0119116049 0.0468 17.7606992 0.0468 35.5094868 0.0468 35.5094868 34"></polygon>
        <polygon id="path-3" points="77.5096071 25.8414 77.5096071 0.0684 0.156042024 0.0684 0.156042024 25.8414 77.5096071 25.8414"></polygon>
    </defs>
    <g id="Page-1" stroke="none" stroke-width="1" fill="none" fill-rule="evenodd">
        <g id="Desktop-HD" transform="translate(-1179.000000, -509.000000)">
            <g id="rindle" transform="translate(1179.000000, 509.000000)">
                <g id="Group-3">
                    <mask id="mask-2" fill="white">
                        <use xlink:href="#path-1"></use>
                    </mask>
                    <g id="Clip-2"></g>
                    <path d="M34.5097061,30.2884 C34.5097061,31.7794 33.3056413,32.993 31.8254259,32.993 L3.68366381,32.993 C2.20384543,32.993 0.999780703,31.7794 0.999780703,30.2884 L0.999780703,11.0314 C0.999780703,10.2808 1.30233547,9.5894 1.82307113,9.0908 L1.82307113,23.6636 C1.82307113,25.4782 3.28819853,26.9548 5.08923318,26.9548 L30.3922613,26.9548 C32.193693,26.9548 33.6582249,25.4782 33.6582249,23.6636 L33.6582249,9.0668 C34.1908721,9.57 34.5097061,10.279 34.5097061,11.0314 L34.5097061,30.2884 L34.5097061,30.2884 Z M2.82285183,6.935 C2.82285183,6.2354 3.14664896,5.5886 3.67294336,5.1644 L3.67294336,7.3206 C3.64336288,7.3206 3.61398092,7.3254 3.58400338,7.3264 C3.47699746,7.3288 3.36959449,7.3342 3.2627871,7.347 C3.21434658,7.3528 3.16570752,7.364 3.117267,7.3722 C3.02812849,7.3868 2.93958556,7.401 2.85163821,7.4226 C2.84210892,7.425 2.83257964,7.4256 2.82285183,7.4278 L2.82285183,6.935 L2.82285183,6.935 Z M4.67272407,2.9132 C4.67272407,1.8884 5.50058061,1.054 6.51822872,1.054 L28.9638614,1.054 C29.9811124,1.054 30.809366,1.8884 30.809366,2.9132 L30.809366,3.6744 C30.7930868,3.672 30.7779988,3.6732 30.7617196,3.6708 C30.6384345,3.6556 30.5151494,3.645 30.3922613,3.645 L5.08923318,3.645 C4.96654365,3.645 4.8436556,3.6556 4.72037049,3.6708 C4.70448835,3.6732 4.68880473,3.672 4.67272407,3.6744 L4.67272407,2.9132 L4.67272407,2.9132 Z M32.6588412,6.935 L32.6588412,7.4202 C32.650106,7.4178 32.6413708,7.4172 32.6332313,7.4156 C32.5448868,7.395 32.4565424,7.3816 32.3670069,7.3674 C32.3215443,7.3604 32.2772728,7.35 32.2320087,7.3446 C32.0970105,7.3288 31.9616153,7.3206 31.8254259,7.3206 L31.8091467,7.3206 L31.8091467,5.1656 C32.3354411,5.5898 32.6588412,6.2366 32.6588412,6.935 L32.6588412,6.935 Z M4.67272407,8.3278 L30.809366,8.3278 L30.809366,17.0952 C30.809366,18.1206 29.9811124,18.9544 28.9638614,18.9544 L6.51822872,18.9544 C5.50058061,18.9544 4.67272407,18.1206 4.67272407,17.0952 L4.67272407,8.3278 L4.67272407,8.3278 Z M5.08923318,4.6522 L30.3922613,4.6522 C30.5215022,4.6522 30.6529269,4.668 30.7873295,4.695 C30.794278,4.6962 30.8024176,4.6998 30.809366,4.7008 L30.809366,7.3206 L4.67272407,7.3206 L4.67272407,4.7008 C4.68006956,4.6998 4.68761357,4.6962 4.69476054,4.695 C4.82896462,4.668 4.95999227,4.6522 5.08923318,4.6522 L5.08923318,4.6522 Z M2.82285183,8.479 C2.82543268,8.4778 2.82821205,8.4772 2.8307929,8.4766 C2.95209274,8.4338 3.0749808,8.4034 3.19806738,8.3788 C3.23022872,8.3724 3.2627871,8.3672 3.29514696,8.3618 C3.41406448,8.343 3.53357759,8.3308 3.65348774,8.329 C3.66003913,8.329 3.66659051,8.3284 3.67294336,8.3284 L3.67294336,17.0952 C3.67294336,18.676 4.94927183,19.9618 6.51822872,19.9618 L28.9638614,19.9618 C30.5324212,19.9618 31.8091467,18.676 31.8091467,17.0952 L31.8091467,8.3278 L31.8254259,8.3278 C31.9504978,8.3278 32.0743785,8.3402 32.1982591,8.3588 C32.230222,8.3636 32.2621848,8.3694 32.2947431,8.3754 C32.4077049,8.3964 32.5210636,8.424 32.6328342,8.4608 C32.6413708,8.4638 32.6495104,8.4656 32.6588412,8.4678 L32.6588412,23.6636 C32.6588412,24.9226 31.6421857,25.9476 30.3922613,25.9476 L5.08923318,25.9476 C3.83950731,25.9476 2.82285183,24.9226 2.82285183,23.6636 L2.82285183,8.479 L2.82285183,8.479 Z M33.6582249,7.8322 L33.6582249,6.935 C33.6582249,5.673 32.9258597,4.5362 31.8091467,3.992 L31.8091467,2.9132 C31.8091467,1.3324 30.5324212,0.0468 28.9638614,0.0468 L6.51822872,0.0468 C4.94927183,0.0468 3.67294336,1.3324 3.67294336,2.9132 L3.67294336,3.992 C2.55563483,4.5356 1.82307113,5.6724 1.82307113,6.935 L1.82307113,7.8498 C0.694248038,8.5154 0,9.7024 0,11.0314 L0,30.2884 C0,32.3348 1.65233812,34 3.68366381,34 L31.8254259,34 C33.8571487,34 35.5094868,32.3348 35.5094868,30.2884 L35.5094868,11.0314 C35.5094868,9.7084 34.7894303,8.4908 33.6582249,7.8322 L33.6582249,7.8322 Z" id="Fill-1" fill="#FFFFFF" mask="url(#mask-2)"></path>
                </g>
                <path d="M52.3985543,11.6642 C51.5371467,11.9342 50.7170327,12.3328 49.9604473,12.8478 C49.4375278,13.2046 48.94538,13.6036 48.4895626,14.0414 L48.4895626,11.4104 L45.4137877,11.4104 L45.4137877,29.9804 L48.4895626,29.9804 L48.4895626,20.9688 C48.4953199,20.9172 48.5068344,20.8384 48.5227166,20.7282 C48.5634146,20.4602 48.581282,20.2586 48.5808849,20.127 C48.585451,20.0766 48.5987523,20.0062 48.6197962,19.9114 C48.6569207,19.73 48.6797512,19.6078 48.6918614,19.511 C48.8663664,18.791 49.1514508,18.1254 49.5421514,17.5312 C49.9529033,16.9054 50.4472349,16.3634 51.0126391,15.9158 C51.5778447,15.4704 52.2188876,15.1136 52.919687,14.857 C53.6171115,14.6026 54.3615868,14.4644 55.1326647,14.4468 L56.2598995,14.4204 L56.2598995,11.3742 L55.1642304,11.319 C54.2126917,11.2692 53.2837851,11.3864 52.3985543,11.6642" id="Fill-4" fill="#FFFFFF"></path>
                <polygon id="Fill-5" fill="#FFFFFF" points="59.5099809 29.9804 62.5252052 29.9804 62.5252052 11.2558 59.5099809 11.2558"></polygon>
                <path d="M83.9097124,15.6292 C83.2075232,14.3554 82.2547934,13.3136 81.0799121,12.5308 C79.9294496,11.7668 78.6801208,11.2558 77.3668663,11.012 C76.0546045,10.7688 74.6982698,10.7982 73.3466997,11.0976 C71.9762695,11.4016 70.7172129,11.994 69.6370289,12.8338 C69.3765618,13.0212 69.1353518,13.218 68.9132003,13.4232 L68.9132003,11.2558 L65.8368299,11.2558 L65.8368299,29.9804 L68.9132003,29.9804 L68.9132003,20.03 C68.9132003,19.5954 69.0065079,19.1256 69.1915348,18.6286 C69.4031644,18.0632 69.6394112,17.5552 69.8766506,17.1462 C70.3302843,16.4074 70.8732549,15.7956 71.4912687,15.328 C72.1229808,14.8522 72.7987658,14.4954 73.501352,14.268 C74.1551006,14.0566 74.8356503,13.9494 75.5277145,13.9494 L75.6867345,13.9522 C76.4357759,13.9698 77.1725086,14.1122 77.8774771,14.3742 C78.577681,14.6366 79.2338119,15.0222 79.8258186,15.5214 C80.4132593,16.0182 80.9250612,16.647 81.3516952,17.397 C81.595089,17.82 81.8092994,18.3116 81.9883705,18.86 C82.1535447,19.3704 82.2381171,19.8574 82.2381171,20.3086 L82.2381171,29.9804 L85.2531429,29.9804 L85.2531429,19.9376 C85.2531429,19.1654 85.1111962,18.3808 84.8286927,17.6038 C84.5708064,16.8914 84.2555459,16.2164 83.9097124,15.6292" id="Fill-6" fill="#FFFFFF"></path>
                <path d="M103.933716,20.9438 C103.932525,20.963 103.927164,20.9816 103.926767,21 C103.91426,21.2836 103.891032,21.5672 103.845768,21.8524 C103.759608,22.3586 103.609522,22.8668 103.399679,23.3648 C103.197777,23.8454 102.940288,24.2812 102.611528,24.689 C101.971279,25.5332 101.19901,26.1868 100.319536,26.6302 C99.4295409,27.0778 98.5059944,27.325 97.5747055,27.3622 C96.643615,27.3988 95.7002159,27.2278 94.7709122,26.8528 C93.9623128,26.529 93.2283594,26.0356 92.5879121,25.389 C92.5005603,25.3032 92.4142012,25.2118 92.3373713,25.1254 C91.9440898,24.6812 91.6115575,24.1816 91.3473184,23.645 C91.0860572,23.1086 90.9006333,22.5434 90.7964067,21.9626 C90.783701,21.891 90.7833039,21.816 90.7719879,21.7434 C90.7684144,21.723 90.7598778,21.7032 90.7565028,21.682 C90.6274605,20.9848 90.6207105,20.2958 90.7459809,19.5496 C90.8611264,18.7938 91.0989615,18.0866 91.4408245,17.4316 C91.4684198,17.3694 91.4978017,17.3138 91.5311542,17.267 C91.5754257,17.1896 91.6137413,17.1076 91.6613878,17.0308 C92.1314991,16.2662 92.7526893,15.6022 93.4981572,15.0602 C93.9146663,14.7632 94.3776307,14.5106 94.8755358,14.3086 C95.3559705,14.1128 95.8433537,13.988 96.3621041,13.9342 C97.407943,13.7928 98.4116942,13.8814 99.3459611,14.1936 C100.289162,14.5106 101.115629,14.9946 101.799553,15.6316 C102.484272,16.2684 103.031412,17.0618 103.425289,17.9888 C103.768939,18.7938 103.942252,19.6656 103.942252,20.5786 C103.942252,20.7024 103.93987,20.8282 103.933716,20.9438 L103.933716,20.9438 Z M103.923194,4.2684 L103.923194,13.269 C103.320665,12.7412 102.656792,12.256 101.936338,11.823 C100.779324,11.1262 99.5262234,10.7484 98.2294467,10.7008 C97.4242222,10.6564 96.6162183,10.6844 95.8246922,10.7852 C94.9779756,10.893 94.149722,11.1432 93.3784456,11.5194 C92.3373713,12.0082 91.3963545,12.6738 90.5774317,13.4988 C89.7642662,14.3184 89.0966207,15.2542 88.5927598,16.2814 C88.0857225,17.3162 87.7623224,18.4258 87.6358609,19.5762 C87.5068185,20.7496 87.6183905,21.941 87.9717681,23.1286 C88.174464,23.7872 88.4361222,24.4394 88.7488018,25.068 C89.0813341,25.739 89.5036005,26.3582 90.0165936,26.923 C90.7833039,27.7418 91.6405424,28.438 92.5664712,28.995 C93.5219804,29.5712 94.605738,29.9696 95.8002734,30.1816 C96.2924212,30.2614 96.7972747,30.3024 97.2997459,30.3024 C97.6743659,30.3024 98.057324,30.2802 98.4377012,30.2356 C99.322535,30.1304 100.184538,29.9148 101.001079,29.589 C101.819009,29.2652 102.594851,28.8298 103.307165,28.2962 C103.521971,28.1368 103.727049,27.968 103.923194,27.7886 L103.923194,29.9804 L106.989836,29.9804 L106.99877,28.8258 C107.058527,20.1966 106.989836,4.2684 106.989836,4.2684 L103.923194,4.2684 L103.923194,4.2684 Z" id="Fill-7" fill="#FFFFFF"></path>
                <g id="Group-11" transform="translate(58.565391, 4.200000)">
                    <mask id="mask-4" fill="white">
                        <use xlink:href="#path-3"></use>
                    </mask>
                    <g id="Clip-9"></g>
                    <path d="M2.40157807,0.0684 C1.16158,0.0684 0.156042024,1.0816 0.156042024,2.3308 C0.156042024,3.58 1.16158,4.593 2.40157807,4.593 C3.64157614,4.593 4.64731264,3.58 4.64731264,2.3308 C4.64731264,1.0816 3.64157614,0.0684 2.40157807,0.0684" id="Fill-8" fill="#FFFFFF" mask="url(#mask-4)"></path>
                    <path d="M76.72225,12.0574 C76.1453312,10.7672 75.3462611,9.6608 74.3462819,8.7696 C73.3570231,7.8896 72.2137075,7.2186 70.9490921,6.7792 C69.6813003,6.338 68.3678474,6.161 67.0359314,6.2542 C65.7063978,6.3474 64.4036653,6.7236 63.1616819,7.3716 C61.9014341,8.0302 60.7851182,9.0198 59.8242488,10.3434 C59.365652,11.0126 58.9723705,11.7702 58.6553233,12.5928 C58.3245777,13.4454 58.1341906,14.3144 58.0859486,15.2014 C58.0500152,16.2 58.141139,17.2024 58.3539597,18.1782 C58.6203826,19.4008 59.0740162,20.5422 59.785536,21.5742 C59.9937906,21.8766 60.2195155,22.1664 60.4579461,22.4454 C61.2232668,23.2622 62.0807038,23.9582 63.0076252,24.5172 C63.2535998,24.6656 63.5083096,24.7996 63.7699679,24.9238 C64.538862,25.2942 65.3776375,25.561 66.2799416,25.7208 C66.7722879,25.8012 67.2771414,25.8414 67.7798111,25.8414 C68.1538355,25.8414 68.5369922,25.82 68.9173694,25.7746 C69.801409,25.6704 70.6642063,25.4548 71.4807468,25.129 C72.2984784,24.8044 73.074321,24.3696 73.7866349,23.836 C73.9786103,23.6934 74.1596667,23.5398 74.3369511,23.3824 L72.0896283,21.1184 C71.7428021,21.4106 71.378704,21.6798 70.9828417,21.8954 C70.3558942,22.2386 69.6793151,22.4794 68.9727584,22.6102 C68.2799,22.7394 67.5959754,22.7466 66.8556691,22.62 C66.0599739,22.4968 65.3178809,22.2344 64.6363386,21.8544 C63.7614312,21.3356 63.0262867,20.6816 62.461081,19.8954 C61.8573612,19.0598 61.4595136,18.154 61.2780601,17.2036 C61.0958126,16.2516 61.1271798,15.263 61.3721618,14.2686 C61.6117836,13.2954 62.1027402,12.3838 62.839076,11.554 C63.3439295,10.974 63.9557889,10.4794 64.6571839,10.0816 C65.3353513,9.6978 66.0659297,9.4592 66.8455443,9.3708 C67.5582553,9.2818 68.2834735,9.2918 69.0053167,9.3984 C69.6886458,9.5004 70.3082478,9.7242 70.903828,10.0834 C72.6230697,11.1146 73.7100036,12.519 74.2043352,14.3578 L64.4330472,14.3578 L64.4330472,17.5488 L77.4508431,17.5488 L77.4986881,16.438 C77.568371,14.8382 77.3067127,13.3646 76.72225,12.0574" id="Fill-10" fill="#FFFFFF" mask="url(#mask-4)"></path>
                </g>
                <polygon id="Fill-12" fill="#FFFFFF" points="110.525796 29.9804 113.601373 29.9804 113.601373 4.2684 110.525796 4.2684"></polygon>
            </g>
        </g>
    </g>
</svg>