<?xml version="1.0" encoding="UTF-8" standalone="no"?>
<svg width="102px" height="102px" viewBox="0 0 102 102" version="1.1" xmlns="http://www.w3.org/2000/svg" xmlns:xlink="http://www.w3.org/1999/xlink">
    <!-- Generator: Sketch 39.1 (31720) - http://www.bohemiancoding.com/sketch -->
    <title>tribeca</title>
    <desc>Created with Sketch.</desc>
    <defs>
        <polygon id="path-1" points="48.2487161 0.0502713964 0.00563796611 0.0502713964 0.00563796611 48.4349575 48.2487161 48.4349575 48.2487161 0.0502713964"></polygon>
    </defs>
    <g id="Page-1" stroke="none" stroke-width="1" fill="none" fill-rule="evenodd">
        <g id="Desktop-HD" transform="translate(-687.000000, -477.000000)">
            <g id="tribeca" transform="translate(687.000000, 477.000000)">
                <g id="Group-3" transform="translate(53.053176, 53.389593)" fill="#FFFFFF">
                    <path d="M44.848451,0.00175564502 L48.3256517,0.00175564502 C47.4673332,13.4810843 42.336784,24.9838992 32.6367529,34.3054322 C23.5629539,43.0250787 12.6441497,47.6169896 0.0794177042,48.384335 L0.0794177042,44.9046465 C12.1122533,44.1074124 22.4899492,39.5765636 31.0106986,31.029998 C39.5210422,22.4937094 44.0444651,12.0955806 44.848451,0.00175564502" id="Fill-1"></path>
                </g>
                <path d="M101.315573,48.4934933 C100.246407,48.4934933 99.2102491,48.4939215 98.1741769,48.4927225 C98.0909294,48.4925512 98.0077673,48.4809896 97.9018315,48.4731106 C97.1130281,36.4084037 92.5884963,25.9947739 84.072438,17.4491503 C75.5539915,8.90095753 65.1767221,4.36719696 53.107807,3.56568078 L53.107807,1.87084103 L53.107807,0.0906169754 C65.0701893,0.801353464 75.5467415,5.04127901 84.4656457,13.0168746 C96.7846443,24.0327335 100.968254,38.2225417 101.315573,48.4934933" id="Fill-4" fill="#FFFFFF"></path>
                <path d="M0,53.3936955 L3.48112422,53.3936955 C4.26779535,65.4567752 8.79497125,75.8734025 17.3130766,84.4191117 C25.8316937,92.9652491 36.2115219,97.497982 48.2365104,98.2927325 C48.2498164,98.3775173 48.2737841,98.459476 48.2739547,98.5415203 C48.2765135,99.5948216 48.2756606,100.648123 48.2756606,101.776874 C35.8549056,101.017836 25.0400755,96.5333193 16.0095208,87.9932624 C6.11373881,78.6349037 0.885271563,67.0335157 0,53.3936955" id="Fill-6" fill="#FFFFFF"></path>
                <g id="Group-10" transform="translate(0.000000, 0.035113)">
                    <mask id="mask-2" fill="white">
                        <use xlink:href="#path-1"></use>
                    </mask>
                    <g id="Clip-9"></g>
                    <path d="M3.48079157,48.4349575 L0.00563796611,48.4349575 C0.843571084,35.1641652 5.83944024,23.7909255 15.2963821,14.5158957 C24.4318489,5.55611121 35.4852478,0.839849193 48.2487161,0.0502371399 L48.2487161,3.53240917 C36.2151981,4.32673149 25.8366493,8.85980693 17.3165822,17.4054305 C8.80589748,25.9417191 4.28110982,36.3418177 3.48079157,48.4349575" id="Fill-8" fill="#FFFFFF" mask="url(#mask-2)"></path>
                </g>
                <path d="M90.1798992,61.8855535 C86.2011669,77.4784218 70.7296837,92.7485083 49.3161596,92.0525877 C28.8922222,91.388697 14.810357,76.308734 11.2129764,61.8900925 C11.5169659,61.8900925 11.8177143,61.851297 12.0993568,61.9082484 C12.2203043,61.9327418 12.3382666,62.141792 12.3949022,62.2910646 C13.055508,64.0342061 13.5822015,65.8401225 14.3758668,67.519033 C19.6620784,78.7027487 28.2298252,86.0803972 40.0756099,89.5476677 C44.9028518,90.9606622 49.8522355,91.3210404 54.8463135,90.7799592 C63.194768,89.8755023 70.5641271,86.6589037 76.8970728,81.1160326 C82.7410251,76.0011107 86.7696547,69.6953476 88.9898704,62.2334281 C89.0702178,61.9631444 89.1920183,61.8596042 89.4637666,61.8817853 C89.6880058,61.9001125 89.9149745,61.8855535 90.1798992,61.8855535" id="Fill-11" fill="#FFFFFF"></path>
                <path d="M11.2306323,39.8090196 C15.4528804,24.054375 30.1705308,10.3981973 49.3621333,9.80033594 C69.6918203,9.16684783 85.6250025,23.1243114 90.1751227,39.8701674 C89.8397447,39.8701674 89.5194639,39.8977439 89.2093331,39.8536387 C89.1144856,39.8400217 89.0127293,39.6400495 88.9727262,39.5076481 C87.7760444,35.5493109 86.0623074,31.8321394 83.7057058,28.4385204 C77.5117902,19.5191586 69.1320325,13.8778857 58.5116738,11.6460755 C54.5438592,10.8122726 50.5286208,10.6087891 46.511506,11.0892363 C34.2232134,12.5591822 24.5635266,18.4626028 17.5256219,28.6688096 C15.3123151,31.8783 13.6810579,35.3870208 12.5444234,39.1235473 C12.2973253,39.935683 12.111298,40.0332283 11.2306323,39.8090196" id="Fill-13" fill="#FFFFFF"></path>
                <path d="M29.3930288,61.8859731 C29.7775364,61.8859731 30.1072849,61.8490617 30.4215098,61.9029301 C30.5601134,61.9266527 30.7006787,62.1155772 30.7838409,62.2618524 C32.2095383,64.7679715 34.0255434,66.9459133 36.2696416,68.7466056 C40.8004852,72.3822467 45.9705257,74.1867929 51.7718308,73.8415731 C60.083694,73.3468238 66.3313451,69.3654491 70.6070729,62.2234852 C70.7602618,61.9675892 70.9199331,61.8545428 71.2100197,61.8794644 C71.4477354,61.8999326 71.6886071,61.8836608 72.0206585,61.8836608 C70.6975703,64.5034257 68.9823833,66.7264149 66.8837123,68.6496598 C63.0174834,72.1928084 58.4742722,74.2976983 53.2708815,74.8443462 C41.9876139,76.0296207 33.1013776,69.4156349 29.3930288,61.8859731" id="Fill-15" fill="#FFFFFF"></path>
                <path d="M29.465623,39.8730878 C32.5526013,33.472263 39.9091662,27.4337862 49.2749282,26.9156568 C60.3257683,26.3043497 68.55754,33.0265861 71.9303402,39.8694052 C71.5680945,39.8694052 71.2308401,39.9054602 70.908171,39.8525339 C70.7690557,39.8296677 70.6267844,39.6418565 70.5420017,39.4960951 C68.7129466,36.349808 66.302183,33.7505113 63.266296,31.7555847 C59.1094688,29.024058 54.5370015,27.7004729 49.5743972,28.0151188 C41.3368255,28.5373589 35.1200509,32.463495 30.8414232,39.5211024 C30.6773166,39.7918143 30.5061305,39.9082007 30.1990703,39.8777124 C29.9649369,39.8543324 29.7266241,39.8730878 29.465623,39.8730878" id="Fill-17" fill="#FFFFFF"></path>
                <path d="M26.3760772,50.246963 C27.1100364,50.1207278 27.8868133,50.0534138 28.6239284,49.8448775 C29.6949713,49.5417932 30.3415889,48.6545501 30.4019774,47.5881457 C30.4700424,46.3864281 29.9622843,45.4859963 28.9113708,44.9968992 C28.1978824,44.6649539 27.4367996,44.5999522 26.6654815,44.701437 C26.5591192,44.7153966 26.3892979,44.8758882 26.3883597,44.9700079 C26.3715566,46.6897693 26.3760772,48.4097019 26.3760772,50.246963 M27.905834,55.6016803 L23.1025598,55.6016803 C23.0934333,55.5700787 23.0842215,55.5384771 23.0750097,55.5067898 C23.2454281,55.455662 23.4159318,55.4047055 23.5863502,55.353492 C24.2696444,55.14821 24.5044601,54.9179208 24.5150367,54.2071843 C24.5558927,51.4543329 24.5812252,48.700882 24.5760222,45.9477737 C24.5744869,45.1030944 24.3215035,44.8683518 23.4915027,44.6633267 C23.384117,44.6367779 23.2766459,44.610743 23.1644836,44.5072028 C23.2602694,44.4926437 23.3560551,44.4650673 23.4518408,44.4650673 C25.2284398,44.4650673 27.0063183,44.4322667 28.7811261,44.4904171 C29.4022406,44.5107997 30.0532935,44.670178 30.6246813,44.9188801 C31.5774208,45.3337262 32.1123026,46.115031 32.1807941,47.1882012 C32.2540621,48.3357935 31.7497157,49.1695108 30.8037998,49.752128 C30.4561394,49.9662311 30.0702671,50.1173878 29.7869188,50.255784 C30.4895749,51.2238724 31.2123604,52.1965854 31.9103253,53.1868548 C32.9672093,54.6863469 32.959874,54.6914854 34.745429,55.5735043 C34.5839665,55.5950859 34.4827219,55.6199219 34.3814774,55.6202644 C33.6139122,55.6230906 32.8443,55.5870357 32.0796348,55.6334532 C31.6283417,55.6608584 31.3615405,55.4775862 31.1338895,55.1362203 C30.5966194,54.330422 30.0775172,53.5105786 29.5043381,52.7311579 C29.0585038,52.1249893 28.5585928,51.5559034 28.0519435,50.9985503 C27.6025268,50.5042292 27.0108389,50.3342314 26.2915504,50.3872433 C26.2915504,50.7850468 26.2883945,51.1794246 26.2922328,51.5736311 C26.3001651,52.3726637 26.2959857,53.1723814 26.3262653,53.9706433 C26.3620037,54.9120116 26.7212641,55.2941427 27.6506329,55.4454707 C27.7413862,55.4602866 27.829666,55.4900898 27.9190547,55.5127847 C27.9147046,55.5425022 27.9102693,55.5721341 27.905834,55.6016803" id="Fill-19" fill="#FFFFFF"></path>
                <path d="M46.0707297,49.8364846 C46.8185065,49.7832158 47.5474332,49.7950343 48.2507716,49.6658873 C49.2208259,49.4878392 49.9384085,48.9244056 50.2085362,47.9285695 C50.4754227,46.9449801 50.2606511,46.0651022 49.5143243,45.3499124 C48.9309952,44.7909321 48.1799772,44.660158 47.4248651,44.6557903 C45.8458934,44.6466267 46.1167887,44.6103148 46.0790032,45.8926208 C46.0412178,47.1699596 46.0707297,48.4493538 46.0707297,49.8364846 M46.0988768,49.9873845 C46.0988768,51.5217326 46.0724355,52.9582784 46.1115857,54.3930258 C46.1277917,54.9842927 46.4620608,55.2977396 47.0675664,55.3509228 C47.5990364,55.3975116 48.1511477,55.4035922 48.6738323,55.3112709 C49.5787216,55.15155 50.3280338,54.6993644 50.7073384,53.8061265 C51.3902061,52.1979556 50.3917488,50.4158475 48.5945085,50.123554 C47.776449,49.9905532 46.9310099,50.0273789 46.0988768,49.9873845 M49.7845373,49.7372264 C50.1977891,49.8709124 50.598332,49.9688859 50.9732866,50.1277504 C52.1278329,50.6171043 52.7689916,51.5802255 52.7231032,52.7077778 C52.6749118,53.8912538 51.8837201,54.9643383 50.7372768,55.3302833 C50.309269,55.4669667 49.851664,55.5727336 49.4058297,55.5800131 C47.261782,55.6150403 45.1171372,55.611786 42.9728336,55.6204357 C42.9179892,55.6206927 42.8632302,55.6027936 42.7349473,55.5806982 C42.8467683,55.5109006 42.900845,55.4578031 42.9646453,55.4402466 C44.0286942,55.1462403 44.2764747,54.8771556 44.2952394,53.769729 C44.3317455,51.6172225 44.3373749,49.4641166 44.3396779,47.3113532 C44.3402749,46.7858587 44.3162219,46.2545406 44.2370686,45.735983 C44.1218357,44.9807987 43.8969142,44.7838239 43.1558756,44.6329241 C43.0895165,44.6194784 43.0247779,44.5980681 42.9551776,44.5056612 C43.0512192,44.4915304 43.1472608,44.4651529 43.2433024,44.4650673 C45.0042926,44.4636114 46.7655386,44.4545334 48.5264435,44.4709765 C49.3880031,44.4790268 50.2058921,44.6666667 50.9618572,45.1253611 C52.4568138,46.0327298 52.5636878,48.5248037 50.6936913,49.3777902 C50.4040312,49.5099346 50.1010651,49.6130467 49.7845373,49.7372264" id="Fill-21" fill="#FFFFFF"></path>
                <path d="M54.8510644,44.4844136 C54.9843797,44.4771341 55.1178656,44.4635172 55.2511808,44.4635172 C57.8229805,44.4626608 60.3946948,44.4677992 62.9664091,44.4576079 C63.2465162,44.4564089 63.3929669,44.522524 63.4947232,44.8047118 C63.7168301,45.4202152 63.9874695,46.017991 64.2350794,46.6243308 C64.2852326,46.747226 64.3214827,46.8758591 64.36413,47.0019229 C64.3312063,47.0222199 64.2981973,47.0426025 64.2651031,47.0629851 C64.070461,46.8498241 63.8799984,46.6325524 63.680324,46.4242729 C63.0386535,45.7550724 62.4101184,44.9967194 61.4510671,44.8644037 C60.4038213,44.7197557 59.3317548,44.7574378 58.2708618,44.709907 C57.9903283,44.6972321 57.9860635,44.8933505 57.9818841,45.0782498 C57.960134,46.0334064 57.9417957,46.9887342 57.9299398,47.944062 C57.9225191,48.5404675 57.9284897,49.1370442 57.9284897,49.7866329 C59.6737004,49.7791821 61.4119169,49.8895736 61.6958623,47.4089757 C61.7399595,47.4637004 61.7838862,47.5184251 61.8279835,47.5730642 L61.8279835,52.3891839 C61.3869256,51.7032834 61.255828,50.8132142 60.4633568,50.3781568 C59.6887122,49.9529481 58.8433585,50.0422719 58.0283696,50.0366196 C57.9915224,50.0831228 57.9590252,50.1050469 57.9592811,50.1266285 C57.9780458,51.5940908 57.9907547,53.0617244 58.0262372,54.5288442 C58.036302,54.9472872 58.2782825,55.1950472 58.7061197,55.2764064 C59.8702189,55.4977033 61.0303946,55.4718396 62.1668585,55.1605338 C63.059636,54.9160281 63.6566974,54.2511953 64.172985,53.5159655 C64.3726594,53.2316366 64.5612456,52.9394288 64.8532939,52.6810492 C64.8430586,52.79401 64.8481762,52.9109102 64.8204555,53.019332 C64.6265811,53.777685 64.4262244,54.5343252 64.2274029,55.291308 C64.1799792,55.4718396 64.1435584,55.6258226 63.8819602,55.6249661 C60.883944,55.6150318 57.8860131,55.6181149 54.8880822,55.6163164 C54.8380143,55.6163164 54.7878612,55.5984174 54.7207344,55.5083228 C54.8279496,55.4725248 54.9343118,55.4342432 55.0422093,55.4012713 C55.8489247,55.1545389 56.0839963,54.8845122 56.1588849,54.0510518 C56.2022145,53.5688917 56.2250734,53.0834773 56.2279734,52.5993475 C56.2392323,50.6734477 56.2390617,48.7474623 56.2428999,46.8215625 C56.2431558,46.7074028 56.2437529,46.5931574 56.2398293,46.4791689 C56.1853262,44.9013151 56.076661,44.8820458 54.8510644,44.4844136" id="Fill-23" fill="#FFFFFF"></path>
                <path d="M77.4193736,44.4577364 L77.4193736,48.0192122 C77.3820146,48.0302599 77.3445703,48.0414789 77.3072113,48.0525266 C77.2502346,47.9106191 77.1918079,47.7693111 77.1365371,47.6268041 C76.5941494,46.2295676 75.6951454,45.1733544 74.2502566,44.678862 C72.6447584,44.1294736 70.9438155,44.6644743 69.8567372,46.0238574 C68.3686042,47.8850124 68.0840617,51.0042369 69.2393757,53.0986786 C70.1511738,54.7516398 71.5551212,55.6145607 73.4484884,55.4153593 C75.2320816,55.2277193 76.4134103,54.1625138 77.092781,52.518545 C77.1616989,52.3520584 77.2108286,52.177436 77.2725818,51.9962192 C77.4432561,52.1883124 77.4819798,54.4830689 77.3261467,55.4332583 C77.1589695,55.2594066 77.0217307,55.1389094 76.9115302,54.9971732 C76.7057999,54.7328844 76.5271932,54.7067638 76.1980417,54.8693965 C73.716569,56.0955218 71.2371433,56.0497038 68.8998183,54.556806 C66.8851623,53.2698754 66.1234825,50.5612149 66.9451243,48.168913 C67.7734192,45.7571706 69.7668368,44.3199397 72.4189838,44.2247923 C73.8259165,44.1743496 75.1565107,44.4347845 76.3773308,45.1785785 C76.4751635,45.2380992 76.6784203,45.1838026 76.8024385,45.1215415 C76.9215096,45.0617639 77.0021982,44.9237103 77.0981545,44.8186285 C77.1798667,44.7292191 77.2593611,44.6378399 77.4193736,44.4577364" id="Fill-25" fill="#FFFFFF"></path>
                <path d="M17.2721779,44.862768 C17.2721779,45.8020809 17.2706426,46.6720244 17.2724337,47.5419679 C17.2769544,49.6686107 17.2634778,51.7955961 17.296828,53.921725 C17.3130339,54.9580694 17.4940288,55.1308077 18.4833597,55.3941545 C18.6025161,55.4258417 18.720649,55.4617254 18.8319583,55.5711749 L13.8937482,55.5711749 C13.8887158,55.5493364 13.8835982,55.5274979 13.8784805,55.505745 C13.9906428,55.4805665 14.102208,55.4522192 14.2150526,55.4307233 C15.1713745,55.2488213 15.527479,54.8417686 15.5517026,53.8635746 C15.5802763,52.7078463 15.604244,51.5519468 15.6111529,50.3961329 C15.6211323,48.7404312 15.6138823,47.0846438 15.6139676,45.4289421 L15.6139676,44.8446977 C14.5691953,44.9028481 13.5374731,44.695425 12.5633247,45.07139 C12.204576,45.2098718 11.8811393,45.5329962 11.6326765,45.8450728 C11.2730749,46.2965733 10.9961236,46.8147027 10.6117013,47.3079105 C10.7601991,46.3459026 10.9086115,45.3839804 11.0505415,44.4644507 C14.6554281,44.6474659 18.2233821,44.6806947 21.8791041,44.4222295 C22.0260665,45.3135834 22.1901731,46.30882 22.3542798,47.3040566 C22.3185414,47.319472 22.2827177,47.3347162 22.2469793,47.3500459 C22.1441141,47.166003 22.0305871,46.9870128 21.9400897,46.7969749 C21.2961163,45.444957 20.318556,44.6699896 18.7393285,44.8544608 C18.2804441,44.9080722 17.8101302,44.862768 17.2721779,44.862768" id="Fill-27" fill="#FFFFFF"></path>
                <path d="M51.1365062,85.7925828 C52.422406,85.9008333 53.2166683,85.3844167 53.4858577,84.2559224 C53.711547,83.3098438 53.675638,82.3580273 53.3437571,81.4394395 C52.9456024,80.3378365 52.0596485,79.8835099 50.8720079,80.1642418 C50.9596054,82.0263388 51.0473734,83.8963149 51.1365062,85.7925828 M49.6065788,78.9889873 C50.4092853,78.9889873 51.1609004,78.9465949 51.9060331,78.9986648 C53.101009,79.0822506 53.9746805,79.7106859 54.4263148,80.8169992 C54.9822644,82.1787802 55.0578353,83.5892055 54.53498,84.9843866 C54.1181458,86.0966091 53.2802127,86.7249588 52.1085222,86.8572744 C51.4222427,86.9347797 50.7280308,86.9414598 49.9813628,86.983167 C49.8569182,84.3291456 49.7350323,81.730791 49.6065788,78.9889873" id="Fill-29" fill="#FFFFFF"></path>
                <path d="M65.665144,81.4074868 C65.460096,80.0244667 64.9939616,78.6827257 63.8313976,77.708043 C63.023147,77.030364 62.0540309,77.3820925 61.8487271,78.3846087 C61.7982327,78.6309984 61.7769944,78.8975139 61.8117093,79.145017 C61.9631923,80.2228118 62.38395,81.1993786 63.042253,82.057675 C63.2693922,82.3537367 63.5717612,82.6260757 63.8967332,82.8051515 C64.6224188,83.2052673 65.3719868,82.8445465 65.5826642,82.0384913 C65.6288085,81.8617278 65.6317938,81.6734884 65.665144,81.4074868 M66.8664316,81.3482231 C66.8885229,82.9935622 65.763915,84.1860306 64.2242641,84.1039006 C63.4953373,84.0650195 62.8804493,83.7264798 62.4016913,83.194134 C61.2924364,81.9607291 60.6246658,80.5193874 60.5993333,78.8386784 C60.5839803,77.8101273 61.0131822,76.9806921 61.9632776,76.5063254 C62.924376,76.0265633 63.8447036,76.1640174 64.6721455,76.821742 C65.8047711,77.7219169 66.3382881,78.9902634 66.7129015,80.3383418 C66.803399,80.6638641 66.817302,81.010968 66.8664316,81.3482231" id="Fill-31" fill="#FFFFFF"></path>
                <path d="M40.4312112,44.5739001 C40.2244573,44.6355618 40.0169358,44.6943117 39.8112908,44.7595703 C39.3895948,44.8932562 39.1414731,45.1904313 39.0864582,45.6219774 C39.0380109,46.0029952 39.0159196,46.3896653 39.0146402,46.7740231 C39.0062813,49.1432018 39.0027843,51.5125518 39.0069637,53.8818162 C39.0089255,55.0092829 39.1554614,55.1790237 40.2664222,55.4480228 C40.318793,55.4606977 40.3677521,55.4872465 40.4138964,55.5716887 L35.8530292,55.5716887 C35.8458644,55.5522482 35.8388703,55.5329789 35.8317908,55.5135384 C35.9804591,55.4628388 36.1277627,55.4072576 36.2780516,55.3621247 C36.8644513,55.1857894 37.2484471,54.8442522 37.2598766,54.1836158 C37.2768502,53.2136434 37.3099444,52.2437566 37.3150621,51.2736128 C37.3236768,49.6322988 37.3175356,47.9908992 37.3142945,46.3495852 C37.312418,45.4184082 37.2899002,44.8385315 35.9604149,44.6148366 C35.9298795,44.6096125 35.9052294,44.5689329 35.8242849,44.4978507 L40.4168817,44.4978507 C40.4216582,44.5232005 40.4264347,44.5485503 40.4312112,44.5739001" id="Fill-33" fill="#FFFFFF"></path>
                <path d="M42.5430858,77.8998793 C42.9351846,77.9821806 43.2934215,78.0572879 43.7070998,78.1441281 C43.5467461,78.9282591 43.3933013,79.6894383 43.2347389,80.4495898 C43.0312262,81.4253858 42.8145782,82.398527 42.6236891,83.3768067 C42.572683,83.6387832 42.5673947,83.9175453 42.5900831,84.1844034 C42.630598,84.6627952 42.9743348,85.0277125 43.4387633,85.1387035 C43.9757774,85.2670797 44.4868621,85.1284266 44.6860247,84.6585132 C44.9326964,84.0761529 45.0874206,83.4484027 45.2273036,82.8278465 C45.5369226,81.4541613 45.8122532,80.0725971 46.1103575,78.65258 C46.5027974,78.7359946 46.869052,78.8137568 47.2776126,78.900597 C47.0358027,80.0660884 46.8036311,81.2051166 46.5621624,82.3420038 C46.4082911,83.066186 46.2802641,83.7992748 46.0708661,84.5074421 C45.6022582,86.0926611 44.231405,86.7179276 42.7138454,86.0778451 C41.7658824,85.6779863 41.2512154,84.8398156 41.3829101,83.6912812 C41.4896988,82.7604468 41.7166675,81.8428868 41.9017565,80.9218154 C42.0870162,80.0001446 42.2863494,79.0814713 42.4800532,78.1615989 C42.494468,78.0929147 42.5128063,78.0250868 42.5430858,77.8998793" id="Fill-35" fill="#FFFFFF"></path>
                <path d="M69.8186703,80.3882364 L69.8186703,79.233964 C70.0825714,79.233964 70.3357255,79.263082 70.579156,79.226342 C70.8553396,79.1846347 71.1404791,79.1211745 71.3903919,79.0011912 C71.8964442,78.758227 72.1182952,78.2934521 72.0121035,77.8126623 C71.9115413,77.3574792 71.5269484,77.0282744 70.9751783,77.0215944 C70.3947493,77.0146574 69.8138085,77.0838555 69.2326971,77.1091197 C68.6283856,77.1353259 68.035333,77.0860822 67.5269778,76.7074624 C66.4422024,75.8996944 66.3323431,74.4104792 67.2887503,73.4537811 C67.9537914,72.7886058 68.754792,72.5174657 69.7042051,72.6335952 L69.7042051,73.7043673 C69.2265559,73.8145019 68.7843892,73.8610908 68.3884522,74.0222675 C67.9399737,74.2049403 67.7504494,74.6477054 67.8306262,75.068632 C67.9090118,75.4797098 68.2647752,75.8007788 68.7506979,75.8137106 C69.2881385,75.827927 69.8277968,75.7908444 70.3656639,75.7594141 C71.3116651,75.7041755 72.1848249,75.8205619 72.7891364,76.677231 C73.4098244,77.556852 73.3693095,78.6342186 72.6433681,79.4265711 C71.8844177,80.2550643 70.9294605,80.5261188 69.8186703,80.3882364" id="Fill-37" fill="#FFFFFF"></path>
                <path d="M27.7861829,77.5077196 C28.1764052,77.4020384 28.5280744,77.3067197 28.9037967,77.2049779 C28.9483204,77.3837111 28.9590675,77.5472859 29.0280707,77.6805436 C29.2210069,78.0533398 29.386137,78.4603069 29.6593353,78.7663886 C29.9632396,79.1068981 30.3997768,79.1692449 30.832817,78.9410967 C31.2253422,78.7343588 31.4262108,78.3607918 31.3353721,77.8627025 C31.2644924,77.4741483 31.1148006,77.0998961 30.9961559,76.7205912 C30.8731613,76.3271554 30.7196312,75.9413417 30.6247837,75.5413972 C30.4037857,74.6100489 30.7079458,73.8453585 31.4625462,73.2856075 C32.205376,72.7346775 32.996653,72.7681632 33.7828124,73.211956 C34.5907218,73.6679955 35.1329389,74.5 35.1499978,75.3356014 C34.8104404,75.4247539 34.460733,75.5164756 34.0885931,75.6142779 C34.0103781,75.3717419 33.9816338,75.1314327 33.8632451,74.9503015 C33.6813119,74.6718819 33.4818081,74.3637448 33.2115951,74.1931475 C32.5606275,73.7821553 31.7756623,74.2587486 31.8521715,75.0273786 C31.9005334,75.5134782 32.1127462,75.9822782 32.242735,76.4612696 C32.3726385,76.940004 32.5694129,77.416683 32.6013983,77.9031251 C32.7155223,79.6385588 30.938838,80.7695368 29.4049018,79.953119 C28.4600094,79.4502338 27.9562601,78.6264509 27.7861829,77.5077196" id="Fill-39" fill="#FFFFFF"></path>
                <path d="M37.6512333,77.0534186 C37.1615576,76.8138802 36.7181115,76.5968653 36.2394388,76.3627222 C36.4003895,76.0193866 36.5482902,75.703713 36.7158086,75.3464178 C38.0366791,75.9739111 39.3259054,76.5862458 40.664176,77.2218749 C40.5081724,77.5613567 40.3630865,77.8769446 40.1936916,78.2456301 C39.7145071,78.0237337 39.2575845,77.8121142 38.7497411,77.5769434 C37.785828,79.608867 36.8254973,81.6331686 35.8481077,83.6933538 C35.4793796,83.5175323 35.141784,83.3565268 34.7583852,83.1735972 C35.7280983,81.1219761 36.6804966,79.1070095 37.6512333,77.0534186" id="Fill-41" fill="#FFFFFF"></path>
                <path d="M56.464913,78.4033555 C56.879103,78.3067522 57.2333311,78.2241941 57.631827,78.1311877 C58.2280355,80.6984546 58.8178469,83.238145 59.4207084,85.834016 C59.0236625,85.9273649 58.6608198,86.0128349 58.254818,86.1084105 C57.6563065,83.5318087 57.0658127,80.9901486 56.464913,78.4033555" id="Fill-43" fill="#FFFFFF"></path>
                <path d="M60.4835034,19.9206018 C60.1831815,20.7892607 59.882689,21.6578339 59.5686346,22.5661447 C59.353266,22.4905235 59.1724417,22.4270634 58.9449613,22.3471601 C59.432334,20.9177225 59.9111773,19.5129496 60.3871206,18.1169977 C60.8678404,18.1336977 61.0514794,18.3520828 61.0994149,18.7999864 C61.1881212,19.6309632 61.3416513,20.455003 61.564867,21.3066193 C61.8535889,20.4766702 62.1424813,19.6468068 62.4430591,18.7830295 C62.6507512,18.8543686 62.8451374,18.9210831 63.0685237,18.997732 C62.5826862,20.4228875 62.1068282,21.8188394 61.6267055,23.2271237 C61.2363979,23.1961215 61.0190675,23.0891557 60.9724114,22.6578665 C60.8732139,21.7408203 60.7068044,20.8311392 60.567945,19.9183751 L60.4835034,19.9206018 Z" id="Fill-45" fill="#FFFFFF"></path>
                <path d="M32.7452987,24.4925412 C33.1490828,24.2639648 33.595173,24.0580833 33.5177256,23.5620494 C33.4728607,23.2748943 33.223289,22.9315587 32.9682585,22.7859686 C32.5512537,22.5478004 32.2184346,22.891393 31.8695801,23.1597069 C32.1685373,23.6148043 32.4520562,24.0460935 32.7452987,24.4925412 M34.0367426,24.2284237 C34.5864656,24.5621675 35.128171,24.8910298 35.6771263,25.2244311 C35.1304739,25.6967424 35.1301327,25.6972563 34.5724773,25.364797 C34.3407322,25.2266578 34.1112047,25.0850072 33.8800566,24.9460115 C33.5055285,24.7207751 33.5052726,24.7212033 33.1186327,25.068821 C33.393878,25.4930876 33.671341,25.9205229 33.9729423,26.3852122 C33.7956151,26.5056237 33.623832,26.6222671 33.4056486,26.770512 C32.5806803,25.510644 31.7674826,24.2687607 30.9237494,22.9802029 C31.3863868,22.6921058 31.8013445,22.3923616 32.2522112,22.1642134 C32.7337839,21.9204784 33.2292596,21.9650119 33.6331291,22.3547651 C34.0613927,22.7678127 34.3370645,23.2514286 34.1468578,23.8827757 C34.1147018,23.989399 34.0793899,24.0950803 34.0367426,24.2284237" id="Fill-47" fill="#FFFFFF"></path>
                <path d="M35.8793681,21.1340522 C35.9897392,22.1026544 36.2893787,22.8378843 36.9185109,23.3767389 C37.1069265,23.5380013 37.4750575,23.6019753 37.7259086,23.54785 C38.0656366,23.4743699 38.1741312,23.1199865 38.1413781,22.7889832 C38.0615425,21.9831849 37.7416028,21.2795567 37.1569943,20.7121836 C36.9143315,20.4765846 36.5856065,20.3451253 36.3045612,20.534735 C36.0891073,20.6800681 35.979845,20.9841801 35.8793681,21.1340522 M38.8366988,22.6378264 C38.8101722,23.3546434 38.6057213,23.8517907 38.047213,24.1250719 C37.4977459,24.3938997 36.9533111,24.3283841 36.4942561,23.9341776 C35.6638289,23.2210431 35.2324947,22.2969744 35.2344564,21.1969129 C35.23548,20.6256003 35.5131988,20.1876311 36.0404894,19.9403849 C36.5673535,19.6932243 37.0768175,19.7691025 37.5195812,20.1226294 C38.3584526,20.7926863 38.7030424,21.7242059 38.8366988,22.6378264" id="Fill-49" fill="#FFFFFF"></path>
                <path d="M29.5871932,24.4488813 C29.6061286,24.6643546 29.6231875,24.8580751 29.6397346,25.0462288 C28.6034065,25.3282454 28.3184376,26.0424075 28.9279521,26.9098674 C29.199018,27.2957668 29.5682578,27.637304 29.9573713,27.9043333 C30.1700958,28.0502659 30.5373739,28.0822101 30.7998251,28.0188356 C31.3705305,27.8810389 31.4533515,27.5150083 31.0728527,27.0775529 C30.9333962,26.9172326 30.792575,26.7581968 30.6308567,26.5740682 C30.4461941,26.7201721 30.2734727,26.8566842 30.0784895,27.0108384 C29.9518272,26.8680745 29.8324149,26.7333609 29.6884378,26.5708995 C30.0255216,26.2765506 30.3434995,25.9989874 30.7123982,25.6768908 C31.1624972,26.197932 31.6108051,26.7028726 32.0368511,27.2261405 C32.0952778,27.2979078 32.0749778,27.4709031 32.0380452,27.5787254 C31.6933702,28.5864656 30.6402391,29.0520113 29.6978202,28.5762743 C28.8364311,28.1414738 28.2314372,27.4510343 27.9971332,26.4948501 C27.7382645,25.4387225 28.427444,24.5381195 29.5871932,24.4488813" id="Fill-51" fill="#FFFFFF"></path>
                <path d="M39.1755397,18.6700259 C39.4195673,18.597916 39.605424,18.5429343 39.8268485,18.4775044 C40.0975732,19.3382843 40.3567832,20.1646364 40.6176991,20.9905604 C40.6776611,21.180427 40.7301172,21.3744043 40.8090999,21.5563063 C40.9923978,21.9780036 41.3163463,22.1374676 41.6956509,22.010376 C42.0435671,21.8937327 42.2237944,21.5672684 42.1070262,21.1419741 C41.8997606,20.3873893 41.6550507,19.6431671 41.4276556,18.8941489 C41.3456023,18.6238652 41.2684961,18.35204 41.1791074,18.0468147 C41.3960966,17.9780448 41.5811857,17.9192949 41.8326338,17.8397342 C42.1634059,18.970284 42.5313664,20.0769398 42.8011528,21.2072327 C42.9585212,21.8665844 42.5221545,22.4237662 41.8522516,22.6281062 C41.1553103,22.8406677 40.5333428,22.6153456 40.2529798,21.9528251 C39.9709962,21.2866221 39.776013,20.5829082 39.5502385,19.8933251 C39.4225526,19.5037431 39.3095374,19.109451 39.1755397,18.6700259" id="Fill-53" fill="#FFFFFF"></path>
                <path d="M44.8736897,19.629807 C45.329077,19.5815054 45.713414,19.5175314 45.866347,19.0843581 C45.9984682,18.7101916 45.9359473,18.3404784 45.6729844,18.0426183 C45.3831537,17.7144411 45.0136579,17.7975131 44.5944355,17.9052498 C44.6870653,18.4774188 44.777051,19.0329734 44.8736897,19.629807 M43.7928378,17.3580024 C44.3409402,17.2945422 44.856119,17.1696773 45.3648154,17.191944 C46.0603067,17.2223467 46.4958204,17.7239473 46.5911796,18.4465879 C46.6970301,19.2487036 46.4143641,19.7956084 45.7355052,20.0678619 C45.5145925,20.1564149 45.2790091,20.2083135 45.0034226,20.2909572 C45.0726817,20.7511932 45.1430497,21.2194794 45.2172559,21.7128584 C45.0021432,21.7517395 44.8103158,21.7864242 44.5564794,21.8322423 C44.3050313,20.359042 44.0556302,18.8976602 43.7928378,17.3580024" id="Fill-55" fill="#FFFFFF"></path>
                <path d="M64.6005407,21.7750168 C65.0214691,21.9900619 65.4097296,22.1883214 65.8392727,22.4077342 C65.75884,22.5888653 65.681819,22.7623745 65.5879098,22.9739083 C65.1596461,22.7668278 64.7568002,22.571994 64.3129277,22.3573771 C64.117518,22.7561226 63.933879,23.1307173 63.7379575,23.5304049 C64.2255861,23.7764521 64.6780734,24.004686 65.1671521,24.2514184 C65.0725605,24.4428265 64.9882042,24.6135951 64.8878126,24.8168217 C64.199486,24.4769973 63.5431449,24.1528453 62.8401476,23.8058271 C63.5051035,22.4511543 64.1536829,21.1299672 64.8304947,19.7508009 C65.5080742,20.0848017 66.1617712,20.406984 66.8569213,20.7497201 C66.7626709,20.9475514 66.6812146,21.1181487 66.5865377,21.3164937 C66.1007003,21.0844917 65.6445453,20.8666204 65.1604138,20.6353035 C64.9690129,21.0248854 64.7907475,21.3878329 64.6005407,21.7750168" id="Fill-57" fill="#FFFFFF"></path>
                <path d="M66.6081258,24.6944318 C66.7515911,24.9497283 66.8480592,25.1935489 67.0067923,25.3854708 C67.199899,25.6190144 67.475912,25.7312044 67.768728,25.5655743 C68.0691352,25.3956621 68.1578415,25.1243508 68.0254644,24.79703 C67.8923197,24.4676539 67.7381925,24.1460711 67.6186097,23.811899 C67.3754351,23.1325929 67.5654712,22.5194874 68.0989883,22.1993605 C68.6260229,21.8832588 69.3279113,22.0239673 69.7797163,22.5686455 C69.9455288,22.7686177 70.0483939,23.0210024 70.2127564,23.3063589 C69.947917,23.3911437 69.7557485,23.4526341 69.5790183,23.509243 C69.4387089,23.2828076 69.3613468,23.0311937 69.1923784,22.9194319 C69.0073746,22.7972219 68.6974144,22.7083263 68.5176136,22.784547 C68.3712483,22.8467225 68.2440742,23.1880884 68.2730743,23.3806955 C68.3224598,23.7093865 68.5490873,24.0092164 68.6128023,24.3384213 C68.6882026,24.7278319 68.7587412,25.1569801 68.6696937,25.5300332 C68.556252,26.0055133 68.1400149,26.2632077 67.6440274,26.2943811 C67.0649631,26.3306073 66.6494936,26.0211856 66.3139451,25.5814179 C66.2796567,25.5367132 66.256286,25.4834444 66.2295035,25.4332586 C65.930461,24.8741927 65.9708906,24.7965162 66.6081258,24.6944318" id="Fill-59" fill="#FFFFFF"></path>
                <path d="M73.2458543,25.806346 C73.0343239,25.8543908 72.8470172,25.8968688 72.653484,25.9407171 C72.5750131,25.7394603 72.5245187,25.5436844 72.4271977,25.3751425 C72.263347,25.0917557 72.00934,24.9187604 71.6807856,25.0568141 C71.3785872,25.18382 71.2949133,25.4545319 71.3785872,25.7701198 C71.4733494,26.1272437 71.5923352,26.4793148 71.6638973,26.840892 C71.8069361,27.5637895 71.5445703,28.1089815 70.9599618,28.366676 C70.4165506,28.6061288 69.7821301,28.4389572 69.3803078,27.88306 C69.1731274,27.5964188 69.0629269,27.2392093 68.8887556,26.8713803 C69.1754304,26.8052652 69.3658077,26.7614169 69.5684674,26.7147425 C69.6587943,26.9581348 69.7199504,27.1921066 69.8288715,27.4008143 C69.9999723,27.728392 70.2861353,27.8890549 70.644628,27.7462053 C70.9943355,27.6068671 71.054724,27.2979592 70.9655912,26.959762 C70.8895938,26.6712367 70.7893728,26.3892202 70.7101342,26.1013801 C70.5560924,25.5413721 70.5958396,25.0238422 71.0770711,24.6238121 C71.4516846,24.3125919 71.8740629,24.2542702 72.3118795,24.4571543 C72.8673173,24.7145061 73.1818834,25.1533317 73.2458543,25.806346" id="Fill-61" fill="#FFFFFF"></path>
                <path d="M50.194437,16.7275374 L52.4096203,16.7275374 L52.4096203,17.3360183 C52.0047274,17.3360183 51.6139933,17.3489501 51.2246239,17.3315649 C50.9663522,17.3200034 50.8623782,17.4112969 50.8733812,17.6720744 C50.8864312,17.9830377 50.8764518,18.294943 50.8764518,18.670651 L52.2045724,18.670651 L52.2045724,19.3026833 L50.8439546,19.3026833 C50.8439546,19.7777351 50.8484752,20.2266664 50.8428458,20.6755977 C50.8353398,21.273459 50.8011368,21.2962396 50.194437,21.1542464 L50.194437,16.7275374 Z" id="Fill-63" fill="#FFFFFF"></path>
                <path d="M58.5951089,18.2526106 C58.2764486,18.1959161 58.0128034,18.1489847 57.7090697,18.0949451 C57.4542097,19.3427377 57.2016527,20.5792256 56.9388604,21.8658136 C56.7173506,21.8218797 56.5192115,21.7825704 56.2733074,21.7335836 C56.5266321,20.4619828 56.7729626,19.2252379 57.025349,17.958176 C56.7295477,17.888721 56.4600171,17.8255178 56.1517628,17.7530653 C56.1957747,17.5463274 56.2356073,17.3596295 56.2826045,17.139189 C57.0982758,17.3035345 57.8857146,17.4622277 58.7114506,17.628543 C58.6722151,17.8390491 58.6369885,18.0277167 58.5951089,18.2526106" id="Fill-65" fill="#FFFFFF"></path>
                <path d="M54.8003397,16.9480036 C54.6349537,18.4540901 54.474003,19.9188975 54.3079346,21.4311502 C54.0851454,21.4063999 53.8954504,21.3853321 53.6370081,21.356728 C53.79975,19.8634877 53.9589948,18.4013351 54.1235279,16.890367 C54.3504966,16.909722 54.5523033,16.9268502 54.8003397,16.9480036" id="Fill-67" fill="#FFFFFF"></path>
                <path d="M82.3598696,50.9739884 C83.0223519,49.3468052 83.6595871,47.8254746 84.3425401,46.1711432 C84.9906077,47.8310413 85.5938103,49.4324465 86.217569,50.9739884 L82.3598696,50.9739884 Z M90.7670921,55.4605607 C90.000124,55.339464 89.5215365,54.8611578 89.2533707,54.164809 C88.4448641,52.0650576 87.6469341,49.9586261 86.8503688,47.8543357 C86.3981374,46.6594694 85.9565678,45.4592933 85.5038247,44.2455003 C85.0040842,44.7274891 84.5512557,45.1634029 84.1454245,45.5549546 C84.1048243,45.7924377 84.0985126,46.0140772 84.026524,46.211994 C83.8857881,46.5998631 83.711105,46.9753142 83.5457189,47.3538484 C82.5481998,49.6376428 81.5534954,51.9226362 80.5483851,54.2030907 C80.2597485,54.8579034 79.8110995,55.3627584 79.0673315,55.498928 C79.0568403,55.5008977 79.0541961,55.5129731 79.0447284,55.5986143 L82.2354249,55.5986143 C82.1337539,55.4273319 82.0270505,55.458591 81.9200912,55.4385509 C81.0807933,55.2811423 80.8643159,54.9595596 81.1408407,54.1513634 C81.4400537,53.2768809 81.7947935,52.4172143 82.1480833,51.5626005 C82.1913277,51.4576901 82.3743696,51.3477267 82.4940378,51.3460995 C83.687649,51.3294851 84.8816866,51.3290569 86.0755537,51.3413893 C86.1872041,51.3425883 86.3662373,51.4314838 86.3983933,51.5214928 C86.7574831,52.5264925 87.10122,53.5370589 87.4319067,54.5519073 C87.5333219,54.8636414 87.4046978,55.1193661 87.1097494,55.2606741 C86.8900308,55.3658415 86.6553003,55.4498555 86.4273082,55.5373809 C86.4311464,55.5543378 86.4350699,55.5986143 86.4389935,55.5986143 L90.9046721,55.5986143 C90.8209982,55.5129731 90.7971157,55.4651853 90.7670921,55.4605607 L90.7670921,55.4605607 Z" id="Fill-69" fill="#FFFFFF"></path>
            </g>
        </g>
    </g>
</svg>